<?xml version="1.0" encoding="UTF-8" standalone="no"?>
<!-- Created with Inkscape (http://www.inkscape.org/) -->

<svg
   xmlns:dc="http://purl.org/dc/elements/1.1/"
   xmlns:cc="http://creativecommons.org/ns#"
   xmlns:rdf="http://www.w3.org/1999/02/22-rdf-syntax-ns#"
   xmlns:svg="http://www.w3.org/2000/svg"
   xmlns="http://www.w3.org/2000/svg"
   xmlns:sodipodi="http://sodipodi.sourceforge.net/DTD/sodipodi-0.dtd"
   xmlns:inkscape="http://www.inkscape.org/namespaces/inkscape"
   width="256"
   height="256"
   viewBox="0 0 67.733335 67.73333"
   version="1.1"
   id="svg8"
   inkscape:version="0.92.4 5da689c313, 2019-01-14"
   sodipodi:docname="γ¹.svg">
  <defs
     id="defs2" />
  <sodipodi:namedview
     id="base"
     pagecolor="#ffffff"
     bordercolor="#666666"
     borderopacity="1.0"
     inkscape:pageopacity="0.0"
     inkscape:pageshadow="2"
     inkscape:zoom="1"
     inkscape:cx="143.39023"
     inkscape:cy="-48.387237"
     inkscape:document-units="mm"
     inkscape:current-layer="layer1"
     showgrid="false"
     inkscape:object-nodes="true"
     inkscape:object-paths="true"
     inkscape:snap-intersection-paths="true"
     showguides="true"
     inkscape:guide-bbox="true"
     inkscape:snap-object-midpoints="true"
     inkscape:window-width="1532"
     inkscape:window-height="681"
     inkscape:window-x="1024"
     inkscape:window-y="731"
     inkscape:window-maximized="0"
     fit-margin-top="0"
     fit-margin-left="0"
     fit-margin-right="0"
     fit-margin-bottom="0"
     units="px" />
  <metadata
     id="metadata5">
    <rdf:RDF>
      <cc:Work
         rdf:about="">
        <dc:format>image/svg+xml</dc:format>
        <dc:type
           rdf:resource="http://purl.org/dc/dcmitype/StillImage" />
        <dc:title></dc:title>
      </cc:Work>
    </rdf:RDF>
  </metadata>
  <g
     inkscape:label="Ebene 1"
     inkscape:groupmode="layer"
     id="layer1"
     transform="translate(-14.27496,-85.066063)">
    <g
       id="g865"
       transform="matrix(2.92745,0,0,2.92745,-67.96043,-307.55287)">
      <path
         d="m 38.27896,144.19131 -1.746764,5.62543 h -0.945353 l -1.229349,-3.84366 c -0.03372,-0.0934 -0.06484,-0.20748 -0.09336,-0.34235 -0.01556,0.0648 -0.03112,0.12575 -0.04669,0.18285 -0.01556,0.0571 -0.03242,0.11023 -0.05058,0.1595 l -1.241019,3.84366 h -0.949246 l -2.801206,-7.21293 h 0.875328 c 0.09077,0 0.165987,0.0221 0.225639,0.0662 0.06225,0.0415 0.10375,0.0986 0.124491,0.17118 l 2.015358,4.95264 c 0.02075,0.083 0.0402,0.17378 0.05836,0.27233 0.02075,0.096 0.0415,0.19711 0.06225,0.30344 0.02075,-0.10893 0.04279,-0.21137 0.06614,-0.30733 0.02594,-0.096 0.05317,-0.18544 0.08169,-0.26844 l 1.104857,-3.36514 c 0.02075,-0.0597 0.06095,-0.11413 0.120601,-0.1634 0.06224,-0.0493 0.137453,-0.0739 0.22564,-0.0739 h 0.307338 c 0.09077,0 0.16469,0.0221 0.221749,0.0662 0.05705,0.0441 0.09985,0.10119 0.128382,0.17117 l 1.100967,3.36515 c 0.05447,0.16081 0.103744,0.34625 0.147833,0.55633 0.03372,-0.20489 0.07133,-0.39034 0.11282,-0.55633 l 0.957025,-3.36515 c 0.01556,-0.0648 0.05446,-0.12056 0.11671,-0.16728 0.06485,-0.0467 0.141357,-0.07 0.22953,-0.07 z"
         style="font-style:normal;font-variant:normal;font-weight:bold;font-stretch:normal;font-size:10.58333302px;line-height:1.25;font-family:Lato;-inkscape-font-specification:'Lato Bold';letter-spacing:0px;word-spacing:0px;fill:#000000;fill-opacity:1;stroke:none;stroke-width:0.19451723"
         id="path852"
         inkscape:connector-curvature="0"
         sodipodi:nodetypes="ccccccccccscccccccccssccccccccc" />
      <path
         sodipodi:nodetypes="ccccccccc"
         d="m 43.670867,143.3973 h -3.405428 v 6.41944 H 38.85578 v -6.41944 h -6.051261 v -1.15812 h 10.866348 z"
         style="font-style:normal;font-variant:normal;font-weight:bold;font-stretch:normal;font-size:10.58333302px;line-height:1.25;font-family:Lato;-inkscape-font-specification:'Lato Bold';letter-spacing:0px;word-spacing:0px;fill:#000000;fill-opacity:1;stroke:none;stroke-width:0.26201829"
         id="path854"
         inkscape:connector-curvature="0" />
      <path
         d="m 42.91584,145.02384 v 1.66506 h 2.637734 v 0.83643 H 42.91584 v 2.29141 h -1.579559 v -5.62543 h 4.606328 v 0.83253 z"
         style="font-style:normal;font-variant:normal;font-weight:bold;font-stretch:normal;font-size:10.58333302px;line-height:1.25;font-family:Lato;-inkscape-font-specification:'Lato Bold';letter-spacing:0px;word-spacing:0px;fill:#000000;fill-opacity:1;stroke:none;stroke-width:0.19451723"
         id="path856"
         inkscape:connector-curvature="0"
         sodipodi:nodetypes="ccccccccccc" />
    </g>
    <text
       xml:space="preserve"
       style="font-style:normal;font-variant:normal;font-weight:normal;font-stretch:normal;font-size:7.91711235px;line-height:1.25;font-family:'Tw Cen MT';-inkscape-font-specification:'Tw Cen MT, Normal';font-variant-ligatures:normal;font-variant-caps:normal;font-variant-numeric:normal;text-align:start;letter-spacing:0px;word-spacing:0px;writing-mode:lr-tb;text-anchor:start;fill:#000000;fill-opacity:1;stroke:none;stroke-width:0.19792776"
       x="59.056221"
       y="131.15482"
       id="text851"><tspan
         sodipodi:role="line"
         id="tspan849"
         x="59.056221"
         y="131.15482"
         style="font-style:normal;font-variant:normal;font-weight:bold;font-stretch:normal;font-family:Lato;-inkscape-font-specification:'Lato Bold';stroke-width:0.19792776">.coop</tspan></text>
    <path
       style="opacity:1;vector-effect:none;fill:#666666;fill-opacity:1;stroke:none;stroke-width:0.64011115;stroke-linecap:round;stroke-linejoin:miter;stroke-miterlimit:4;stroke-dasharray:none;stroke-dashoffset:0;stroke-opacity:1;paint-order:stroke markers fill"
       d="m 26.843388,133.79773 h 51.826524 v 3.28683 H 28.240878 Z"
       id="rect848"
       inkscape:connector-curvature="0"
       sodipodi:nodetypes="ccccc" />
  </g>
  <g
     inkscape:groupmode="layer"
     id="layer2"
     inkscape:label="font"
     transform="translate(0,21.372007)" />
</svg>
