<?xml version="1.0" encoding="UTF-8" standalone="no"?>
<!DOCTYPE svg PUBLIC "-//W3C//DTD SVG 1.1//EN" "http://www.w3.org/Graphics/SVG/1.1/DTD/svg11.dtd">
<svg width="100%" height="100%" viewBox="0 0 512 512" version="1.1" xmlns="http://www.w3.org/2000/svg" xmlns:xlink="http://www.w3.org/1999/xlink" xml:space="preserve" xmlns:serif="http://www.serif.com/" style="fill-rule:evenodd;clip-rule:evenodd;stroke-linejoin:round;stroke-miterlimit:2;">
    <g id="Einhorn" transform="matrix(0.96358,0,0,0.96358,-290.274,-1422.49)">
        <path d="M450.529,1662.06L400.757,1697.42L401.385,1712.12C401.385,1712.12 401.392,1712.51 401.318,1712.69C401.189,1713.12 400.944,1713.39 400.944,1713.39L450.529,1662.06Z"/>
        <path d="M736.631,1698.47L756.815,1695.93C756.815,1695.93 757.296,1695.91 757.696,1695.65C758.083,1695.4 758.264,1695.06 758.264,1695.06L750.801,1710.64C750.801,1710.64 750.463,1711.42 749.582,1711.56C748.632,1711.72 748.087,1711.18 748.087,1711.18L743.517,1707.05L745.991,1710.95C745.991,1710.95 746.486,1711.78 746.06,1712.62C745.565,1713.62 744.582,1713.64 744.582,1713.64L734.515,1714.3C734.515,1714.3 735.304,1714.06 735.548,1713.76C735.8,1713.44 736.025,1712.42 736.025,1712.42L736.631,1698.47Z"/>
        <g transform="matrix(-1,0,0,1,1133.78,-0.317371)">
            <path d="M736.631,1698.47L756.815,1695.93C756.815,1695.93 757.296,1695.91 757.696,1695.65C758.083,1695.4 758.264,1695.06 758.264,1695.06L750.801,1710.64C750.801,1710.64 750.463,1711.42 749.582,1711.56C748.632,1711.72 748.087,1711.18 748.087,1711.18L743.517,1707.05L745.991,1710.95C745.991,1710.95 746.486,1711.78 746.06,1712.62C745.565,1713.62 744.582,1713.64 744.582,1713.64L734.515,1714.3C734.515,1714.3 735.304,1714.06 735.548,1713.76C735.8,1713.44 736.025,1712.42 736.025,1712.42L736.631,1698.47Z"/>
        </g>
        <path d="M392.458,1653.33L445.559,1660.94L398.452,1694.68L377.352,1692.04C377.352,1692.04 376.875,1691.98 376.441,1692.17C375.813,1692.44 375.559,1692.97 375.559,1692.97L392.458,1653.33Z"/>
        <g transform="matrix(-1,0,0,1,1133.82,0.344083)">
            <path d="M392.458,1653.33L445.559,1660.94L398.452,1694.68L377.352,1692.04C377.352,1692.04 376.875,1691.98 376.441,1692.17C375.813,1692.44 375.559,1692.97 375.559,1692.97L392.458,1653.33Z"/>
        </g>
        <path d="M671.12,1573.37L702.593,1592.58L707.544,1588.92L698.064,1578.83L687.348,1576.59L689.224,1568.43C689.224,1568.43 689.271,1568.29 689.281,1568.09C689.288,1567.93 689.255,1567.77 689.255,1567.77L686.724,1550.74C686.724,1550.74 686.529,1549.58 685.362,1549.35C684.059,1549.08 683.457,1550.14 683.457,1550.14L674.166,1565.5C674.166,1565.5 674.065,1565.68 674.02,1565.84C673.954,1566.06 673.947,1566.24 673.947,1566.24L673.835,1574.13L671.12,1573.37Z"/>
        <g transform="matrix(-1,0,0,1,1133.81,-0.623595)">
            <path d="M670.409,1573.25L702.616,1592.94L707.454,1589.14L698.064,1578.83L687.348,1576.59L689.224,1568.43C689.224,1568.43 689.271,1568.29 689.281,1568.09C689.288,1567.93 689.255,1567.77 689.255,1567.77L686.724,1550.74C686.724,1550.74 686.529,1549.58 685.362,1549.35C684.059,1549.08 683.457,1550.14 683.457,1550.14L674.166,1565.5C674.166,1565.5 674.065,1565.68 674.02,1565.84C673.954,1566.06 673.947,1566.24 673.947,1566.24L673.84,1573.91L670.409,1573.25Z"/>
        </g>
        <path d="M427.91,1594.32L407.278,1606.88L315.202,1511.83C315.202,1511.83 314.118,1510.66 315.278,1509.41C316.302,1508.31 317.631,1509.24 317.631,1509.24L427.91,1594.32Z"/>
        <g transform="matrix(-1,0,0,1,1133.84,0.346916)">
            <path d="M427.91,1594.32L407.278,1606.88L315.202,1511.83C315.202,1511.83 314.118,1510.66 315.278,1509.41C316.302,1508.31 317.631,1509.24 317.631,1509.24L427.91,1594.32Z"/>
        </g>
        <path d="M352.629,1973.55L412.821,1957.45L564.149,1813.8L502.768,1776.15L352.629,1973.55Z"/>
        <path d="M724.493,1958.33L791.81,1974.99L636.355,1779.22L570.066,1813.9L724.493,1958.33Z"/>
        <path d="M567.109,1811.42L634.096,1776.37L566.931,1691.79L504.928,1773.31L567.109,1811.42Z"/>
        <path d="M501.388,1771.76L565.007,1688.47L507.888,1603.52L471.991,1672.38L501.388,1771.76Z"/>
        <path d="M568.964,1688.62L636.117,1772.79L662.194,1673.36L625.972,1603.85L568.964,1688.62Z"/>
        <path d="M628.44,1600.9L663.644,1574.69L681.595,1659.26L664.468,1669.99L628.44,1600.9Z"/>
        <path d="M452.254,1658.94L469.378,1669.67L505.406,1600.56L470.221,1574.36L452.254,1658.94Z"/>
        <path d="M409.728,1609.57L466.44,1574.95L449.265,1655.87L409.728,1609.57ZM419.698,1608.4C418.738,1609.21 418.917,1610.78 420.06,1611.35L425.353,1613.99C426.003,1614.31 426.771,1614.21 427.32,1613.75L432.618,1609.17C433.604,1608.31 433.359,1606.71 432.159,1606.19C425.3,1602.76 425.728,1603.15 420.361,1607.83C420.143,1608.01 419.68,1608.37 419.698,1608.4Z"/>
        <g transform="matrix(-1,0,0,1,1133.87,0.365109)">
            <path d="M450.529,1662.06L400.757,1697.42L401.402,1712.11C401.402,1712.11 401.412,1712.43 401.327,1712.69C401.198,1713.08 400.954,1713.36 400.954,1713.36L450.529,1662.06Z"/>
        </g>
        <path d="M667.407,1575.3L724.122,1609.91L684.599,1656.21L667.407,1575.3ZM707.873,1603.98C707.655,1603.99 707.437,1604.03 707.227,1604.13L701.695,1606.53C700.477,1607.05 700.242,1608.66 701.232,1609.52L706.538,1614.1C707.075,1614.57 707.86,1614.67 708.506,1614.34L713.79,1611.69C714.933,1611.11 715.121,1609.57 714.156,1608.74L709.095,1604.41C708.754,1604.12 708.323,1603.97 707.873,1603.98Z"/>
        <path d="M687.949,1657.75L740.377,1650.89C740.377,1650.89 731.48,1619.35 729.222,1611.36C729.041,1610.72 728.918,1610.57 728.71,1610.53C728.604,1610.5 728.323,1610.47 727.692,1611.21C721.177,1618.84 687.949,1657.75 687.949,1657.75Z"/>
        <g transform="matrix(-1,0,0,1,1133.99,0.137922)">
            <path d="M688.136,1657.23L740.413,1650.04C740.413,1650.04 731.949,1620.01 729.672,1611.95C729.314,1610.68 728.761,1610.52 728.548,1610.52C728.308,1610.52 728.093,1610.44 727.596,1611.02C721.135,1618.59 688.136,1657.23 688.136,1657.23Z"/>
        </g>
    </g>
</svg>
