<?xml version="1.0" encoding="UTF-8" standalone="no"?>
<svg
   xmlns:dc="http://purl.org/dc/elements/1.1/"
   xmlns:cc="http://creativecommons.org/ns#"
   xmlns:rdf="http://www.w3.org/1999/02/22-rdf-syntax-ns#"
   xmlns:svg="http://www.w3.org/2000/svg"
   xmlns="http://www.w3.org/2000/svg"
   xmlns:sodipodi="http://sodipodi.sourceforge.net/DTD/sodipodi-0.dtd"
   xmlns:inkscape="http://www.inkscape.org/namespaces/inkscape"
   inkscape:version="1.0.1 (3bc2e813f5, 2020-09-07, custom)"
   sodipodi:docname="inverted_unicorn.svg"
   id="svg66"
   viewBox="0 0 135.47 135.47"
   version="1.1"
   enable-background="new"
   height="512"
   width="512">
  <style
     id="style841"></style>
  <defs
     id="defs70" />
  <sodipodi:namedview
     inkscape:current-layer="layer1"
     inkscape:window-maximized="0"
     inkscape:window-y="53"
     inkscape:window-x="2560"
     inkscape:cy="135.80357"
     inkscape:cx="422.86085"
     inkscape:zoom="2"
     showgrid="false"
     id="namedview68"
     inkscape:window-height="2105"
     inkscape:window-width="3836"
     inkscape:pageshadow="2"
     inkscape:pageopacity="0"
     guidetolerance="10"
     gridtolerance="10"
     objecttolerance="10"
     borderopacity="1"
     bordercolor="#666666"
     pagecolor="#ffffff"
     inkscape:document-rotation="0"
     showguides="false" />
  <title
     id="title2">Werkkooperative der Technikfreundinnen e.G.</title>
  <metadata
     id="metadata4">
    <rdf:RDF>
      <cc:Work
         rdf:about="">
        <dc:format>image/svg+xml</dc:format>
        <dc:type
           rdf:resource="http://purl.org/dc/dcmitype/StillImage" />
        <dc:title>Werkkooperative der Technikfreundinnen e.G.</dc:title>
        <cc:license
           rdf:resource="http://creativecommons.org/licenses/by/4.0/" />
        <dc:creator>
          <cc:Agent>
            <dc:title>L3D</dc:title>
          </cc:Agent>
        </dc:creator>
      </cc:Work>
      <cc:License
         rdf:about="http://creativecommons.org/licenses/by/4.0/">
        <cc:permits
           rdf:resource="http://creativecommons.org/ns#Reproduction" />
        <cc:permits
           rdf:resource="http://creativecommons.org/ns#Distribution" />
        <cc:requires
           rdf:resource="http://creativecommons.org/ns#Notice" />
        <cc:requires
           rdf:resource="http://creativecommons.org/ns#Attribution" />
        <cc:permits
           rdf:resource="http://creativecommons.org/ns#DerivativeWorks" />
      </cc:License>
    </rdf:RDF>
  </metadata>
  <g
     inkscape:groupmode="layer"
     id="layer3"
     inkscape:label="bg"
     style="display:none"
     sodipodi:insensitive="true">
    <rect
       style="fill:#ff6600;stroke:none;stroke-width:1.05964;stop-color:#000000"
       id="rect990"
       width="135.47"
       height="135.47"
       x="0"
       y="0" />
    <rect
       style="fill:#000000;stroke:none;stroke-width:1.05964;stop-color:#000000"
       id="rect844"
       width="135.47"
       height="135.47"
       x="0"
       y="0" />
  </g>
  <g
     inkscape:groupmode="layer"
     id="layer5"
     inkscape:label="logobg"
     style="display:inline">
    <path
       id="rect909-3"
       style="display:inline;fill:#ff6600;stroke:none;stroke-width:1.85213;stroke-linecap:round;paint-order:markers fill stroke;stop-color:#000000"
       d="m 107.88755,35.942894 2.69252,10.348489 c 0.005,0.01859 0.0118,0.03686 0.0195,0.05469 l 4.43161,10.398005 -1.55661,3.257792 -3.19339,-2.890591 c -0.39326,-0.363679 -0.982,0.13335 -0.68947,0.582005 l 2.0176,3.171903 -1.627,0.107421 -12.762002,-13.209001 c -0.599876,0.266552 -0.591629,0.685808 -0.398395,0.89677 l 12.654007,13.096001 c 0.0924,0.09611 0.22237,0.146811 0.35546,0.138664 l 2.6035,-0.173833 c 0.34425,-0.02297 0.5382,-0.406312 0.35351,-0.697258 l -0.625,-0.980469 1.1524,1.041002 c 0.22537,0.203846 0.58346,0.133404 0.71484,-0.140627 l 1.9082,-3.992195 c 0.0565,-0.118041 0.0594,-0.254678 0.008,-0.375 L 111.44684,46.01766 108.50559,35.587613 c -0.10154,-0.317426 -0.30676,-0.102194 -0.61804,0.355281 z m -82.188821,-0.08077 -2.839252,10.068345 -4.501999,10.560999 c -0.05091,0.119738 -0.04807,0.255547 0.0078,0.373051 l 1.9102,3.992198 c 0.131378,0.274027 0.489457,0.344464 0.714839,0.140621 l 1.148401,-1.0391 -0.62305,0.97852 c -0.187194,0.291633 0.0077,0.677082 0.35352,0.699221 l 2.603499,0.17188 c 0.133452,0.0092 0.264201,-0.04078 0.357421,-0.136722 l 12.654,-13.097994 0.169949,-0.964245 c -0.181813,-0.114342 -0.418846,-0.08583 -0.568361,0.06836 l -12.764,13.211001 -1.6289,-0.109379 2.019501,-3.1719 c 0.275904,-0.444998 -0.295279,-0.926935 -0.687498,-0.580085 l -3.1934,2.8887 -1.5566,-3.2559 4.4316,-10.398 c 0.007,-0.01782 0.01288,-0.03612 0.01758,-0.0547 l 2.858464,-10.277886 c -0.31986,-0.358503 -0.673128,-0.78757 -0.883714,-0.06699 z"
       sodipodi:nodetypes="ccccccccccccccccccccccccccccccccccccccccccccccc" />
    <path
       id="path846-6"
       style="font-variant-ligatures:normal;font-variant-position:normal;font-variant-caps:normal;font-variant-numeric:normal;font-variant-alternates:normal;font-variant-east-asian:normal;font-feature-settings:normal;font-variation-settings:normal;text-indent:0;text-decoration:none;text-decoration-line:none;text-decoration-style:solid;text-decoration-color:#000000;text-transform:none;text-orientation:mixed;white-space:normal;shape-padding:0;shape-margin:0;inline-size:0;display:inline;isolation:auto;mix-blend-mode:normal;fill:#ff6600;stroke-width:0.999999"
       d="m 97.211,19.834002 c -0.14694,0.011 -0.279435,0.09253 -0.355469,0.21875 l -2.3535,3.8828 c -0.04237,0.06949 -0.0653,0.149087 -0.06641,0.23047 l -0.0293,3.0312 c -0.0011,0.159185 0.08112,0.307354 0.2168,0.39062 l 2.1289,1.3008 c 0.265161,0.161521 0.610622,0.01559 0.679689,-0.28711 l 0.894531,-3.8945 c 0.01302,-0.05502 0.01567,-0.111982 0.0078,-0.16797 l -0.64062,-4.3184 C 97.658532,19.985408 97.448209,19.816809 97.211,19.833942 Z m -0.232419,1.7695 0.44336,2.9824 -0.734379,3.1953 -1.371102,-0.83398 0.02734,-2.6465 1.6348,-2.6973 z M 130.96001,9.6152017 c -0.0958,0.00331 -0.18807,0.036806 -0.26367,0.095703 l -27.039,20.8610003 c -0.21279,0.164316 -0.23726,0.476398 -0.0527,0.67188 l 3.36129,3.5801 c 0.17802,0.189059 0.47796,0.190836 0.65821,0.0039 l 23.678,-24.441 c 0.286,-0.293644 0.0679,-0.7860295 -0.34179,-0.7714803 z m -4.6953,4.6621003 -18.96101,19.578 -2.6934,-2.8691 21.65401,-16.709 z m -89.190711,5.4687 c -0.229821,-0.0056 -0.427675,0.161199 -0.460942,0.38867 l -0.640619,4.3164 c -0.0085,0.05587 -0.0065,0.112833 0.0059,0.16797 l 0.894531,3.8965 c 0.07011,0.301904 0.415156,0.446666 0.679689,0.28516 l 2.1289,-1.2988 c 0.137026,-0.08315 0.22014,-0.232307 0.21875,-0.39258 l -0.0293,-3.0293 c -7.56e-4,-0.08205 -0.0237,-0.16236 -0.06641,-0.23242 l -2.3535,-3.8828 c -0.08023,-0.132322 -0.222259,-0.214744 -0.376951,-0.21875 z m 0.251948,1.7695 1.6367,2.6973 0.0254,2.6484 -1.369099,0.83594 -0.73438,-3.1973 0.44141,-2.9844 z M 3.3457001,9.5293006 c -0.4074058,-0.012728 -0.6243876,0.4757864 -0.3418,0.7695304 l 23.6779999,24.443 c 0.180618,0.185028 0.478987,0.182346 0.65625,-0.0059 l 3.3633,-3.5801 c 0.182639,-0.195829 0.157293,-0.506306 -0.05469,-0.66992 L 3.6077601,9.6229105 c -0.075314,-0.057799 -0.1668337,-0.090568 -0.261718,-0.09371 z m 4.6875003,4.6582004 21.6619986,16.711 -2.693399,2.8691 -18.9689997,-19.58 z"
       sodipodi:nodetypes="cccccccccccccccccccccccccccccccccccccccccccccccccccccccccccccccccccc" />
  </g>
  <g
     inkscape:groupmode="layer"
     id="layer1"
     inkscape:label="Logo"
     style="display:inline">
    <g
       id="g10"
       shape-rendering="auto"
       style="fill:#ff6600">
      <path
         id="path6"
         style="font-variant-ligatures:normal;font-variant-position:normal;font-variant-caps:normal;font-variant-numeric:normal;font-variant-alternates:normal;font-variant-east-asian:normal;font-feature-settings:normal;font-variation-settings:normal;text-indent:0;text-decoration:none;text-decoration-line:none;text-decoration-style:solid;text-decoration-color:#000000;text-transform:none;text-orientation:mixed;white-space:normal;shape-padding:0;shape-margin:0;inline-size:0;isolation:auto;mix-blend-mode:normal;fill:#ff6600"
         stop-color="#000000"
         solid-color="#000000"
         image-rendering="auto"
         fill="#f2f2f2"
         enable-background="accumulate"
         dominant-baseline="auto"
         color-rendering="auto"
         color="#000000"
         d="m 109.8,61.441 2.6032,-0.1735 -2.1751,-3.7494 3.3899,3.2288 1.909,-3.9916 -4.5123,-10.587 -3.1022,-10.999 -0.6169,-0.65706 23.677,-24.443 -27.039,20.862 -3.3539,-3.5722 -3.1322,-0.65439 0.433,-2.1007 -0.61319,-4.0419 -2.3205,3.4889 -0.1464,2.219 -2.7029,-0.75481 -9.8489,7.3325 -14.994,22.424 -15.211,-22.435 -9.8227,-7.3465 -2.7643,0.53982 -0.0445,-1.9467 -2.2444,-3.6912 -0.74936,4.1251 0.46127,2.0054 -3.1605,0.7497 -3.3539,3.5722 -26.691,-20.507 23.329,24.087 -0.59673,0.80978 -3.1224,10.846 -4.5123,10.587 1.909,3.9916 3.1412,-2.7815 -1.9264,3.3022 2.6032,0.17351 12.91,-13.362 5.0527,3.1655 5.8919,24.617 -43.495,47.515 16.507,-4.3999 45.813,-33.585 43.87,33.585 18.295,4.4366 -43.45,-47.523 5.7625,-24.619 5.2333,-3.1042 z" />
      <path
         id="path8"
         style="font-variant-ligatures:normal;font-variant-position:normal;font-variant-caps:normal;font-variant-numeric:normal;font-variant-alternates:normal;font-variant-east-asian:normal;font-feature-settings:normal;font-variation-settings:normal;text-indent:0;text-decoration:none;text-decoration-line:none;text-decoration-style:solid;text-decoration-color:#000000;text-transform:none;text-orientation:mixed;white-space:normal;shape-padding:0;shape-margin:0;inline-size:0;isolation:auto;mix-blend-mode:normal;fill:#ff6600"
         stop-color="#000000"
         solid-color="#000000"
         image-rendering="auto"
         enable-background="accumulate"
         dominant-baseline="auto"
         color-rendering="auto"
         color="#000000"
         d="m 130.89,9.9648 -26.943,20.789 -3.3008,-3.5156 -3.043,-0.63476 0.41016,-1.9961 -0.66797,-4.4023 -2.5293,3.8027 -0.13867,2.0918 -2.6074,-0.72852 -9.9199,7.3848 -14.896,22.279 -15.113,-22.291 -9.8887,-7.3945 -2.668,0.52148 L 39.5434,24.0446 37.1,20.027 l -0.81641,4.4941 0.4375,1.9043 -3.0703,0.72852 -3.3008,3.5137 -26.578,-20.42 -0.00195,-0.002 -0.015625,-0.01172 -0.17578,0.19727 23.252,24.006 -0.54492,0.73828 -3.125,10.861 -4.5332,10.635 2.0098,4.2031 2.6562,-2.3516 -1.6191,2.7754 2.877,0.19141 12.879,-13.328 4.916,3.0801 5.8633,24.496 -43.754,47.795 16.969,-4.5215 45.752,-33.541 43.814005,33.541 18.742,4.5449 -43.695005,-47.791 5.7344,-24.498 5.0957,-3.0215 12.879005,13.33 0.0606,-0.0039 2.8164,-0.1875 -1.8164,-3.1309 2.8516,2.7148 2.0137,-4.2109 -4.5332,-10.633 -3.1094,-11.021 -0.55273,-0.58984 23.576,-24.338 0.0137,-0.01367 -0.17578,-0.19727 z m -1.2891,1.332 -22.49,23.215 0.68165,0.72461 3.0957,10.977 4.4922,10.539 -1.8047,3.7734 -3.2578,-3.1035 -0.20508,0.16211 2.0664,3.5645 -2.3281,0.15625 -12.939,-13.393 -5.373,3.1855 -5.791,24.742 43.205,47.256 -17.848,-4.3281 -43.926,-33.629 -45.873,33.629 -16.045,4.2773 43.236,-47.232 -5.9199,-24.738 -5.1895,-3.25 -12.941,13.395 -2.3301,-0.15625 1.8184,-3.1172 -0.20117,-0.16602 -3.0098,2.666 -1.8066,-3.7812 4.4902,-10.537 3.1191,-10.832 0.64844,-0.88086 -22.148,-22.869 25.352,19.479 3.4082,-3.6309 3.25,-0.77148 -0.48438,-2.1055 0.68164,-3.7578 2.0469,3.3652 0.04687,2.0684 2.8594,-0.55859 9.7578,7.2969 15.309,22.58 15.092,-22.568 9.7773,-7.2812 2.7969,0.78125 0.15625,-2.3457 2.1113,-3.1719 0.55859,3.6777 -0.45508,2.207 3.22069,0.67188 3.4063,3.6289 25.684,-19.812 z" />
    </g>
    <g
       id="g850"
       style="fill:#ff0000">
      <g
         id="g848"
         shape-rendering="auto"
         style="fill:#ff0000" />
    </g>
    <g
       id="g964"
       style="fill:#ffffff">
      <g
         id="g52"
         shape-rendering="auto"
         style="fill:#ffffff" />
    </g>
    <path
       id="rect909"
       style="fill:#ffffff;stroke:none;stroke-width:1.85213;stroke-linecap:round;paint-order:markers fill stroke;stop-color:#000000"
       transform="rotate(127.57075)"
       d="m 4.5600195,-44.58069 0.9124996,0.352811 -0.00445,1.466589 H 4.5545573 Z m -43.6749515,-56.26265 1.440186,0.39324 0.105518,0.994865 -1.781818,-0.48804 z m 41.55502,14.111404 c 0.077443,0.09966 0.1928352,0.162644 0.3185531,0.173852 L 96.645571,-78.177665 81.41165,-89.840862 26.812125,-105.68799 7.9023862,-114.71393 c -0.2266785,-0.10805 -0.4980413,-0.0119 -0.6060129,0.21485 -0.1080845,0.22668 -0.011873,0.49804 0.2148517,0.60602 l 18.975076,9.05641 54.506968,15.818668 12.608664,9.656796 L 2.839232,-87.464 c -0.2501525,-0.02272 -0.4713123,0.16176 -0.4938279,0.411931 -0.00977,0.114439 0.024142,0.228334 0.094925,0.318786 z m -26.906407,1.79905 c 0.04318,0.05269 0.09761,0.09502 0.159336,0.123844 0.227722,0.105941 0.498204,0.0071 0.603986,-0.220684 L -14.9696,-103.8474 c 0.105941,-0.22772 0.0071,-0.4982 -0.220684,-0.60399 -0.227722,-0.10594 -0.498204,-0.007 -0.603985,0.22069 l -8.733399,18.817672 c -0.07355,0.158535 -0.04971,0.3452 0.06135,0.480145 z m -11.824978,-3.343207 c 0.01917,0.02343 0.04061,0.04492 0.06407,0.06406 0.191133,0.162483 0.477766,0.139393 0.640431,-0.05159 l 14.960178,-17.555907 c 0.162482,-0.19113 0.139392,-0.47776 -0.05159,-0.64043 -0.191132,-0.16248 -0.477765,-0.13939 -0.640431,0.0516 l -14.960178,17.555901 c -0.141046,0.164575 -0.146277,0.405843 -0.01248,0.576371 z m 4.630086,-27.874047 10.369818,10.35972 c 0.292588,0.28948 0.78854,0.0721 0.774029,-0.33918 l -0.542277,-15.83691 3.069199,-2.15412 c 0.204987,-0.14483 0.253825,-0.42837 0.109062,-0.63341 -0.144357,-0.20443 -0.426802,-0.25371 -0.631867,-0.11024 l -3.270211,2.29642 c -0.125106,0.0887 -0.197767,0.23391 -0.19254,0.38716 l 0.508677,14.93796 -9.751776,-9.61813 -0.214258,0.38463 z m 5.854304,-9.73222 c 0.0077,0.009 0.016,0.0173 0.02455,0.0256 l 3.935265,3.97831 c 0.176686,0.17852 0.464667,0.17989 0.643052,0.003 0.17851,-0.17669 0.179895,-0.46467 0.0031,-0.64305 l -3.93681,-3.97712 c -0.176185,-0.17782 -0.462971,-0.17976 -0.641506,-0.004 -0.169312,0.16697 -0.181354,0.43618 -0.0276,0.61757 z m -10.699098,23.91327 c 0.03612,0.0435 0.08,0.08 0.129449,0.1074 l 1.345943,0.74378 c 0.293224,0.16344 0.656361,-0.0364 0.675196,-0.37156 l 0.101267,-1.78065 c 0.0107,-0.18387 -0.0906,-0.35602 -0.256523,-0.43596 l -1.358529,-0.65764 c -0.292734,-0.14164 -0.635178,0.061 -0.651971,0.38573 l -0.08862,1.69459 c -0.0061,0.11411 0.03094,0.22637 0.10385,0.31438 z m 0.81833,-0.55068 0.03916,-0.72748 0.468837,0.22826 -0.04153,0.75642 z m -0.584537,14.266845 c 0.184041,0.205155 0.50684,0.200655 0.685093,-0.0096 l 14.960178,-17.555905 c 0.243146,-0.28647 0.05351,-0.72748 -0.321673,-0.74807 l -16.95365,-0.86509 c -0.279644,-0.0143 -0.505618,0.22516 -0.475122,0.50351 l 0.70264,6.47793 0.105518,0.994866 1.183857,10.946793 c 0.0098,0.09497 0.04935,0.184414 0.112897,0.255668 z m 0.678622,-1.401782 -1.820585,-16.841913 15.497232,0.7907 -13.676611,16.050932 z m -0.689597,1.387515 c 0.0589,0.07132 0.138179,0.122946 0.227214,0.148019 l 11.815894,3.334679 c 0.04959,0.01384 0.101159,0.0192 0.152549,0.01571 l 27.081092,-1.727782 c 0.2505,-0.01583 0.4407576,-0.23169 0.4249916,-0.48219 -0.015825,-0.2505 -0.2316901,-0.440758 -0.4821902,-0.424992 l -27.0049394,1.72345 -11.541844,-3.257085 -1.883064,-17.858437 16.518186,0.69248 c 0.0021,0.01 -0.0025,0.002 -0.0025,0.002 l -0.643846,-16.33669 0.107812,0.49642 -0.462665,-0.29033 c -0.04847,0.53344 0.704457,0.69702 0.881696,0.1916 l 1.765286,-1.85372 -2.293257,2.287 0.201042,15.42683 c -0.03185,0.21251 0.08946,0.41828 0.290804,0.49333 l 5.590211,2.07434 c 0.111667,0.0416 0.235213,0.0377 0.344034,-0.0109 l 23.0878356,-10.26266 c 0.2297012,-0.10217 0.3328277,-0.37142 0.2301715,-0.60091 -0.1017232,-0.22928 -0.3699599,-0.33283 -0.5993589,-0.23135 l -22.9193132,10.18978 -5.070687,-1.88266 -0.974186,-15.25204 c 0.01984,-0.13184 3.619201,-3.02847 3.531596,-3.12899 l -0.464321,0.18095 c -0.2281,-0.25886 -1.334425,0.76086 -1.452413,1.08465 l -1.738323,1.00996 -1.263605,-1.30351 c 0.02415,-0.30292 -0.216679,-0.61007 -0.513979,-0.54711 l -2.209447,-2.25153 c -0.128003,0.0272 3.993176,4.21181 3.929146,4.32591 l 0.565857,16.1371 -15.613744,-0.85851 c -0.04335,0.0588 -1.689635,-0.10833 -1.700925,-0.0361 1.032705,10.774485 1.209595,5.72251 2.028314,18.687872 0.01635,0.03436 0.03694,0.06653 0.06131,0.09576 z m 38.9002158,1.611097 c 0.068788,0.08088 0.1637017,0.135152 0.2683053,0.153371 0.2474868,0.04318 0.4830692,-0.122603 0.5259801,-0.370137 l 15.5582078,-89.729219 7.095245,16.18689 0.128351,55.19515 3.933149,20.773126 c 0.04676,0.24707 0.285241,0.409228 0.5322,0.361879 0.245886,-0.04751 0.407016,-0.284966 0.360334,-0.531011 l -3.916215,-20.690264 -0.128842,-55.30076 -8.385579,-19.12308 -16.0728732,92.702738 c -0.022989,0.132483 0.013861,0.268349 0.1006441,0.371062 z m -8.744418,25.706285 c 0.1038372,0.1299 0.2703037,0.192741 0.4340659,0.163844 l 20.4268213,-3.617408 c 0.247304,-0.04383 0.412189,-0.279925 0.368187,-0.527199 -0.04383,-0.247305 -0.279925,-0.41219 -0.5272,-0.368188 l -20.4260275,3.616799 c -0.2473046,0.04383 -0.4121888,0.279925 -0.3681872,0.527199 0.012821,0.07511 0.044308,0.145784 0.091588,0.205534 z m 0.198863,12.283286 c 0.1329632,0.16021 0.3577735,0.209608 0.5456491,0.119889 L 15.42264,-58.507469 c 0.226307,-0.10825 0.322121,-0.379378 0.214088,-0.605788 -0.108707,-0.226738 -0.38085,-0.322137 -0.607335,-0.212895 l -20.8051498,9.958027 c -0.2267377,0.108707 -0.3221378,0.38085 -0.2128955,0.607334 0.016115,0.03374 0.036283,0.0654 0.06012,0.09422 z m 28.3947112,2.542407 0.440678,-0.113632 -6.715599,-11.911383 14.307654,4.325054 c 0.14747,0.04458 0.307484,0.01147 0.425122,-0.08802 l 3.056645,-2.570765 c 0.193143,-0.161528 0.218176,-0.449292 0.05583,-0.641749 -0.161894,-0.19188 -0.448685,-0.216187 -0.640553,-0.05428 l -2.870318,2.412638 -15.168301,-4.585247 c -0.394557,-0.119353 -0.731522,0.305899 -0.525133,0.662724 l 7.262754,12.713714 z m 10.640416,-3.032316 c 0.139822,0.18184 0.39322,0.231007 0.590902,0.114651 0.216651,-0.127077 0.289169,-0.405783 0.161915,-0.622342 l -2.837369,-4.82543 c -0.127076,-0.216651 -0.405782,-0.289169 -0.622341,-0.161915 -0.215379,0.127561 -0.28708,0.405257 -0.160363,0.621153 l 2.835823,4.82662 c 0.0095,0.01641 0.01998,0.03219 0.03144,0.04728 z m -23.9299668,4.722014 c 0.3185329,0.06642 0.6016667,-0.213542 0.5388332,-0.532801 l -0.2888275,-1.480557 c -0.035105,-0.179935 -0.1748516,-0.321181 -0.3544081,-0.358191 l -1.7470796,-0.358733 c -0.3271686,-0.06656 -0.6120701,0.230489 -0.53192,0.554596 0.3873422,1.996029 0.3860433,1.757922 2.383401,2.175689 z m -1.3251623,-1.693696 0.7421369,0.151099 0.098857,0.512897 c -0.715317,-0.108034 -0.6818997,-0.03166 -0.8409946,-0.663993 z M -5.9486479,-48.69268 c 0.051764,0.07204 0.1234424,0.127403 0.2062608,0.159203 l 10.3024066,3.952787 0.9124996,0.352811 6.0795399,2.341976 c 0.261217,0.100854 0.550631,-0.05615 0.608508,-0.330117 l 3.510942,-16.605788 c 0.07868,-0.369444 -0.301405,-0.668113 -0.641764,-0.504303 l -20.8051508,9.958031 c -0.2552655,0.122162 -0.3380763,0.445359 -0.1729958,0.675222 z m 1.5182108,-0.310401 19.0233641,-9.107253 -3.211689,15.185821 -15.8118951,-6.078525 z m -1.5133332,0.316742 c 0.020645,0.02798 0.04444,0.0535 0.070886,0.07608 0.073353,0.04317 6.11392025,1.97839 10.9348359,3.831468 0.3217922,0.123691 0.2254196,0.112757 0.5393771,0.233353 3.3501533,1.287129 6.0221803,2.677427 6.0698893,2.689369 0.07241,0.0069 0.145428,-0.0036 0.212922,-0.03073 l 3.485628,-16.732552 14.843996,4.208806 c 0.125945,-0.03266 3.599985,5.297533 3.659053,5.181603 l -2.201703,-3.335879 c 0.137087,-0.271215 -0.292285,-0.830816 -0.591275,-0.885163 l -0.576934,-0.686898 -0.289141,-0.273663 c 0.345288,-0.02945 0.810412,0.630514 0.617098,0.342917 l 0.14839,-0.07149 c -0.07408,-0.111383 -0.100718,-0.03492 -0.2336,-0.05031 l -15.102116,-5.137539 -0.516688,-5.383483 15.80126,-19.536021 c 0.157302,-0.194932 0.12726,-0.480386 -0.06719,-0.638293 -0.194933,-0.157304 -0.480386,-0.127261 -0.638294,0.06719 l -15.919721,19.678881 c -0.07485,0.09273 -0.110302,0.211142 -0.09871,0.329747 l 0.571462,5.935215 c 0.02023,0.213823 0.187357,0.38431 0.400734,0.408801 l 15.903788,4.542164 -0.200919,-0.418672 -0.287998,-0.370877 c -0.520935,0.05265 -0.554646,0.799228 -0.04058,0.898612 l 0.403323,0.396943 -1.388314,-1.220731 -14.337592,-4.274847 c -0.0184,0.0053 0.05098,0.215075 -0.190402,0.369771 l -3.386561,15.771421 -16.7768286,-6.400807 -0.189688,-11.992717 8.5904075,-25.657197 c 0.079473,-0.238083 -0.049066,-0.495521 -0.2871319,-0.575048 -0.2379945,-0.08039 -0.4960746,0.04751 -0.5762377,0.285586 l -8.6144874,25.732496 c -0.016514,0.04877 -0.024578,0.1 -0.02393,0.151479 l 0.1943505,12.277421 c 0.00151,0.09513 0.032848,0.18738 0.089562,0.263764 z"
       sodipodi:nodetypes="cccccccccccccccccccccccccsccccccsssccccccsscccccscccccccccccccccccccccccccccccccccccccccccccccccccccccccccccccccccccccccccccccccccccccccccccccccccccccccccccccccccccccccccccccccccccccccccccccccccscccccsscccscccccccccccccccccccsscccccccccccccccccccccccccccccccccccccccc" />
  </g>
  <g
     inkscape:groupmode="layer"
     id="layer2"
     inkscape:label="Text"
     style="display:none">
    <path
       style="stroke-width:0.999999"
       id="path58"
       d="m 66.103348,110.33242 -4.205208,13.54267 h -2.275873 l -2.959575,-9.25322 c -0.08117,-0.22477 -0.156084,-0.49949 -0.224774,-0.82418 -0.03747,0.15611 -0.07492,0.30283 -0.112384,0.44019 -0.03747,0.13734 -0.07805,0.26535 -0.121749,0.38399 l -2.987539,9.25322 h -2.285255 l -5.651718,-18.24203 h 2.107204 c 0.218527,0 0.399602,0.0531 0.543208,0.15929 0.149856,0.1 0.249746,0.2373 0.299693,0.41208 l 3.759906,12.80075 c 0.04995,0.1998 0.09678,0.41832 0.140492,0.65557 0.04995,0.23103 0.09989,0.47452 0.149856,0.73052 0.04995,-0.26224 0.103023,-0.50886 0.159217,-0.73988 0.06244,-0.23102 0.127998,-0.44641 0.196667,-0.64621 l 2.65976,-8.10122 c 0.04995,-0.14354 0.146721,-0.27472 0.290329,-0.39335 0.149854,-0.11858 0.330912,-0.17795 0.543206,-0.17795 h 0.739878 c 0.218525,0 0.396467,0.0531 0.533826,0.15929 0.137362,0.10619 0.240385,0.24355 0.309057,0.41208 l 2.650375,8.10122 c 0.131112,0.3871 0.249746,0.83352 0.355886,1.33926 0.08117,-0.49325 0.171695,-0.93968 0.271605,-1.33926 l 2.304014,-8.10122 c 0.03747,-0.1561 0.131112,-0.29033 0.280965,-0.40272 0.156087,-0.11238 0.340276,-0.16849 0.552572,-0.16849 z m 22.215461,10.61571 v 2.28726 q -0.430088,0.31671 -0.918844,0.46528 -0.484824,0.14466 -1.04002,0.14466 -0.692054,0 -1.255085,-0.21504 -0.559118,-0.21504 -0.957905,-0.59821 -0.394901,-0.38318 -0.609941,-0.91492 -0.215048,-0.53175 -0.215048,-1.16128 0,-0.63731 0.207227,-1.16904 0.207227,-0.53175 0.586485,-0.91493 0.383168,-0.38316 0.926681,-0.59431 0.543478,-0.21113 1.21987,-0.21113 0.34407,0 0.641223,0.0547 0.301063,0.0547 0.555205,0.15249 0.258051,0.0938 0.469184,0.23068 0.211134,0.13684 0.387081,0.30106 l -0.301063,0.47701 q -0.07038,0.11339 -0.183769,0.14076 -0.113382,0.0234 -0.246325,-0.0587 -0.12903,-0.0743 -0.258054,-0.14857 -0.129022,-0.0743 -0.289332,-0.12903 -0.156394,-0.0547 -0.355802,-0.0899 -0.195495,-0.0352 -0.453546,-0.0352 -0.418362,0 -0.758527,0.14076 -0.336248,0.14076 -0.574758,0.40272 -0.238506,0.26196 -0.367528,0.62949 -0.129022,0.36753 -0.12903,0.82112 0,0.48482 0.136849,0.86801 0.140756,0.37926 0.390989,0.64514 0.254147,0.26196 0.609943,0.40272 0.355802,0.13685 0.793738,0.13685 0.312793,0 0.559118,-0.0664 0.246328,-0.0664 0.480921,-0.17985 v -1.02441 H 86.65714 q -0.101658,0 -0.16031,-0.0547 -0.05474,-0.0587 -0.05474,-0.14076 v -0.5943 z m -6.392321,0.37029 q 0,-0.18767 -0.05474,-0.35189 -0.05083,-0.16813 -0.156391,-0.29324 -0.105574,-0.12512 -0.269789,-0.1955 -0.160307,-0.0743 -0.375348,-0.0743 -0.418366,0 -0.660778,0.23851 -0.238504,0.2385 -0.304967,0.67641 z m -1.841532,0.58258 q 0.02347,0.30888 0.109476,0.53566 0.08602,0.22286 0.226775,0.37144 0.140757,0.14466 0.332343,0.21895 0.195495,0.0704 0.430089,0.0704 0.234593,0 0.402721,-0.0547 0.172036,-0.0547 0.297153,-0.12121 0.129027,-0.0664 0.222867,-0.1212 0.09775,-0.0547 0.187673,-0.0547 0.121212,0 0.179855,0.0899 l 0.277605,0.35189 q -0.160307,0.18768 -0.35971,0.3167 -0.199408,0.12512 -0.418358,0.20332 -0.215049,0.0743 -0.441823,0.10557 -0.222867,0.0313 -0.434002,0.0313 -0.418361,0 -0.778055,-0.13685 -0.35971,-0.14075 -0.625583,-0.41054 -0.265871,-0.27369 -0.418362,-0.6725 -0.152488,-0.40272 -0.152488,-0.93053 0,-0.41054 0.132935,-0.77022 0.132938,-0.36361 0.379263,-0.62949 0.250233,-0.26978 0.606035,-0.42618 0.35971,-0.1564 0.809352,-0.1564 0.379263,0 0.699874,0.12121 0.320612,0.12121 0.551297,0.3558 0.230688,0.23068 0.35971,0.57085 0.132935,0.33625 0.132935,0.77021 0,0.21896 -0.04692,0.29715 -0.04692,0.0743 -0.179855,0.0743 z m -3.555347,-9.57423 v 4.00842 h 6.349992 v 2.01361 h -6.349992 v 5.51624 h -3.802571 v -13.54266 h 11.089264 v 2.00417 z m 2.724214,-3.91352 h -8.720101 v 15.45368 H 67.140143 V 108.41325 H 54.679332 l -0.891689,-2.78803 h 25.46618 z" />
  </g>
</svg>
