<?xml version="1.0" encoding="UTF-8" standalone="no"?>
<!-- Created with Inkscape (http://www.inkscape.org/) -->

<svg
   xmlns:dc="http://purl.org/dc/elements/1.1/"
   xmlns:cc="http://creativecommons.org/ns#"
   xmlns:rdf="http://www.w3.org/1999/02/22-rdf-syntax-ns#"
   xmlns:svg="http://www.w3.org/2000/svg"
   xmlns="http://www.w3.org/2000/svg"
   xmlns:sodipodi="http://sodipodi.sourceforge.net/DTD/sodipodi-0.dtd"
   xmlns:inkscape="http://www.inkscape.org/namespaces/inkscape"
   width="46mm"
   height="46mm"
   viewBox="0 0 46 46"
   version="1.1"
   id="svg1012"
   inkscape:version="0.92.4 (5da689c313, 2019-01-14)"
   sodipodi:docname="DragonGable.svg">
  <defs
     id="defs1006" />
  <sodipodi:namedview
     id="base"
     pagecolor="#ffffff"
     bordercolor="#666666"
     borderopacity="1.0"
     inkscape:pageopacity="0.0"
     inkscape:pageshadow="2"
     inkscape:zoom="0.35"
     inkscape:cx="370.17278"
     inkscape:cy="-88.199839"
     inkscape:document-units="mm"
     inkscape:current-layer="layer1"
     showgrid="false"
     fit-margin-top="1"
     fit-margin-left="1"
     fit-margin-right="1"
     fit-margin-bottom="1"
     inkscape:window-width="1366"
     inkscape:window-height="707"
     inkscape:window-x="0"
     inkscape:window-y="0"
     inkscape:window-maximized="1" />
  <metadata
     id="metadata1009">
    <rdf:RDF>
      <cc:Work
         rdf:about="">
        <dc:format>image/svg+xml</dc:format>
        <dc:type
           rdf:resource="http://purl.org/dc/dcmitype/StillImage" />
        <dc:title></dc:title>
      </cc:Work>
    </rdf:RDF>
  </metadata>
  <g
     inkscape:label="Ebene 1"
     inkscape:groupmode="layer"
     id="layer1"
     transform="translate(-7.8917848,-79.497127)">
    <path
       style="fill:#000000;stroke-width:0.28735602"
       d="m 43.040789,122.83874 c -0.844124,-0.91852 -3.835847,-4.12107 -6.64827,-7.11676 l -5.113487,-5.44671 -2.23888,2.61188 c -1.231382,1.43654 -3.92366,4.51782 -5.982832,6.84729 l -3.743954,4.2354 -2.51938,-2.95856 -2.519392,-2.95855 5.25115,-7.13668 c 2.888133,-3.92517 5.251149,-7.26473 5.251149,-7.42124 0,-0.15652 -0.483457,-0.77956 -1.074345,-1.38454 l -1.074345,-1.09995 V 97.477464 93.944613 L 21.705316,93.16974 c -0.698108,-0.58615 -1.009296,-0.699158 -1.277615,-0.464011 -0.26833,0.235147 -0.14873,0.571367 0.491022,1.380402 0.946056,1.196385 0.901981,2.300158 -0.124345,3.114134 -0.932575,0.739644 -1.88428,0.400548 -3.191153,-1.136999 -0.950001,-1.117681 -1.379917,-1.412286 -2.060925,-1.412286 -0.710673,0 -1.150079,-0.339605 -2.523465,-1.950304 -0.914614,-1.07267 -1.746175,-2.252941 -1.84792,-2.622823 -1.2149319,-4.417154 -2.3363787,-9.1203 -2.276863,-9.548726 0.04107,-0.295337 1.110577,1.487137 2.376774,3.961052 1.266188,2.473915 2.405769,4.501093 2.532388,4.504835 0.126618,0.0041 0.230218,-0.620768 0.230218,-1.387804 0,-1.744316 0.969248,-3.580534 2.267327,-4.29543 1.316619,-0.725105 4.267448,-0.592504 5.621737,0.252614 0.526046,0.328268 2.661186,2.729092 4.744767,5.33517 2.083571,2.606089 4.012064,4.990289 4.285536,5.298223 0.481634,0.54237 0.628022,0.386578 4.673859,-4.974448 3.343945,-4.430971 4.389959,-5.623065 5.246648,-5.979324 3.555614,-1.478658 6.618351,0.418746 6.618351,4.10015 0,0.911714 0.105688,1.657661 0.234815,1.657661 0.129135,0 1.310527,-1.890124 2.625301,-4.200276 1.314775,-2.310142 2.451605,-4.146716 2.526285,-4.081269 0.207236,0.181617 -1.995412,8.376466 -2.330358,8.670004 -0.161389,0.141435 -0.293437,0.423698 -0.293437,0.627255 0,0.203558 -0.71601,1.268827 -1.591133,2.367272 -1.31445,1.649873 -1.735886,1.997154 -2.423646,1.997154 -0.663767,0 -1.033415,0.274362 -1.823569,1.353479 -1.315088,1.796027 -1.980051,2.102152 -2.907566,1.338523 -1.02331,-0.842495 -1.118501,-1.975163 -0.259144,-3.08348 0.637573,-0.822273 0.705906,-1.760574 0.128209,-1.760574 -0.119008,0 -0.518621,0.358252 -0.888024,0.796123 -0.607582,0.720204 -0.671634,1.120568 -0.671634,4.198162 v 3.402021 l -0.960175,1.06243 c -0.711682,0.78749 -0.890415,1.18456 -0.690648,1.53434 0.148232,0.25955 2.849153,3.73311 6.002044,7.71902 3.152893,3.9859 5.768415,7.36816 5.81228,7.51611 0.07599,0.25638 -4.932005,6.01457 -5.252206,6.03897 -0.08446,0.006 -0.844125,-0.73982 -1.688262,-1.65835 z"
       id="path1025"
       inkscape:connector-curvature="0" />
  </g>
</svg>
