<?xml version="1.0" encoding="UTF-8" standalone="no"?>
<!-- Created with Inkscape (http://www.inkscape.org/) -->

<svg
   xmlns:dc="http://purl.org/dc/elements/1.1/"
   xmlns:cc="http://creativecommons.org/ns#"
   xmlns:rdf="http://www.w3.org/1999/02/22-rdf-syntax-ns#"
   xmlns:svg="http://www.w3.org/2000/svg"
   xmlns="http://www.w3.org/2000/svg"
   xmlns:sodipodi="http://sodipodi.sourceforge.net/DTD/sodipodi-0.dtd"
   xmlns:inkscape="http://www.inkscape.org/namespaces/inkscape"
   version="1.1"
   id="svg2"
   width="2000"
   height="2000"
   viewBox="0 0 2000 2000"
   sodipodi:docname="Logoheg2a.svg"
   inkscape:version="0.92.4 (5da689c313, 2019-01-14)"
   inkscape:export-filename="/home/vv01f/Bilder/Logoheg2a.svg.png"
   inkscape:export-xdpi="600"
   inkscape:export-ydpi="600">
  <metadata
     id="metadata8">
    <rdf:RDF>
      <cc:Work
         rdf:about="">
        <dc:format>image/svg+xml</dc:format>
        <dc:type
           rdf:resource="http://purl.org/dc/dcmitype/StillImage" />
        <dc:title></dc:title>
      </cc:Work>
    </rdf:RDF>
  </metadata>
  <defs
     id="defs6" />
  <sodipodi:namedview
     pagecolor="#ffffff"
     bordercolor="#666666"
     borderopacity="1"
     objecttolerance="10"
     gridtolerance="10"
     guidetolerance="10"
     inkscape:pageopacity="0"
     inkscape:pageshadow="2"
     inkscape:window-width="1366"
     inkscape:window-height="707"
     id="namedview4"
     showgrid="false"
     fit-margin-top="0"
     fit-margin-left="0"
     fit-margin-right="0"
     fit-margin-bottom="0"
     inkscape:zoom="0.044194174"
     inkscape:cx="-8056.7113"
     inkscape:cy="-3813.9384"
     inkscape:window-x="0"
     inkscape:window-y="0"
     inkscape:window-maximized="1"
     inkscape:current-layer="svg2" />
  <g
     id="g126"
     transform="scale(11.111111)">
    <rect
       y="0"
       x="0"
       height="180"
       width="180"
       id="rect28"
       style="opacity:1;fill:#ff6600;fill-opacity:1;stroke:none;stroke-width:9.69538403;stroke-linecap:square;stroke-linejoin:bevel;stroke-miterlimit:4;stroke-dasharray:none;stroke-dashoffset:0.37795278;stroke-opacity:1;paint-order:fill markers stroke" />
    <path
       inkscape:connector-curvature="0"
       id="path17"
       d="m 5.5097717,11.241419 c -0.03865,0.0095 -0.06273,0.04857 -0.07227,0.117187 -0.221253,1.592622 3.946543,19.075926 8.4628903,35.496095 0.378184,1.374997 3.471122,5.762507 6.871094,9.75 5.105332,5.987539 6.737071,7.249998 9.378906,7.249998 2.531562,0 4.130607,1.09516 7.66211,5.25 4.858142,5.71563 8.396534,6.97606 11.863281,4.22656 3.815229,-3.02587 3.977778,-7.12876 0.460937,-11.576168 -2.37819,-3.007463 -2.821671,-4.256721 -1.824218,-5.130859 0.997453,-0.874138 2.152927,-0.454296 4.748047,1.724609 l 3.43164,2.88086 v 13.132808 13.13282 c 3.172109,3.247744 8.334086,11.093554 10.541016,14.851561 l -41.59375,48.50194 18.730469,17.91211 45.830074,-48.14844 45.830082,48.14844 18.73047,-17.91211 -41.59375,-48.50194 c 2.20693,-3.758007 7.36891,-11.603817 10.54102,-14.851561 V 74.362509 61.229701 l 3.43164,-2.88086 c 2.59512,-2.178904 3.75058,-2.598747 4.74804,-1.724609 0.99745,0.874138 0.55397,2.123396 -1.82422,5.130859 -3.51683,4.447408 -3.35428,8.550298 0.46094,11.576168 3.46675,2.7495 7.00513,1.48907 11.86328,-4.22656 3.5315,-4.15484 5.13054,-5.25 7.66211,-5.25 2.64183,0 4.27358,-1.262459 9.37891,-7.249998 3.39997,-3.987493 6.4929,-8.375003 6.87109,-9.75 4.51635,-16.420169 8.68414,-33.903473 8.46289,-35.496095 -0.01,-0.06862 -0.0336,-0.107687 -0.0723,-0.117187 -0.57977,-0.14299 -4.35094,6.22012 -8.76367,14.841798 -4.70691,9.196454 -8.94142,16.734136 -9.41211,16.748046 -0.47069,0.01391 -0.85742,-2.308809 -0.85742,-5.160156 -1e-5,-6.484269 -3.60226,-13.309279 -8.42774,-15.966797 -4.89436,-2.695457 -15.86407,-2.204111 -20.89844,0.9375 L 90.000003,61.630091 53.869147,22.64181 C 48.834768,19.500199 37.86507,19.008853 32.97071,21.70431 c -4.825473,2.657518 -8.427732,9.482528 -8.427735,15.966797 0,2.851347 -0.386731,5.174066 -0.857421,5.160156 -0.470691,-0.01391 -4.705205,-7.551592 -9.41211,-16.748046 C 9.8607207,17.461539 6.0895507,11.098429 5.5097717,11.241419 Z"
       style="fill:#000080;stroke-width:1.06820679" />
  </g>
</svg>
