<?xml version="1.0" encoding="UTF-8" standalone="no"?>
<!-- Created with Inkscape (http://www.inkscape.org/) -->

<svg
   xmlns:dc="http://purl.org/dc/elements/1.1/"
   xmlns:cc="http://creativecommons.org/ns#"
   xmlns:rdf="http://www.w3.org/1999/02/22-rdf-syntax-ns#"
   xmlns:svg="http://www.w3.org/2000/svg"
   xmlns="http://www.w3.org/2000/svg"
   xmlns:sodipodi="http://sodipodi.sourceforge.net/DTD/sodipodi-0.dtd"
   xmlns:inkscape="http://www.inkscape.org/namespaces/inkscape"
   version="1.1"
   id="svg2"
   width="271.9375mm"
   height="272.40665mm"
   viewBox="0 0 1027.7953 1029.5685"
   sodipodi:docname="UnicornGable.svg"
   inkscape:version="0.92.4 (5da689c313, 2019-01-14)"
   inkscape:export-filename="/home/vv01f/repos/hackergeno/serienbrief/UnicornGable.svg.png"
   inkscape:export-xdpi="600"
   inkscape:export-ydpi="600">
  <metadata
     id="metadata8">
    <rdf:RDF>
      <cc:Work
         rdf:about="">
        <dc:format>image/svg+xml</dc:format>
        <dc:type
           rdf:resource="http://purl.org/dc/dcmitype/StillImage" />
        <dc:title></dc:title>
      </cc:Work>
    </rdf:RDF>
  </metadata>
  <defs
     id="defs6" />
  <sodipodi:namedview
     pagecolor="#ffffff"
     bordercolor="#666666"
     borderopacity="1"
     objecttolerance="10"
     gridtolerance="10"
     guidetolerance="10"
     inkscape:pageopacity="0"
     inkscape:pageshadow="2"
     inkscape:window-width="1366"
     inkscape:window-height="707"
     id="namedview4"
     showgrid="false"
     units="mm"
     fit-margin-top="5"
     fit-margin-left="5"
     fit-margin-right="5"
     fit-margin-bottom="5"
     inkscape:zoom="0.27595579"
     inkscape:cx="-44.401471"
     inkscape:cy="316.1724"
     inkscape:window-x="0"
     inkscape:window-y="0"
     inkscape:window-maximized="1"
     inkscape:current-layer="svg2" />
  <g
     id="g985"
     transform="matrix(0.93847171,0,0,0.93847171,18.897638,18.897641)">
    <path
       id="path915"
       d="m 268.86523,501.7168 -33.45703,37.1582 573.10938,516.0312 h 74.72265 z"
       style="fill:#000000;stroke:none;stroke-width:3.77952766;stroke-linecap:butt;stroke-linejoin:miter;stroke-miterlimit:4;stroke-dasharray:none;stroke-opacity:1"
       inkscape:connector-curvature="0" />
    <path
       sodipodi:nodetypes="scscccccsscccscscsscccccccccscccsccsssccccccccccccscssscccccccssccscccsc"
       inkscape:connector-curvature="0"
       id="path919"
       d="m 134.32745,2.09713 c -0.3691,0.0385 -0.7477,0.29736 -1.1406,0.76562 -0.5924,0.70608 -2.4037,22.49086 -4.0234,48.40821 -7.8484,125.58421 -8.9378,142.82066 -9.5098,150.25782 -0.338,4.3959 -1.2722,17.11082 -2.0762,28.2539 -2.4794,34.36622 -4.7298,54.53243 -6.289,56.39063 -1.7567,2.09355 -14.102798,6.14428 -19.324198,6.33984 -3.5737,0.13384 -3.6615,-0.0853 -4.9219,-12.26367 -1.3808,-13.34043 -3.007,-20.99332 -5.945296,-28 -3.622,-8.63701 -2.7368,-9.53369 -20.5117,20.82031 -15.5589,26.5696 -33.685,63.3906 -33.3106,67.66992 0.087,0.99415 -0.6293,2.75531 -1.5918,3.91016 -3.2352,3.88296 -12.293,31.486 -17.5819997,53.58202 -3.6455,15.23003 -3.2805,16.47781 8.0839997,27.66602 12.8356,12.63654 38.1296,25.13788 58.9629,29.14258 5.8908,1.13236 18.977296,2.33891 29.079994,2.68164 17.9875,0.61023 22.0582,1.42638 19.8887,3.98437 -1.7242,2.03305 -8.1798,3.56266 -26.804698,6.35352 -35.555796,5.32788 -76.282396,4.84184 -89.8768957,-1.07422 -2.8049,-1.22066 -5.7774,-1.67638 -6.6035,-1.01172 -0.8262,0.66465 -1.0799,7.73112 -0.5645,15.70312 l 0.9375,14.4961 12.0175997,9.02344 c 32.6484,24.52014 77.680396,43.13761 82.287396,43.45367 4.606998,0.31606 -23.195896,6.38242 -37.613596,7.61468 -18.7899,1.60592 -28.9392,-0.28551 -37.6504,-7.01757 -4.3455,-3.35822 -6.8138,-4.54958 -7.8086,-3.76563 -1.6723,1.31791 4.7597,23.67204 11.9043,41.3711 5.9769,14.80616 11.8038,21.44628 22.3867,25.51171 21.2439,8.16078 49.933896,10.08061 85.394594,5.86524 -0.4565,0.35893 -0.7155,0.56764 -1.1836,0.93555 -10.1726,7.99413 -34.851398,22.15956 -48.226598,27.68164 -17.431296,7.19665 -27.679996,8.45428 -38.015596,4.66211 -5.1559,-1.8917 -7.866,-2.28375 -8.5781,-1.23633 -1.1971,1.7608 18.0798,40.99368 30.2285,55.71484 10.163,12.31496 17.720796,16.89088 29.037096,17.57617 46.186798,2.79696 113.896698,-28.21545 198.181598,-90.77148 21.395,-15.87925 48.2942,-37.25783 62.0703,-49.33203 6.1288,-5.37164 11.9588,-10.40616 12.9571,-11.1836 9.2989,-7.24697 63.5427,-56.73492 64.3633,-58.7207 0.2408,-0.58292 -0.2645,-1.32601 -1.1231,-1.64844 -0.1202,-0.0451 -0.3336,-0.017 -0.5996,0.0508 -1.0029,-0.43677 -6.2547,0.66733 -11.9727,2.53516 -33.0918,10.80969 -68.6301,15.01687 -94.1347,11.14453 -34.9941,-5.31316 -58.626,-23.11902 -100.002,-75.34375 -4.638,-5.85399 -8.5015,-11.51657 -8.5859,-12.58398 -0.1056,-1.33194 1.7832,-1.97156 6.0176,-2.03516 22.5214,-0.33817 34.344,-1.32765 40.0136,-3.34961 7.3996,-2.63896 19.7604,-11.44425 21.6426,-15.41797 0.9049,-1.91044 1.9632,-2.37403 3.7481,-1.63867 2.3706,0.97671 8.3108,-2.46524 36.291,-21.03711 28.5324,-18.93838 76.2155,-49.77052 79.9863,-51.71874 11.9857,-6.1925 14.9757,-27.69226 6.5078,-46.79101 -4.2666,-9.62317 -8.9722,-14.87033 -16.9316,-18.88086 -17.3168,-8.7254 -31.8258,-9.35743 -121.6348,-5.29297 -56.3157,2.54869 -91.1958,2.46858 -94.3984,-0.21875 -0.41,-0.34397 -5.1243,-30.3447 -10.4766,-66.66602 -5.3523,-36.32132 -11.2433,-76.11878 -13.0918,-88.43946 -1.8485,-12.32067 -4.8388,-32.257292 -6.6445,-44.302731 -1.8056,-12.04538 -3.7633,-22.303219 -4.3516,-22.796879 -0.5882,-0.4936 -0.8683,-2.31272 -0.6211,-4.04297 0.2472,-1.73029 -0.8064,-11.6228 -2.3418,-21.98242 -2.2151,-14.94664 -3.9326,-21.20972 -5.9258,-21.00195 z m 92.6465,294.25001 c 12.7273,-0.0462 26.2649,1.74687 29.4063,4.38281 2.9525,2.47749 -2.985,9.35055 -12.6387,14.63086 -11.2075,6.13024 -26.9065,9.62216 -39.6504,8.81836 -11.2056,-0.70678 -14.4795,-2.7808 -14.2812,-9.05078 0.09,-2.83661 1.119,-5.48166 2.9453,-7.83594 4.0178,-5.17946 11.9023,-8.95087 22.1777,-10.25 3.6472,-0.46113 7.7986,-0.6799 12.041,-0.69531 z"
       style="fill:#000000;stroke:none;stroke-width:3.77952766;stroke-linecap:butt;stroke-linejoin:miter;stroke-miterlimit:4;stroke-dasharray:none;stroke-opacity:1" />
    <path
       id="path917"
       d="m 797.36328,501.7168 -614.375,553.1894 h 74.72266 L 830.82031,538.875 Z"
       style="fill:#ffffff;stroke:#000000;stroke-width:3.77952766;stroke-linecap:butt;stroke-linejoin:miter;stroke-miterlimit:4;stroke-dasharray:none;stroke-opacity:1"
       inkscape:connector-curvature="0" />
    <path
       style="fill:#ffffff;stroke:#000000;stroke-width:3.77952766;stroke-linecap:butt;stroke-linejoin:miter;stroke-miterlimit:4;stroke-dasharray:none;stroke-opacity:1"
       d="m 918.68905,2.09713 c 0.3691,0.0385 0.7477,0.29736 1.1406,0.76562 0.5924,0.70608 2.4037,22.49086 4.0234,48.40821 7.8484,125.58421 8.9378,142.82066 9.5098,150.25782 0.338,4.3959 1.2722,17.11082 2.0762,28.2539 2.4794,34.36622 4.7298,54.53243 6.289,56.39063 1.7567,2.09355 14.1028,6.14428 19.3242,6.33984 3.5737,0.13384 3.6615,-0.0853 4.9219,-12.26367 1.3808,-13.34043 3.007,-20.99332 5.9453,-28 3.622,-8.63701 2.7368,-9.53369 20.51171,20.82031 15.55894,26.5696 33.68504,63.3906 33.31064,67.66992 -0.087,0.99415 0.6293,2.75531 1.5918,3.91016 3.2352,3.88296 12.293,31.486 17.582,53.58202 3.6455,15.23003 3.2805,16.47781 -8.084,27.66602 -12.8356,12.63654 -38.12964,25.13788 -58.96295,29.14258 -5.8908,1.13236 -18.9773,2.33891 -29.08,2.68164 -17.9875,0.61023 -22.0582,1.42638 -19.8887,3.98437 1.7242,2.03305 8.1798,3.56266 26.8047,6.35352 35.55581,5.32788 76.28245,4.84184 89.87695,-1.07422 2.8049,-1.22066 5.7774,-1.67638 6.6035,-1.01172 0.8262,0.66465 1.0799,7.73112 0.5645,15.70312 l -0.9375,14.4961 -12.0176,9.02344 c -32.6484,24.52014 -77.68045,43.13761 -82.28745,43.45367 -4.607,0.31606 23.1959,6.38242 37.61361,7.61468 18.78994,1.60592 28.93924,-0.28551 37.65044,-7.01757 4.3455,-3.35822 6.8138,-4.54958 7.8086,-3.76563 1.6723,1.31791 -4.7597,23.67204 -11.9043,41.3711 -5.9769,14.80616 -11.8038,21.44628 -22.3867,25.51171 -21.24394,8.16078 -49.93395,10.08061 -85.39465,5.86524 0.4565,0.35893 0.7155,0.56764 1.1836,0.93555 10.1726,7.99413 34.8514,22.15956 48.2266,27.68164 17.43131,7.19665 27.68001,8.45428 38.01565,4.66211 5.1559,-1.8917 7.866,-2.28375 8.5781,-1.23633 1.1971,1.7608 -18.07984,40.99368 -30.22854,55.71484 -10.16301,12.31496 -17.72081,16.89088 -29.03711,17.57617 -46.1868,2.79696 -113.8967,-28.21545 -198.1816,-90.77148 -21.395,-15.87925 -48.2942,-37.25783 -62.0703,-49.33203 -6.1288,-5.37164 -11.9588,-10.40616 -12.9571,-11.1836 -9.2989,-7.24697 -63.5427,-56.73492 -64.3633,-58.7207 -0.2408,-0.58292 0.2645,-1.32601 1.1231,-1.64844 0.1202,-0.0451 0.3336,-0.017 0.5996,0.0508 1.0029,-0.43677 6.2547,0.66733 11.9727,2.53516 33.0918,10.80969 68.6301,15.01687 94.1347,11.14453 34.9941,-5.31316 58.626,-23.11902 100.002,-75.34375 4.638,-5.85399 8.5015,-11.51657 8.5859,-12.58398 0.1056,-1.33194 -1.7832,-1.97156 -6.0176,-2.03516 -22.5214,-0.33817 -34.344,-1.32765 -40.0136,-3.34961 -7.3996,-2.63896 -19.7604,-11.44425 -21.6426,-15.41797 -0.9049,-1.91044 -1.9632,-2.37403 -3.7481,-1.63867 -2.3706,0.97671 -8.3108,-2.46524 -36.291,-21.03711 -28.5324,-18.93838 -76.2155,-49.77052 -79.9863,-51.71874 -11.9857,-6.1925 -14.9757,-27.69226 -6.5078,-46.79101 4.2666,-9.62317 8.9722,-14.87033 16.9316,-18.88086 17.3168,-8.7254 31.8258,-9.35743 121.6348,-5.29297 56.3157,2.54869 91.1958,2.46858 94.3984,-0.21875 0.41,-0.34397 5.1243,-30.3447 10.4766,-66.66602 5.3523,-36.32132 11.2433,-76.11878 13.0918,-88.43946 1.8485,-12.32067 4.8388,-32.257292 6.6445,-44.302731 1.8056,-12.04538 3.7633,-22.303219 4.3516,-22.796879 0.5882,-0.4936 0.8683,-2.31272 0.6211,-4.04297 -0.2472,-1.73029 0.8064,-11.6228 2.3418,-21.98242 2.2151,-14.94664 3.9326,-21.20972 5.9258,-21.00195 z m -92.6465,294.25001 c -12.7273,-0.0462 -26.2649,1.74687 -29.4063,4.38281 -2.9525,2.47749 2.985,9.35055 12.6387,14.63086 11.2075,6.13024 26.9065,9.62216 39.6504,8.81836 11.2056,-0.70678 14.4795,-2.7808 14.2812,-9.05078 -0.09,-2.83661 -1.119,-5.48166 -2.9453,-7.83594 -4.0178,-5.17946 -11.9023,-8.95087 -22.1777,-10.25 -3.6472,-0.46113 -7.7986,-0.6799 -12.041,-0.69531 z"
       id="path909"
       inkscape:connector-curvature="0"
       sodipodi:nodetypes="scscccccsscccscscsscccccccccscccsccsssccccccccccccscssscccccccssccscccsc" />
  </g>
</svg>
