<?xml version="1.0" encoding="UTF-8" standalone="no"?>
<!-- Created with Inkscape (http://www.inkscape.org/) -->

<svg
   xmlns:dc="http://purl.org/dc/elements/1.1/"
   xmlns:cc="http://creativecommons.org/ns#"
   xmlns:rdf="http://www.w3.org/1999/02/22-rdf-syntax-ns#"
   xmlns:svg="http://www.w3.org/2000/svg"
   xmlns="http://www.w3.org/2000/svg"
   xmlns:sodipodi="http://sodipodi.sourceforge.net/DTD/sodipodi-0.dtd"
   xmlns:inkscape="http://www.inkscape.org/namespaces/inkscape"
   version="1.1"
   id="svg2"
   width="222.92953mm"
   height="239.22009mm"
   viewBox="0 0 842.56833 904.13895"
   sodipodi:docname="UnicornCondomLogo-w.svg"
   inkscape:version="0.92.4 (5da689c313, 2019-01-14)">
  <metadata
     id="metadata8">
    <rdf:RDF>
      <cc:Work
         rdf:about="">
        <dc:format>image/svg+xml</dc:format>
        <dc:type
           rdf:resource="http://purl.org/dc/dcmitype/StillImage" />
        <dc:title></dc:title>
      </cc:Work>
    </rdf:RDF>
  </metadata>
  <defs
     id="defs6" />
  <sodipodi:namedview
     pagecolor="#ffffff"
     bordercolor="#666666"
     borderopacity="1"
     objecttolerance="10"
     gridtolerance="10"
     guidetolerance="10"
     inkscape:pageopacity="0"
     inkscape:pageshadow="2"
     inkscape:window-width="1366"
     inkscape:window-height="707"
     id="namedview4"
     showgrid="false"
     units="mm"
     fit-margin-top="5"
     fit-margin-left="5"
     fit-margin-right="5"
     fit-margin-bottom="5"
     inkscape:zoom="0.39026042"
     inkscape:cx="-81.125602"
     inkscape:cy="478.45663"
     inkscape:window-x="0"
     inkscape:window-y="0"
     inkscape:window-maximized="1"
     inkscape:current-layer="svg2" />
  <path
     style="fill:#ffffff;stroke:#000000;stroke-width:3.77952756;stroke-linecap:butt;stroke-linejoin:miter;stroke-opacity:1;stroke-miterlimit:4;stroke-dasharray:none"
     d="M 393.56919,391.57493 18.897638,850.24302 56.771117,885.24128 442.25464,422.32363 Z"
     id="path13" />
  <path
     style="fill:#ffffff;stroke:#000000;stroke-width:3.77952756;stroke-linecap:butt;stroke-linejoin:miter;stroke-opacity:1;stroke-miterlimit:4;stroke-dasharray:none"
     d="M 822.05078 18.898438 C 821.12906 18.898438 803.27776 31.513041 782.38281 46.931641 C 681.1349 121.64344 667.22694 131.88808 661.16211 136.23047 C 657.57735 138.79714 647.23841 146.25402 638.18555 152.80078 C 610.26574 172.99159 593.373 184.23047 590.94727 184.23047 C 588.21436 184.23047 577.17405 177.37613 573.66797 173.50195 C 571.26831 170.85037 571.37949 170.64326 579.89844 161.84961 C 589.23027 152.21683 594.04861 146.05155 597.52734 139.29688 C 601.8155 130.97054 603.07064 131.07205 568.39258 136.9668 C 538.03805 142.12663 498.18008 151.90976 495.14258 154.94727 C 494.43692 155.65292 492.62834 156.23499 491.125 156.24023 C 486.07092 156.25783 459.10358 167.06336 438.77734 177.21484 C 424.76718 184.21188 424.045 185.29405 422.7793 201.19141 C 421.34974 219.14672 428.03191 246.55845 438.35547 265.0918 C 441.27461 270.33234 448.76279 281.13235 454.99414 289.0918 C 466.08874 303.2632 468.08063 306.90635 464.72656 306.88867 C 462.06083 306.87467 456.73867 302.91301 442.62891 290.43945 C 415.69267 266.62682 389.88611 235.11521 385.67969 220.89844 C 384.81179 217.96511 383.25115 215.39512 382.21094 215.18945 C 381.17074 214.98379 375.59396 219.33242 369.81836 224.85156 L 359.31641 234.88672 L 360.12695 249.89258 C 362.32943 290.66399 384.08316 329.10795 420.14062 355.95508 C 436.23823 367.9408 441.763 371.18167 466.55664 383.18555 C 485.12794 392.17689 491.77943 396.23047 487.96289 396.23047 C 485.27313 396.23047 467.97186 389.09272 448.9043 380.11523 C 431.58453 371.96063 422.8238 367.3279 393.72656 350.94141 C 382.45348 344.59282 359.93606 327.1939 349.72461 316.94141 C 336.41646 303.57975 331.34084 294.58835 330.89844 283.58789 C 330.67774 278.1004 330.00367 275.44563 328.76367 275.1875 C 326.67917 274.75358 313.69041 294.04862 304.72461 310.89844 C 297.22431 324.99422 295.88201 333.72703 299.57031 344.44727 C 314.62401 388.2015 369.14369 438.93496 459.14648 492.94141 C 481.99284 506.65044 512.02327 523.346 528.44336 531.4668 C 535.74843 535.07964 542.62656 538.54654 543.72656 539.17188 C 553.97548 544.99838 620.42951 576.23047 622.57812 576.23047 C 623.20886 576.23047 623.7018 575.48111 623.67188 574.56445 C 623.64198 573.64778 619.29066 570.2041 614.00391 566.91211 C 584.45215 548.51062 558.38666 523.99165 544.95898 501.96484 C 526.53534 471.74262 524.98403 442.19493 538.39453 376.92969 C 539.89776 369.61394 541.75234 363.01459 542.51562 362.26367 C 543.46809 361.32664 545.17094 362.36159 547.94141 365.56445 C 562.67697 382.59946 571.03522 391.02097 576.22852 394.06445 C 583.0064 398.03654 597.69727 401.84485 601.95117 400.73242 C 603.99633 400.19761 605.03128 400.71084 605.61523 402.55078 C 606.39088 404.99464 612.8464 407.33181 645.05859 416.82812 C 677.90655 426.51187 732.17557 443.22113 736.0918 444.85742 C 748.53976 450.05851 766.93169 438.52885 776.11914 419.76562 C 780.74837 410.31153 781.74321 403.3334 779.69922 394.6582 C 775.25228 375.78423 766.41001 364.26322 705.56836 298.07812 C 667.41688 256.57601 645.05859 229.80573 645.05859 225.625 C 645.05859 225.08986 665.00924 202.19505 689.39258 174.74805 C 713.77591 147.30104 740.47656 117.20669 748.72656 107.87109 C 756.97656 98.535492 770.32591 83.430588 778.39258 74.304688 C 786.45925 65.178888 793.05859 57.084406 793.05859 56.316406 C 793.05859 55.548506 794.27346 54.164987 795.75781 53.242188 C 797.24214 52.319288 804.1428 45.153559 811.0918 37.318359 C 822.97441 23.920559 825.96298 18.898437 822.05078 18.898438 z M 627.13477 260.21289 C 633.68505 259.96142 641.64015 263.57694 649.24023 270.61328 C 660.0308 280.60345 673.05859 299.26666 673.05859 304.73438 C 673.05859 308.58866 663.97675 308.45801 653.72656 304.45703 C 641.82651 299.81205 629.06027 290.03103 621.48438 279.75195 C 614.82295 270.71362 614.30773 266.8725 619.23828 262.99414 C 621.46891 261.23953 624.15736 260.32719 627.13477 260.21289 z "
     id="path11" />
</svg>
