<?xml version="1.0" encoding="UTF-8" standalone="no"?>
<svg
   xmlns:dc="http://purl.org/dc/elements/1.1/"
   xmlns:cc="http://creativecommons.org/ns#"
   xmlns:rdf="http://www.w3.org/1999/02/22-rdf-syntax-ns#"
   xmlns:svg="http://www.w3.org/2000/svg"
   xmlns="http://www.w3.org/2000/svg"
   xmlns:xlink="http://www.w3.org/1999/xlink"
   xmlns:sodipodi="http://sodipodi.sourceforge.net/DTD/sodipodi-0.dtd"
   xmlns:inkscape="http://www.inkscape.org/namespaces/inkscape"
   inkscape:version="1.0 (4035a4fb49, 2020-05-01)"
   sodipodi:docname="back.svg"
   width="148mm"
   height="105mm"
   viewBox="0 0 148 105"
   version="1.1"
   id="svg8">
  <title
     id="title1294">WTF Postkarte</title>
  <sodipodi:namedview
     inkscape:document-rotation="0"
     inkscape:current-layer="layer1"
     inkscape:window-maximized="0"
     inkscape:window-y="26"
     inkscape:window-x="1920"
     inkscape:cy="183.32372"
     inkscape:cx="317.72324"
     inkscape:zoom="2.3787301"
     showgrid="false"
     id="namedview468"
     inkscape:window-height="1385"
     inkscape:window-width="2556"
     inkscape:pageshadow="2"
     inkscape:pageopacity="0"
     guidetolerance="10"
     gridtolerance="10"
     objecttolerance="10"
     borderopacity="1"
     bordercolor="#666666"
     pagecolor="#ffffff" />
  <defs
     id="defs2">
    <clipPath
       clipPathUnits="userSpaceOnUse"
       id="clipPath876">
      <path
         d="M 0,0 H 466.535 V 344.646 H 0 Z"
         id="path874" />
    </clipPath>
    <clipPath
       clipPathUnits="userSpaceOnUse"
       id="clipPath602">
      <path
         d="m 352.89,226.04 h 78.803 v 91.559 H 352.89 Z"
         id="path600" />
    </clipPath>
    <clipPath
       clipPathUnits="userSpaceOnUse"
       id="clipPath662">
      <path
         d="m 226.772,57.517 h 26.362 v 154.514 h -26.362 z"
         id="path660" />
    </clipPath>
    <clipPath
       clipPathUnits="userSpaceOnUse"
       id="clipPath786">
      <path
         d="M 252.851,58.11 H 420.055 V 212.032 H 252.851 Z"
         id="path784" />
    </clipPath>
    <clipPath
       clipPathUnits="userSpaceOnUse"
       id="clipPath520">
      <path
         d="M 255.945,49.583 H 434.527 V 203.504 H 255.945 Z"
         id="path518" />
    </clipPath>
    <clipPath
       clipPathUnits="userSpaceOnUse"
       id="clipPath504">
      <path
         d="M 255.945,54 H 418.33 V 203.503 H 255.945 Z"
         id="path502" />
    </clipPath>
    <clipPath
       clipPathUnits="userSpaceOnUse"
       id="clipPath238">
      <path
         d="m 210.59,49.724 h 32.315 V 207.756 H 210.59 Z"
         id="path236" />
    </clipPath>
    <clipPath
       clipPathUnits="userSpaceOnUse"
       id="clipPath102">
      <path
         d="m 210.59,49.724 h 32.315 V 207.756 H 210.59 Z"
         id="path100" />
    </clipPath>
    <clipPath
       clipPathUnits="userSpaceOnUse"
       id="clipPath90">
      <path
         d="m 215.126,64.463 h 26.362 v 143.293 h -26.362 z"
         id="path88" />
    </clipPath>
    <clipPath
       clipPathUnits="userSpaceOnUse"
       id="clipPath30">
      <path
         d="m 210.59,49.724 h 32.315 V 207.756 H 210.59 Z"
         id="path28" />
    </clipPath>
    <clipPath
       clipPathUnits="userSpaceOnUse"
       id="clipPath18">
      <path
         d="m 215.126,64.463 h 26.362 v 143.293 h -26.362 z"
         id="path16" />
    </clipPath>
    <filter
       inkscape:collect="always"
       style="color-interpolation-filters:sRGB"
       id="filter886">
      <feBlend
         inkscape:collect="always"
         mode="color-dodge"
         in2="BackgroundImage"
         id="feBlend888" />
    </filter>
  </defs>
  <metadata
     id="metadata5">
    <rdf:RDF>
      <cc:Work
         rdf:about="">
        <dc:format>image/svg+xml</dc:format>
        <dc:type
           rdf:resource="http://purl.org/dc/dcmitype/StillImage" />
        <dc:title>WTF Postkarte</dc:title>
        <cc:license
           rdf:resource="http://creativecommons.org/licenses/by/4.0/" />
        <dc:creator>
          <cc:Agent>
            <dc:title>L3D</dc:title>
          </cc:Agent>
        </dc:creator>
        <dc:source>C3WOC</dc:source>
      </cc:Work>
      <cc:License
         rdf:about="http://creativecommons.org/licenses/by/4.0/">
        <cc:permits
           rdf:resource="http://creativecommons.org/ns#Reproduction" />
        <cc:permits
           rdf:resource="http://creativecommons.org/ns#Distribution" />
        <cc:requires
           rdf:resource="http://creativecommons.org/ns#Notice" />
        <cc:requires
           rdf:resource="http://creativecommons.org/ns#Attribution" />
        <cc:permits
           rdf:resource="http://creativecommons.org/ns#DerivativeWorks" />
      </cc:License>
    </rdf:RDF>
  </metadata>
  <g
     id="layer1"
     transform="translate(0,-192)">
    <g
       transform="matrix(0.35277777,0,0,-0.35277777,-1.8582551,305.17739)"
       id="g12">
      <g
         id="g14"
         clip-path="url(#clipPath18)">
        <g
           id="g20"
           transform="translate(234.424,243.0662)">
          <path
             d="M 0,0 V -177.568"
             style="fill:none;stroke:#5a5758;stroke-width:2;stroke-linecap:butt;stroke-linejoin:miter;stroke-miterlimit:4;stroke-dasharray:none;stroke-opacity:1"
             id="path22" />
        </g>
      </g>
    </g>
    <g
       transform="matrix(0.35277777,0,0,-0.35277777,-2.9165885,304.11905)"
       id="g232">
      <g
         id="g234"
         clip-path="url(#clipPath238)">
        <path
           d="m 354.519,237.427 h 53.858 v 70.866 h -53.858 z"
           style="fill:#d3d2d2;fill-opacity:1;fill-rule:nonzero;stroke:none"
           id="path240" />
        <g
           id="g242"
           transform="translate(-0.307,323.8578)">
          <path
             d="m 0,0 h -15 m 451.535,0 h 15 M 0,-297.638 h -15 m 451.535,0 h 15 M 8.504,8.504 v 15 m 0,-329.646 v -15 M 428.031,8.504 v 15 m 0,-329.646 v -15"
             style="fill:none;stroke:#ffffff;stroke-width:1.25;stroke-linecap:butt;stroke-linejoin:miter;stroke-miterlimit:10;stroke-dasharray:none;stroke-opacity:1"
             id="path244" />
        </g>
        <g
           id="g246"
           transform="translate(-0.307,323.8578)">
          <path
             d="m 0,0 h -15 m 451.535,0 h 15 M 0,-297.638 h -15 m 451.535,0 h 15 M 8.504,8.504 v 15 m 0,-329.646 v -15 M 428.031,8.504 v 15 m 0,-329.646 v -15"
             style="fill:none;stroke:#000000;stroke-width:0.25;stroke-linecap:butt;stroke-linejoin:miter;stroke-miterlimit:10;stroke-dasharray:none;stroke-opacity:1"
             id="path248" />
        </g>
        <g
           id="g250"
           transform="translate(222.961,339.8617)">
          <path
             d="m 0,0 c 0,-2.761 -2.24,-5 -5,-5 -2.761,0 -5,2.239 -5,5 0,2.761 2.239,5 5,5 2.76,0 5,-2.239 5,-5 z M -11,0 H 1 M -5,6 V -6 m 3,6 c 0,-1.657 -1.343,-3 -3,-3 -1.657,0 -3,1.343 -3,3 0,1.657 1.343,3 3,3 1.657,0 3,-1.343 3,-3 z"
             style="fill:none;stroke:#ffffff;stroke-width:1.25;stroke-linecap:butt;stroke-linejoin:miter;stroke-miterlimit:10;stroke-dasharray:none;stroke-opacity:1"
             id="path252" />
        </g>
        <g
           id="g254"
           transform="translate(222.961,339.8617)">
          <path
             d="m 0,0 c 0,-2.761 -2.24,-5 -5,-5 -2.761,0 -5,2.239 -5,5 0,2.761 2.239,5 5,5 2.76,0 5,-2.239 5,-5 z M -11,0 H 1 M -5,6 V -6"
             style="fill:none;stroke:#000000;stroke-width:0.25;stroke-linecap:butt;stroke-linejoin:miter;stroke-miterlimit:10;stroke-dasharray:none;stroke-opacity:1"
             id="path256" />
        </g>
        <g
           id="g258"
           transform="translate(220.961,339.8617)">
          <path
             d="m 0,0 c 0,-1.657 -1.343,-3 -3,-3 -1.657,0 -3,1.343 -3,3 0,1.657 1.343,3 3,3 1.657,0 3,-1.343 3,-3"
             style="fill:#000000;fill-opacity:1;fill-rule:nonzero;stroke:none"
             id="path260" />
        </g>
        <g
           id="g262"
           transform="translate(214.961,339.8617)">
          <path
             d="M 0,0 H 6 M 3,3 v -6"
             style="fill:none;stroke:#ffffff;stroke-width:0.25;stroke-linecap:butt;stroke-linejoin:miter;stroke-miterlimit:10;stroke-dasharray:none;stroke-opacity:1"
             id="path264" />
        </g>
        <g
           id="g266"
           transform="translate(222.961,10.2162)">
          <path
             d="m 0,0 c 0,-2.761 -2.24,-5 -5,-5 -2.761,0 -5,2.239 -5,5 0,2.761 2.239,5 5,5 2.76,0 5,-2.239 5,-5 z M -11,0 H 1 M -5,6 V -6 m 3,6 c 0,-1.657 -1.343,-3 -3,-3 -1.657,0 -3,1.343 -3,3 0,1.657 1.343,3 3,3 1.657,0 3,-1.343 3,-3 z"
             style="fill:none;stroke:#ffffff;stroke-width:1.25;stroke-linecap:butt;stroke-linejoin:miter;stroke-miterlimit:10;stroke-dasharray:none;stroke-opacity:1"
             id="path268" />
        </g>
        <g
           id="g270"
           transform="translate(222.961,10.2162)">
          <path
             d="m 0,0 c 0,-2.761 -2.24,-5 -5,-5 -2.761,0 -5,2.239 -5,5 0,2.761 2.239,5 5,5 2.76,0 5,-2.239 5,-5 z M -11,0 H 1 M -5,6 V -6"
             style="fill:none;stroke:#000000;stroke-width:0.25;stroke-linecap:butt;stroke-linejoin:miter;stroke-miterlimit:10;stroke-dasharray:none;stroke-opacity:1"
             id="path272" />
        </g>
        <g
           id="g274"
           transform="translate(220.961,10.2162)">
          <path
             d="m 0,0 c 0,-1.657 -1.343,-3 -3,-3 -1.657,0 -3,1.343 -3,3 0,1.657 1.343,3 3,3 1.657,0 3,-1.343 3,-3"
             style="fill:#000000;fill-opacity:1;fill-rule:nonzero;stroke:none"
             id="path276" />
        </g>
        <g
           id="g278"
           transform="translate(214.961,10.2162)">
          <path
             d="M 0,0 H 6 M 3,3 v -6"
             style="fill:none;stroke:#ffffff;stroke-width:0.25;stroke-linecap:butt;stroke-linejoin:miter;stroke-miterlimit:10;stroke-dasharray:none;stroke-opacity:1"
             id="path280" />
        </g>
        <g
           id="g282"
           transform="translate(-2.807,175.0392)">
          <path
             d="m 0,0 c 0,-2.761 -2.239,-5 -5,-5 -2.761,0 -5,2.239 -5,5 0,2.761 2.239,5 5,5 2.761,0 5,-2.239 5,-5 z M -11,0 H 1 M -5,6 V -6 m 3,6 c 0,-1.657 -1.343,-3 -3,-3 -1.657,0 -3,1.343 -3,3 0,1.657 1.343,3 3,3 1.657,0 3,-1.343 3,-3 z"
             style="fill:none;stroke:#ffffff;stroke-width:1.25;stroke-linecap:butt;stroke-linejoin:miter;stroke-miterlimit:10;stroke-dasharray:none;stroke-opacity:1"
             id="path284" />
        </g>
        <g
           id="g286"
           transform="translate(-2.807,175.0392)">
          <path
             d="m 0,0 c 0,-2.761 -2.239,-5 -5,-5 -2.761,0 -5,2.239 -5,5 0,2.761 2.239,5 5,5 2.761,0 5,-2.239 5,-5 z M -11,0 H 1 M -5,6 V -6"
             style="fill:none;stroke:#000000;stroke-width:0.25;stroke-linecap:butt;stroke-linejoin:miter;stroke-miterlimit:10;stroke-dasharray:none;stroke-opacity:1"
             id="path288" />
        </g>
        <g
           id="g290"
           transform="translate(-4.807,175.0392)">
          <path
             d="m 0,0 c 0,-1.657 -1.343,-3 -3,-3 -1.657,0 -3,1.343 -3,3 0,1.657 1.343,3 3,3 1.657,0 3,-1.343 3,-3"
             style="fill:#000000;fill-opacity:1;fill-rule:nonzero;stroke:none"
             id="path292" />
        </g>
        <g
           id="g294"
           transform="translate(-10.807,175.0392)">
          <path
             d="M 0,0 H 6 M 3,3 v -6"
             style="fill:none;stroke:#ffffff;stroke-width:0.25;stroke-linecap:butt;stroke-linejoin:miter;stroke-miterlimit:10;stroke-dasharray:none;stroke-opacity:1"
             id="path296" />
        </g>
        <g
           id="g298"
           transform="translate(448.728,175.0392)">
          <path
             d="m 0,0 c 0,-2.761 -2.238,-5 -5,-5 -2.761,0 -5,2.239 -5,5 0,2.761 2.239,5 5,5 2.762,0 5,-2.239 5,-5 z M -11,0 H 1 M -5,6 V -6 m 3,6 c 0,-1.657 -1.343,-3 -3,-3 -1.657,0 -3,1.343 -3,3 0,1.657 1.343,3 3,3 1.657,0 3,-1.343 3,-3 z"
             style="fill:none;stroke:#ffffff;stroke-width:1.25;stroke-linecap:butt;stroke-linejoin:miter;stroke-miterlimit:10;stroke-dasharray:none;stroke-opacity:1"
             id="path300" />
        </g>
        <g
           id="g302"
           transform="translate(448.728,175.0392)">
          <path
             d="m 0,0 c 0,-2.761 -2.238,-5 -5,-5 -2.761,0 -5,2.239 -5,5 0,2.761 2.239,5 5,5 2.762,0 5,-2.239 5,-5 z M -11,0 H 1 M -5,6 V -6"
             style="fill:none;stroke:#000000;stroke-width:0.25;stroke-linecap:butt;stroke-linejoin:miter;stroke-miterlimit:10;stroke-dasharray:none;stroke-opacity:1"
             id="path304" />
        </g>
        <g
           id="g306"
           transform="translate(446.728,175.0392)">
          <path
             d="m 0,0 c 0,-1.657 -1.343,-3 -3,-3 -1.657,0 -3,1.343 -3,3 0,1.657 1.343,3 3,3 1.657,0 3,-1.343 3,-3"
             style="fill:#000000;fill-opacity:1;fill-rule:nonzero;stroke:none"
             id="path308" />
        </g>
        <g
           id="g310"
           transform="translate(440.728,175.0392)">
          <path
             d="M 0,0 H 6 M 3,3 v -6"
             style="fill:none;stroke:#ffffff;stroke-width:0.25;stroke-linecap:butt;stroke-linejoin:miter;stroke-miterlimit:10;stroke-dasharray:none;stroke-opacity:1"
             id="path312" />
        </g>
      </g>
    </g>
    <g
       transform="matrix(0.35277777,0,0,-0.35277777,-2.9165885,304.11905)"
       id="g498">
      <g
         id="g500"
         clip-path="url(#clipPath504)">
        <g
           id="g506"
           transform="translate(418.3303,174.8451)">
          <path
             d="M 0,0 H -158.737 M 0,-35.888 H -158.737 M 0,-72.252 h -158.737"
             style="fill:none;stroke:#a7a5a6;stroke-width:0.40000001;stroke-linecap:butt;stroke-linejoin:miter;stroke-miterlimit:4;stroke-dasharray:none;stroke-opacity:1"
             id="path508" />
        </g>
        <g
           id="g510"
           transform="translate(418.3303,66.7041)">
          <path
             d="M 0,0 H -158.737"
             style="fill:none;stroke:#d3d2d2;stroke-width:1;stroke-linecap:butt;stroke-linejoin:miter;stroke-miterlimit:4;stroke-dasharray:none;stroke-opacity:1"
             id="path512" />
        </g>
      </g>
    </g>
    <g
       transform="matrix(0.35277777,0,0,-0.35277777,-2.9165885,304.11905)"
       id="g514">
      <g
         id="g516"
         clip-path="url(#clipPath520)">
        <path
           d="m 364.44,226.372 h 53.858 v 70.866 H 364.44 Z"
           style="fill:#d3d2d2;fill-opacity:1;fill-rule:nonzero;stroke:none"
           id="path522" />
        <g
           id="g524"
           transform="translate(9.6143,312.8027)">
          <path
             d="m 0,0 h -15 m 451.535,0 h 15 M 0,-297.638 h -15 m 451.535,0 h 15 M 8.504,8.504 v 15 m 0,-329.646 v -15 M 428.031,8.504 v 15 m 0,-329.646 v -15"
             style="fill:none;stroke:#ffffff;stroke-width:1.25;stroke-linecap:butt;stroke-linejoin:miter;stroke-miterlimit:10;stroke-dasharray:none;stroke-opacity:1"
             id="path526" />
        </g>
        <g
           id="g528"
           transform="translate(9.6143,312.8027)">
          <path
             d="m 0,0 h -15 m 451.535,0 h 15 M 0,-297.638 h -15 m 451.535,0 h 15 M 8.504,8.504 v 15 m 0,-329.646 v -15 M 428.031,8.504 v 15 m 0,-329.646 v -15"
             style="fill:none;stroke:#000000;stroke-width:0.25;stroke-linecap:butt;stroke-linejoin:miter;stroke-miterlimit:10;stroke-dasharray:none;stroke-opacity:1"
             id="path530" />
        </g>
        <g
           id="g532"
           transform="translate(232.8823,328.8066)">
          <path
             d="m 0,0 c 0,-2.761 -2.24,-5 -5,-5 -2.761,0 -5,2.239 -5,5 0,2.761 2.239,5 5,5 2.76,0 5,-2.239 5,-5 z M -11,0 H 1 M -5,6 V -6 m 3,6 c 0,-1.657 -1.343,-3 -3,-3 -1.657,0 -3,1.343 -3,3 0,1.657 1.343,3 3,3 1.657,0 3,-1.343 3,-3 z"
             style="fill:none;stroke:#ffffff;stroke-width:1.25;stroke-linecap:butt;stroke-linejoin:miter;stroke-miterlimit:10;stroke-dasharray:none;stroke-opacity:1"
             id="path534" />
        </g>
        <g
           id="g536"
           transform="translate(232.8823,328.8066)">
          <path
             d="m 0,0 c 0,-2.761 -2.24,-5 -5,-5 -2.761,0 -5,2.239 -5,5 0,2.761 2.239,5 5,5 2.76,0 5,-2.239 5,-5 z M -11,0 H 1 M -5,6 V -6"
             style="fill:none;stroke:#000000;stroke-width:0.25;stroke-linecap:butt;stroke-linejoin:miter;stroke-miterlimit:10;stroke-dasharray:none;stroke-opacity:1"
             id="path538" />
        </g>
        <g
           id="g540"
           transform="translate(230.8823,328.8066)">
          <path
             d="m 0,0 c 0,-1.657 -1.343,-3 -3,-3 -1.657,0 -3,1.343 -3,3 0,1.657 1.343,3 3,3 1.657,0 3,-1.343 3,-3"
             style="fill:#000000;fill-opacity:1;fill-rule:nonzero;stroke:none"
             id="path542" />
        </g>
        <g
           id="g544"
           transform="translate(224.8823,328.8066)">
          <path
             d="M 0,0 H 6 M 3,3 v -6"
             style="fill:none;stroke:#ffffff;stroke-width:0.25;stroke-linecap:butt;stroke-linejoin:miter;stroke-miterlimit:10;stroke-dasharray:none;stroke-opacity:1"
             id="path546" />
        </g>
        <g
           id="g548"
           transform="translate(232.8823,-0.8389)">
          <path
             d="m 0,0 c 0,-2.761 -2.24,-5 -5,-5 -2.761,0 -5,2.239 -5,5 0,2.761 2.239,5 5,5 2.76,0 5,-2.239 5,-5 z M -11,0 H 1 M -5,6 V -6 m 3,6 c 0,-1.657 -1.343,-3 -3,-3 -1.657,0 -3,1.343 -3,3 0,1.657 1.343,3 3,3 1.657,0 3,-1.343 3,-3 z"
             style="fill:none;stroke:#ffffff;stroke-width:1.25;stroke-linecap:butt;stroke-linejoin:miter;stroke-miterlimit:10;stroke-dasharray:none;stroke-opacity:1"
             id="path550" />
        </g>
        <g
           id="g552"
           transform="translate(232.8823,-0.8389)">
          <path
             d="m 0,0 c 0,-2.761 -2.24,-5 -5,-5 -2.761,0 -5,2.239 -5,5 0,2.761 2.239,5 5,5 2.76,0 5,-2.239 5,-5 z M -11,0 H 1 M -5,6 V -6"
             style="fill:none;stroke:#000000;stroke-width:0.25;stroke-linecap:butt;stroke-linejoin:miter;stroke-miterlimit:10;stroke-dasharray:none;stroke-opacity:1"
             id="path554" />
        </g>
        <g
           id="g556"
           transform="translate(230.8823,-0.8389)">
          <path
             d="m 0,0 c 0,-1.657 -1.343,-3 -3,-3 -1.657,0 -3,1.343 -3,3 0,1.657 1.343,3 3,3 1.657,0 3,-1.343 3,-3"
             style="fill:#000000;fill-opacity:1;fill-rule:nonzero;stroke:none"
             id="path558" />
        </g>
        <g
           id="g560"
           transform="translate(224.8823,-0.8389)">
          <path
             d="M 0,0 H 6 M 3,3 v -6"
             style="fill:none;stroke:#ffffff;stroke-width:0.25;stroke-linecap:butt;stroke-linejoin:miter;stroke-miterlimit:10;stroke-dasharray:none;stroke-opacity:1"
             id="path562" />
        </g>
        <g
           id="g564"
           transform="translate(7.1143,163.9841)">
          <path
             d="m 0,0 c 0,-2.761 -2.239,-5 -5,-5 -2.761,0 -5,2.239 -5,5 0,2.761 2.239,5 5,5 2.761,0 5,-2.239 5,-5 z M -11,0 H 1 M -5,6 V -6 m 3,6 c 0,-1.657 -1.343,-3 -3,-3 -1.657,0 -3,1.343 -3,3 0,1.657 1.343,3 3,3 1.657,0 3,-1.343 3,-3 z"
             style="fill:none;stroke:#ffffff;stroke-width:1.25;stroke-linecap:butt;stroke-linejoin:miter;stroke-miterlimit:10;stroke-dasharray:none;stroke-opacity:1"
             id="path566" />
        </g>
        <g
           id="g568"
           transform="translate(7.1143,163.9841)">
          <path
             d="m 0,0 c 0,-2.761 -2.239,-5 -5,-5 -2.761,0 -5,2.239 -5,5 0,2.761 2.239,5 5,5 2.761,0 5,-2.239 5,-5 z M -11,0 H 1 M -5,6 V -6"
             style="fill:none;stroke:#000000;stroke-width:0.25;stroke-linecap:butt;stroke-linejoin:miter;stroke-miterlimit:10;stroke-dasharray:none;stroke-opacity:1"
             id="path570" />
        </g>
        <g
           id="g572"
           transform="translate(5.1143,163.9841)">
          <path
             d="m 0,0 c 0,-1.657 -1.343,-3 -3,-3 -1.657,0 -3,1.343 -3,3 0,1.657 1.343,3 3,3 1.657,0 3,-1.343 3,-3"
             style="fill:#000000;fill-opacity:1;fill-rule:nonzero;stroke:none"
             id="path574" />
        </g>
        <g
           id="g576"
           transform="translate(-0.8857,163.9841)">
          <path
             d="M 0,0 H 6 M 3,3 v -6"
             style="fill:none;stroke:#ffffff;stroke-width:0.25;stroke-linecap:butt;stroke-linejoin:miter;stroke-miterlimit:10;stroke-dasharray:none;stroke-opacity:1"
             id="path578" />
        </g>
        <g
           id="g580"
           transform="translate(458.6493,163.9841)">
          <path
             d="m 0,0 c 0,-2.761 -2.238,-5 -5,-5 -2.761,0 -5,2.239 -5,5 0,2.761 2.239,5 5,5 2.762,0 5,-2.239 5,-5 z M -11,0 H 1 M -5,6 V -6 m 3,6 c 0,-1.657 -1.343,-3 -3,-3 -1.657,0 -3,1.343 -3,3 0,1.657 1.343,3 3,3 1.657,0 3,-1.343 3,-3 z"
             style="fill:none;stroke:#ffffff;stroke-width:1.25;stroke-linecap:butt;stroke-linejoin:miter;stroke-miterlimit:10;stroke-dasharray:none;stroke-opacity:1"
             id="path582" />
        </g>
        <g
           id="g584"
           transform="translate(458.6493,163.9841)">
          <path
             d="m 0,0 c 0,-2.761 -2.238,-5 -5,-5 -2.761,0 -5,2.239 -5,5 0,2.761 2.239,5 5,5 2.762,0 5,-2.239 5,-5 z M -11,0 H 1 M -5,6 V -6"
             style="fill:none;stroke:#000000;stroke-width:0.25;stroke-linecap:butt;stroke-linejoin:miter;stroke-miterlimit:10;stroke-dasharray:none;stroke-opacity:1"
             id="path586" />
        </g>
        <g
           id="g588"
           transform="translate(456.6493,163.9841)">
          <path
             d="m 0,0 c 0,-1.657 -1.343,-3 -3,-3 -1.657,0 -3,1.343 -3,3 0,1.657 1.343,3 3,3 1.657,0 3,-1.343 3,-3"
             style="fill:#000000;fill-opacity:1;fill-rule:nonzero;stroke:none"
             id="path590" />
        </g>
        <g
           id="g592"
           transform="translate(450.6493,163.9841)">
          <path
             d="M 0,0 H 6 M 3,3 v -6"
             style="fill:none;stroke:#ffffff;stroke-width:0.25;stroke-linecap:butt;stroke-linejoin:miter;stroke-miterlimit:10;stroke-dasharray:none;stroke-opacity:1"
             id="path594" />
        </g>
      </g>
    </g>
    <g
       id="g798"
       transform="matrix(0.30875104,0,0,-0.26363418,5.0880986,104.53024)">
      <path
         d="m 0,0 h -15 m 451.535,0 h 15 M 0,-297.638 h -15 m 451.535,0 h 15 M 8.504,8.504 v 15 m 0,-329.646 v -15 M 428.031,8.504 v 15 m 0,-329.646 v -15"
         style="fill:none;stroke:#ffffff;stroke-width:1.25;stroke-linecap:butt;stroke-linejoin:miter;stroke-miterlimit:10;stroke-dasharray:none;stroke-opacity:1"
         id="path800" />
    </g>
    <text
       id="text1298"
       y="295.75082"
       x="1.9767762"
       style="font-style:normal;font-weight:normal;font-size:2.41007px;line-height:1.25;font-family:sans-serif;letter-spacing:0px;word-spacing:0px;fill:#000000;fill-opacity:1;stroke:none;stroke-width:0.0602519"
       xml:space="preserve"><tspan
         style="font-style:normal;font-variant:normal;font-weight:bold;font-stretch:normal;font-family:Lato;-inkscape-font-specification:'Lato Bold';stroke-width:0.0602519"
         y="295.75082"
         x="1.9767762"
         id="tspan1296"
         sodipodi:role="line">Werkkooperative der Technikfreundinnen e.G.   Eine Genossenschaft für chaosnahes Wirtschaften  Weitere Informationen auf vebit.xyz</tspan></text>
    <rect
       ry="0"
       y="198.67805"
       x="118.90754"
       height="16.411709"
       width="24.005482"
       id="rect5327"
       style="fill:#ececec;stroke:#cccccc;stroke-width:0.023249" />
    <g
       transform="matrix(0.31575676,0,0,0.31575676,119.14821,196.51979)"
       id="g4937"
       style="enable-background:new">
      <g
         inkscape:label="Ebene 1"
         id="layer1-6"
         transform="translate(-14.27496,-85.06607)"
         style="filter:url(#filter886)">
        <path
           inkscape:connector-curvature="0"
           id="path854"
           style="font-style:normal;font-variant:normal;font-weight:bold;font-stretch:normal;font-size:10.5833px;line-height:1.25;font-family:Lato;-inkscape-font-specification:'Lato Bold';letter-spacing:0px;word-spacing:0px;fill:#000000;fill-opacity:1;stroke:none;stroke-width:0.868746"
           d="M 66.229623,103.16004 H 54.219161 v 21.28425 H 49.545304 V 103.16004 H 32.383618 l -1.228134,-3.839857 h 35.074139 z"
           sodipodi:nodetypes="ccccccccc" />
        <path
           sodipodi:nodetypes="ccccccccccc"
           inkscape:connector-curvature="0"
           id="path856-8"
           style="font-style:normal;font-variant:normal;font-weight:bold;font-stretch:normal;font-size:10.5833px;line-height:1.25;font-family:Lato;-inkscape-font-specification:'Lato Bold';letter-spacing:0px;word-spacing:0px;fill:#000000;fill-opacity:1;stroke:none;stroke-width:0.64494"
           d="m 62.477647,108.55298 v 5.52067 h 8.745655 v 2.77326 h -8.745655 v 7.59738 h -5.237176 v -18.65164 h 15.272713 v 2.76033 z" />
        <g
           aria-label="eG"
           style="font-style:normal;font-variant:normal;font-weight:normal;font-stretch:normal;font-size:10.7701px;line-height:1.25;font-family:'Tw Cen MT';-inkscape-font-specification:'Tw Cen MT, Normal';font-variant-ligatures:normal;font-variant-caps:normal;font-variant-numeric:normal;text-align:start;letter-spacing:0px;word-spacing:0px;writing-mode:lr-tb;text-anchor:start;fill:#000000;fill-opacity:1;stroke:none;stroke-width:0.269251"
           id="text823"
           transform="translate(0.78736421,-0.26458333)">
          <path
             d="m 69.123749,121.19627 q 0,-0.25848 -0.07539,-0.48465 -0.07001,-0.23156 -0.215401,-0.40388 -0.145396,-0.17232 -0.371567,-0.26925 -0.220786,-0.10232 -0.516963,-0.10232 -0.576198,0 -0.91007,0.32849 -0.328486,0.32849 -0.420032,0.93161 z m -2.536348,0.80237 q 0.03231,0.42542 0.150781,0.73775 0.11847,0.30694 0.312331,0.51158 0.193861,0.19924 0.457728,0.30156 0.269251,0.0969 0.592353,0.0969 0.323102,0 0.554658,-0.0754 0.236941,-0.0754 0.409262,-0.16694 0.177706,-0.0915 0.306946,-0.16693 0.134626,-0.0754 0.258482,-0.0754 0.166936,0 0.247711,0.12385 l 0.382337,0.48465 q -0.220786,0.25849 -0.495423,0.43619 -0.274636,0.17232 -0.576197,0.28002 -0.296177,0.10232 -0.608509,0.1454 -0.306946,0.0431 -0.597738,0.0431 -0.576198,0 -1.07162,-0.18848 -0.495423,-0.19386 -0.861605,-0.56543 -0.366182,-0.37695 -0.576198,-0.92622 -0.210016,-0.55466 -0.210016,-1.28164 0,-0.56542 0.183091,-1.06085 0.183091,-0.5008 0.522348,-0.86699 0.344642,-0.37156 0.834679,-0.58696 0.495423,-0.21541 1.114701,-0.21541 0.522348,0 0.96392,0.16694 0.441572,0.16694 0.759289,0.49004 0.317716,0.31771 0.495422,0.78621 0.183091,0.46311 0.183091,1.06085 0,0.30156 -0.06462,0.40926 -0.06462,0.10232 -0.247711,0.10232 z"
             style="font-style:normal;font-variant:normal;font-weight:bold;font-stretch:normal;font-family:Lato;-inkscape-font-specification:'Lato Bold';stroke-width:0.269251"
             id="path833"
             inkscape:connector-curvature="0" />
          <path
             d="m 77.928242,120.69008 v 3.15024 q -0.592353,0.43619 -1.265482,0.64082 -0.667743,0.19924 -1.432417,0.19924 -0.95315,0 -1.728594,-0.29617 -0.770059,-0.29618 -1.319332,-0.82391 -0.543888,-0.52774 -0.840064,-1.2601 -0.296177,-0.73236 -0.296177,-1.59935 0,-0.87776 0.285407,-1.61013 0.285406,-0.73236 0.807754,-1.26009 0.527733,-0.52773 1.276252,-0.81853 0.748518,-0.29079 1.680128,-0.29079 0.473883,0 0.883145,0.0754 0.414647,0.0754 0.764674,0.21002 0.355412,0.12924 0.646203,0.31772 0.290792,0.18847 0.533118,0.41464 l -0.414647,0.65698 q -0.09693,0.15616 -0.253097,0.19386 -0.156165,0.0323 -0.339256,-0.0808 -0.177706,-0.10231 -0.355412,-0.20463 -0.177706,-0.10232 -0.398492,-0.17771 -0.215401,-0.0754 -0.490038,-0.12385 -0.269251,-0.0485 -0.624663,-0.0485 -0.576198,0 -1.044695,0.19386 -0.463113,0.19387 -0.7916,0.55466 -0.328486,0.3608 -0.506192,0.86699 -0.177706,0.50619 -0.177706,1.13086 0,0.66774 0.188476,1.19547 0.193861,0.52235 0.538503,0.88853 0.350027,0.3608 0.840064,0.55466 0.490038,0.18848 1.093161,0.18848 0.430802,0 0.770059,-0.0915 0.339256,-0.0915 0.662358,-0.24771 v -1.41088 h -0.980075 q -0.140011,0 -0.220786,-0.0754 -0.07539,-0.0808 -0.07539,-0.19386 v -0.81852 z"
             style="font-style:normal;font-variant:normal;font-weight:bold;font-stretch:normal;font-family:Lato;-inkscape-font-specification:'Lato Bold';stroke-width:0.269251"
             id="path835"
             inkscape:connector-curvature="0" />
        </g>
        <path
           style="opacity:1;vector-effect:none;fill:#666666;fill-opacity:1;stroke:none;stroke-width:0.796077;stroke-linecap:round;stroke-linejoin:miter;stroke-miterlimit:4;stroke-dasharray:none;stroke-dashoffset:0;stroke-opacity:1;paint-order:stroke markers fill"
           d="m 28.371907,128.11521 h 50.3291 v 5.12737 H 29.963054 Z"
           id="rect848"
           inkscape:connector-curvature="0"
           sodipodi:nodetypes="ccccc" />
        <g
           aria-label="Werkkooperative der"
           style="font-style:normal;font-variant:normal;font-weight:normal;font-stretch:normal;font-size:4.27259px;line-height:1.25;font-family:'Tw Cen MT';-inkscape-font-specification:'Tw Cen MT, Normal';font-variant-ligatures:normal;font-variant-caps:normal;font-variant-numeric:normal;text-align:start;letter-spacing:0px;word-spacing:0px;writing-mode:lr-tb;text-anchor:start;fill:#f9f9f9;fill-opacity:1;stroke:none;stroke-width:0.106815"
           id="text827"
           transform="matrix(0.97106793,0,0,0.97106793,2.8506598,3.5730907)">
          <path
             d="m 35.114077,129.15811 -0.959196,3.08908 h -0.51912 l -0.67507,-2.11066 q -0.02777,-0.0769 -0.05127,-0.18799 -0.01282,0.0534 -0.02563,0.1004 -0.01282,0.047 -0.02777,0.0876 l -0.681479,2.11066 h -0.521256 l -0.95706,-3.08908 h 0.480666 q 0.07477,0 0.123905,0.0363 0.05127,0.0342 0.06836,0.094 l 0.525529,1.8479 q 0.01709,0.0684 0.03204,0.14954 0.01709,0.079 0.03418,0.16663 0.01709,-0.0897 0.03632,-0.16877 0.02136,-0.079 0.04486,-0.1474 l 0.606708,-1.8479 q 0.01709,-0.0491 0.06623,-0.0897 0.05127,-0.0406 0.123905,-0.0406 h 0.168768 q 0.07477,0 0.121769,0.0363 0.047,0.0363 0.0705,0.094 l 0.604572,1.8479 q 0.04486,0.13245 0.08118,0.30549 0.02777,-0.16877 0.06195,-0.30549 l 0.525529,-1.8479 q 0.01282,-0.0534 0.06409,-0.0919 0.05341,-0.0385 0.126041,-0.0385 z"
             style="font-style:normal;font-variant:normal;font-weight:bold;font-stretch:normal;font-family:Lato;-inkscape-font-specification:'Lato Bold';fill:#f9f9f9;stroke-width:0.106815"
             id="path838"
             inkscape:connector-curvature="0" />
          <path
             d="m 36.562477,130.89919 q 0,-0.10254 -0.02991,-0.19227 -0.02777,-0.0919 -0.08545,-0.16022 -0.05768,-0.0684 -0.147405,-0.10681 -0.08759,-0.0406 -0.205084,-0.0406 -0.228584,0 -0.361034,0.13031 -0.130314,0.13031 -0.166631,0.36958 z m -1.006196,0.31831 q 0.01282,0.16877 0.05982,0.29267 0.047,0.12177 0.123905,0.20295 0.07691,0.079 0.181585,0.11963 0.106815,0.0384 0.234993,0.0384 0.128177,0 0.220038,-0.0299 0.094,-0.0299 0.162359,-0.0662 0.0705,-0.0363 0.121768,-0.0662 0.05341,-0.0299 0.102543,-0.0299 0.06623,0 0.09827,0.0491 l 0.151677,0.19227 q -0.08759,0.10254 -0.196539,0.17304 -0.108951,0.0684 -0.228584,0.11109 -0.117496,0.0406 -0.241401,0.0577 -0.121769,0.0171 -0.237129,0.0171 -0.228584,0 -0.425123,-0.0748 -0.196539,-0.0769 -0.341807,-0.22431 -0.145268,-0.14955 -0.228584,-0.36745 -0.08332,-0.22004 -0.08332,-0.50844 0,-0.22431 0.07263,-0.42085 0.07263,-0.19867 0.20722,-0.34394 0.136723,-0.1474 0.331126,-0.23286 0.196539,-0.0854 0.442214,-0.0854 0.20722,0 0.382396,0.0662 0.175177,0.0662 0.301218,0.1944 0.126042,0.12604 0.196539,0.3119 0.07263,0.18372 0.07263,0.42085 0,0.11963 -0.02564,0.16236 -0.02564,0.0406 -0.09827,0.0406 z"
             style="font-style:normal;font-variant:normal;font-weight:bold;font-stretch:normal;font-family:Lato;-inkscape-font-specification:'Lato Bold';fill:#f9f9f9;stroke-width:0.106815"
             id="path840-0"
             inkscape:connector-curvature="0" />
          <path
             d="m 37.9297,130.43561 q 0.102542,-0.19654 0.243537,-0.30762 0.140996,-0.11323 0.333263,-0.11323 0.151677,0 0.243537,0.0662 l -0.03418,0.39521 q -0.01068,0.0385 -0.03204,0.0555 -0.01923,0.0149 -0.05341,0.0149 -0.03205,0 -0.09613,-0.0107 -0.06195,-0.0107 -0.121768,-0.0107 -0.08759,0 -0.15595,0.0256 -0.06836,0.0256 -0.123905,0.0748 -0.05341,0.047 -0.09613,0.11536 -0.04059,0.0684 -0.07691,0.15595 v 1.35014 h -0.527665 v -2.19184 h 0.309763 q 0.08118,0 0.113223,0.0299 0.03205,0.0278 0.04273,0.10254 z"
             style="font-style:normal;font-variant:normal;font-weight:bold;font-stretch:normal;font-family:Lato;-inkscape-font-specification:'Lato Bold';fill:#f9f9f9;stroke-width:0.106815"
             id="path842"
             inkscape:connector-curvature="0" />
          <path
             d="m 39.553281,129.07266 v 1.81798 h 0.09827 q 0.05341,0 0.08331,-0.0128 0.03205,-0.015 0.06409,-0.0577 l 0.544756,-0.67294 q 0.03418,-0.0449 0.07477,-0.0684 0.04273,-0.0235 0.108951,-0.0235 h 0.482803 l -0.681479,0.81393 q -0.07263,0.0961 -0.158085,0.14741 0.04486,0.032 0.07904,0.0748 0.03632,0.0427 0.06836,0.0919 l 0.730613,1.06387 h -0.476394 q -0.06195,0 -0.106815,-0.0192 -0.04486,-0.0214 -0.07477,-0.0748 L 39.831,131.32218 q -0.02991,-0.0491 -0.06195,-0.0641 -0.03204,-0.015 -0.09613,-0.015 h -0.119633 v 1.00406 h -0.527665 v -3.17453 z"
             style="font-style:normal;font-variant:normal;font-weight:bold;font-stretch:normal;font-family:Lato;-inkscape-font-specification:'Lato Bold';fill:#f9f9f9;stroke-width:0.106815"
             id="path844-2"
             inkscape:connector-curvature="0" />
          <path
             d="m 41.836973,129.07266 v 1.81798 h 0.09827 q 0.05341,0 0.08332,-0.0128 0.03204,-0.015 0.06409,-0.0577 l 0.544756,-0.67294 q 0.03418,-0.0449 0.07477,-0.0684 0.04273,-0.0235 0.108951,-0.0235 h 0.482803 l -0.681478,0.81393 q -0.07263,0.0961 -0.158086,0.14741 0.04486,0.032 0.07904,0.0748 0.03632,0.0427 0.06836,0.0919 l 0.730614,1.06387 h -0.476394 q -0.06195,0 -0.106815,-0.0192 -0.04486,-0.0214 -0.07477,-0.0748 l -0.559709,-0.83102 q -0.02991,-0.0491 -0.06195,-0.0641 -0.03204,-0.015 -0.09613,-0.015 h -0.119633 v 1.00406 h -0.527665 v -3.17453 z"
             style="font-style:normal;font-variant:normal;font-weight:bold;font-stretch:normal;font-family:Lato;-inkscape-font-specification:'Lato Bold';fill:#f9f9f9;stroke-width:0.106815"
             id="path846"
             inkscape:connector-curvature="0" />
          <path
             d="m 44.451787,130.02117 q 0.243538,0 0.442214,0.079 0.200811,0.079 0.341807,0.22431 0.143132,0.14526 0.220038,0.35462 0.07691,0.20936 0.07691,0.46785 0,0.26063 -0.07691,0.46999 -0.07691,0.20935 -0.220038,0.35676 -0.140996,0.1474 -0.341807,0.22644 -0.198676,0.079 -0.442214,0.079 -0.245674,0 -0.446485,-0.079 -0.200812,-0.079 -0.343944,-0.22644 -0.140996,-0.14741 -0.220038,-0.35676 -0.07691,-0.20936 -0.07691,-0.46999 0,-0.25849 0.07691,-0.46785 0.07904,-0.20936 0.220038,-0.35462 0.143132,-0.14527 0.343944,-0.22431 0.200811,-0.079 0.446485,-0.079 z m 0,1.85217 q 0.273446,0 0.40376,-0.18372 0.132451,-0.18372 0.132451,-0.53835 0,-0.35462 -0.132451,-0.54048 -0.130314,-0.18586 -0.40376,-0.18586 -0.277718,0 -0.412305,0.188 -0.13245,0.18585 -0.13245,0.53834 0,0.35249 0.13245,0.53835 0.134587,0.18372 0.412305,0.18372 z"
             style="font-style:normal;font-variant:normal;font-weight:bold;font-stretch:normal;font-family:Lato;-inkscape-font-specification:'Lato Bold';fill:#f9f9f9;stroke-width:0.106815"
             id="path848-1"
             inkscape:connector-curvature="0" />
          <path
             d="m 46.906388,130.02117 q 0.243537,0 0.442213,0.079 0.200812,0.079 0.341807,0.22431 0.143132,0.14526 0.220039,0.35462 0.07691,0.20936 0.07691,0.46785 0,0.26063 -0.07691,0.46999 -0.07691,0.20935 -0.220039,0.35676 -0.140995,0.1474 -0.341807,0.22644 -0.198676,0.079 -0.442213,0.079 -0.245674,0 -0.446486,-0.079 -0.200812,-0.079 -0.343944,-0.22644 -0.140995,-0.14741 -0.220038,-0.35676 -0.07691,-0.20936 -0.07691,-0.46999 0,-0.25849 0.07691,-0.46785 0.07904,-0.20936 0.220038,-0.35462 0.143132,-0.14527 0.343944,-0.22431 0.200812,-0.079 0.446486,-0.079 z m 0,1.85217 q 0.273446,0 0.40376,-0.18372 0.13245,-0.18372 0.13245,-0.53835 0,-0.35462 -0.13245,-0.54048 -0.130314,-0.18586 -0.40376,-0.18586 -0.277719,0 -0.412305,0.188 -0.132451,0.18585 -0.132451,0.53834 0,0.35249 0.132451,0.53835 0.134586,0.18372 0.412305,0.18372 z"
             style="font-style:normal;font-variant:normal;font-weight:bold;font-stretch:normal;font-family:Lato;-inkscape-font-specification:'Lato Bold';fill:#f9f9f9;stroke-width:0.106815"
             id="path850"
             inkscape:connector-curvature="0" />
          <path
             d="m 48.918775,131.67894 q 0.08972,0.10895 0.194403,0.15381 0.106815,0.0449 0.23072,0.0449 0.119632,0 0.215766,-0.0449 0.09613,-0.0449 0.162358,-0.13672 0.06836,-0.0919 0.104679,-0.23072 0.03632,-0.141 0.03632,-0.33113 0,-0.19226 -0.03204,-0.32471 -0.02991,-0.13459 -0.08759,-0.21791 -0.05768,-0.0833 -0.140995,-0.12177 -0.08118,-0.0384 -0.185858,-0.0384 -0.164495,0 -0.279855,0.0705 -0.11536,0.0684 -0.217902,0.1944 z m -0.02777,-1.32451 q 0.134587,-0.15167 0.30549,-0.24567 0.170904,-0.094 0.401624,-0.094 0.179449,0 0.326853,0.0748 0.149541,0.0748 0.256356,0.21791 0.108951,0.14099 0.166631,0.35035 0.05982,0.20722 0.05982,0.47639 0,0.24568 -0.06622,0.45503 -0.06623,0.20936 -0.19013,0.36317 -0.121769,0.15382 -0.296946,0.2414 -0.17304,0.0855 -0.388805,0.0855 -0.183722,0 -0.314036,-0.0555 -0.130314,-0.0577 -0.232856,-0.15808 v 0.89724 H 48.39111 v -2.9075 h 0.32258 q 0.102543,0 0.134587,0.0961 z"
             style="font-style:normal;font-variant:normal;font-weight:bold;font-stretch:normal;font-family:Lato;-inkscape-font-specification:'Lato Bold';fill:#f9f9f9;stroke-width:0.106815"
             id="path853"
             inkscape:connector-curvature="0" />
          <path
             d="m 52.230028,130.89919 q 0,-0.10254 -0.02991,-0.19227 -0.02777,-0.0919 -0.08545,-0.16022 -0.05768,-0.0684 -0.147405,-0.10681 -0.08759,-0.0406 -0.205084,-0.0406 -0.228584,0 -0.361034,0.13031 -0.130314,0.13031 -0.166631,0.36958 z m -1.006196,0.31831 q 0.01282,0.16877 0.05982,0.29267 0.047,0.12177 0.123905,0.20295 0.07691,0.079 0.181585,0.11963 0.106815,0.0384 0.234993,0.0384 0.128177,0 0.220038,-0.0299 0.094,-0.0299 0.162359,-0.0662 0.0705,-0.0363 0.121768,-0.0662 0.05341,-0.0299 0.102543,-0.0299 0.06622,0 0.09827,0.0491 l 0.151677,0.19227 q -0.08759,0.10254 -0.196539,0.17304 -0.108951,0.0684 -0.228584,0.11109 -0.117496,0.0406 -0.241401,0.0577 -0.121769,0.0171 -0.237129,0.0171 -0.228584,0 -0.425123,-0.0748 -0.196539,-0.0769 -0.341807,-0.22431 -0.145268,-0.14955 -0.228584,-0.36745 -0.08331,-0.22004 -0.08331,-0.50844 0,-0.22431 0.07263,-0.42085 0.07263,-0.19867 0.20722,-0.34394 0.136723,-0.1474 0.331126,-0.23286 0.19654,-0.0854 0.442214,-0.0854 0.20722,0 0.382396,0.0662 0.175177,0.0662 0.301218,0.1944 0.126042,0.12604 0.196539,0.3119 0.07263,0.18372 0.07263,0.42085 0,0.11963 -0.02564,0.16236 -0.02564,0.0406 -0.09827,0.0406 z"
             style="font-style:normal;font-variant:normal;font-weight:bold;font-stretch:normal;font-family:Lato;-inkscape-font-specification:'Lato Bold';fill:#f9f9f9;stroke-width:0.106815"
             id="path855"
             inkscape:connector-curvature="0" />
          <path
             d="m 53.597252,130.43561 q 0.102542,-0.19654 0.243538,-0.30762 0.140995,-0.11323 0.333262,-0.11323 0.151677,0 0.243538,0.0662 l -0.03418,0.39521 q -0.01068,0.0385 -0.03204,0.0555 -0.01923,0.0149 -0.05341,0.0149 -0.03204,0 -0.09613,-0.0107 -0.06195,-0.0107 -0.121769,-0.0107 -0.08759,0 -0.15595,0.0256 -0.06836,0.0256 -0.123905,0.0748 -0.05341,0.047 -0.09613,0.11536 -0.04059,0.0684 -0.07691,0.15595 v 1.35014 h -0.527665 v -2.19184 h 0.309763 q 0.08118,0 0.113224,0.0299 0.03204,0.0278 0.04273,0.10254 z"
             style="font-style:normal;font-variant:normal;font-weight:bold;font-stretch:normal;font-family:Lato;-inkscape-font-specification:'Lato Bold';fill:#f9f9f9;stroke-width:0.106815"
             id="path857"
             inkscape:connector-curvature="0" />
          <path
             d="m 55.823266,131.31149 q -0.228583,0.0107 -0.384533,0.0406 -0.155949,0.0278 -0.249946,0.0726 -0.094,0.0449 -0.134587,0.10468 -0.04059,0.0598 -0.04059,0.13031 0,0.13886 0.08118,0.19868 0.08331,0.0598 0.215766,0.0598 0.162358,0 0.279854,-0.0577 0.119633,-0.0598 0.232856,-0.17945 z m -1.209143,-0.95065 q 0.378124,-0.34608 0.910062,-0.34608 0.192267,0 0.343944,0.0641 0.151677,0.062 0.256355,0.17518 0.104679,0.11109 0.158086,0.26704 0.05554,0.15594 0.05554,0.3418 v 1.38432 h -0.239265 q -0.07477,0 -0.11536,-0.0214 -0.04059,-0.0235 -0.06409,-0.0919 l -0.047,-0.15809 q -0.08332,0.0748 -0.162358,0.13245 -0.07904,0.0556 -0.164495,0.094 -0.08545,0.0385 -0.183721,0.0577 -0.09613,0.0214 -0.21363,0.0214 -0.138859,0 -0.256355,-0.0363 -0.117497,-0.0385 -0.202949,-0.11323 -0.08545,-0.0748 -0.13245,-0.18586 -0.047,-0.11108 -0.047,-0.25849 0,-0.0833 0.02777,-0.16449 0.02777,-0.0833 0.08973,-0.15809 0.06409,-0.0748 0.164495,-0.14099 0.100406,-0.0662 0.245674,-0.11536 0.147404,-0.0491 0.341807,-0.079 0.194403,-0.032 0.444349,-0.0385 v -0.12818 q 0,-0.22004 -0.094,-0.32471 -0.094,-0.10682 -0.271309,-0.10682 -0.128178,0 -0.21363,0.0299 -0.08331,0.0299 -0.147404,0.0684 -0.06409,0.0363 -0.117496,0.0662 -0.05127,0.0299 -0.11536,0.0299 -0.05554,0 -0.094,-0.0278 -0.03845,-0.0299 -0.06195,-0.0684 z"
             style="font-style:normal;font-variant:normal;font-weight:bold;font-stretch:normal;font-family:Lato;-inkscape-font-specification:'Lato Bold';fill:#f9f9f9;stroke-width:0.106815"
             id="path859"
             inkscape:connector-curvature="0" />
          <path
             d="m 59.014884,132.24719 h -0.527665 v -1.79662 h -1.016877 v 1.18778 q 0,0.10254 0.04913,0.16022 0.05127,0.0577 0.138859,0.0577 0.04913,0 0.08118,-0.0107 0.03418,-0.0128 0.05768,-0.0256 0.02564,-0.0128 0.04486,-0.0235 0.01923,-0.0128 0.03845,-0.0128 0.0235,0 0.03845,0.0128 0.01496,0.0107 0.03204,0.0342 l 0.158086,0.25636 q -0.11536,0.0961 -0.264901,0.14527 -0.149541,0.0491 -0.309763,0.0491 -0.286263,0 -0.440077,-0.16022 -0.151677,-0.16236 -0.151677,-0.44648 v -1.2241 h -0.224311 q -0.04273,0 -0.07263,-0.0278 -0.02991,-0.0278 -0.02991,-0.0833 v -0.20936 l 0.352489,-0.0598 0.111087,-0.59603 q 0.01068,-0.0427 0.04059,-0.0662 0.02991,-0.0235 0.07691,-0.0235 h 0.273445 v 0.69002 h 1.544542 z m 0.09186,-2.83913 q 0,0.0684 -0.02777,0.13031 -0.02777,0.0598 -0.07477,0.10468 -0.04486,0.0449 -0.108951,0.0726 -0.06195,0.0256 -0.132451,0.0256 -0.06836,0 -0.128177,-0.0256 -0.05982,-0.0278 -0.104679,-0.0726 -0.04486,-0.0449 -0.07263,-0.10468 -0.02564,-0.0619 -0.02564,-0.13031 0,-0.0705 0.02564,-0.13032 0.02777,-0.0619 0.07263,-0.10681 0.04486,-0.047 0.104679,-0.0726 0.05982,-0.0278 0.128177,-0.0278 0.0705,0 0.132451,0.0278 0.06409,0.0256 0.108951,0.0726 0.047,0.0449 0.07477,0.10681 0.02777,0.0598 0.02777,0.13032 z"
             style="font-style:normal;font-variant:normal;font-weight:bold;font-stretch:normal;font-family:Lato;-inkscape-font-specification:'Lato Bold';fill:#f9f9f9;stroke-width:0.106815"
             id="path861"
             inkscape:connector-curvature="0" />
          <path
             d="m 61.5293,130.05535 -0.869472,2.19184 h -0.47853 l -0.869473,-2.19184 h 0.435805 q 0.05982,0 0.09827,0.0278 0.04059,0.0278 0.05341,0.0705 l 0.422986,1.17069 q 0.03418,0.10254 0.05982,0.20081 0.02564,0.0983 0.04486,0.19654 0.02136,-0.0983 0.047,-0.19654 0.02564,-0.0983 0.06195,-0.20081 l 0.431532,-1.17069 q 0.01495,-0.0427 0.05341,-0.0705 0.03845,-0.0278 0.09186,-0.0278 z"
             style="font-style:normal;font-variant:normal;font-weight:bold;font-stretch:normal;font-family:Lato;-inkscape-font-specification:'Lato Bold';fill:#f9f9f9;stroke-width:0.106815"
             id="path863"
             inkscape:connector-curvature="0" />
          <path
             d="m 63.152883,130.89919 q 0,-0.10254 -0.02991,-0.19227 -0.02777,-0.0919 -0.08545,-0.16022 -0.05768,-0.0684 -0.147404,-0.10681 -0.08759,-0.0406 -0.205085,-0.0406 -0.228583,0 -0.361034,0.13031 -0.130314,0.13031 -0.166631,0.36958 z m -1.006195,0.31831 q 0.01282,0.16877 0.05982,0.29267 0.047,0.12177 0.123905,0.20295 0.07691,0.079 0.181585,0.11963 0.106815,0.0384 0.234993,0.0384 0.128178,0 0.220038,-0.0299 0.094,-0.0299 0.162359,-0.0662 0.0705,-0.0363 0.121769,-0.0662 0.05341,-0.0299 0.102542,-0.0299 0.06622,0 0.09827,0.0491 l 0.151677,0.19227 q -0.08759,0.10254 -0.19654,0.17304 -0.108951,0.0684 -0.228583,0.11109 -0.117497,0.0406 -0.241402,0.0577 -0.121769,0.0171 -0.237129,0.0171 -0.228583,0 -0.425122,-0.0748 -0.19654,-0.0769 -0.341808,-0.22431 -0.145268,-0.14955 -0.228583,-0.36745 -0.08332,-0.22004 -0.08332,-0.50844 0,-0.22431 0.07263,-0.42085 0.07263,-0.19867 0.207221,-0.34394 0.136723,-0.1474 0.331126,-0.23286 0.196539,-0.0854 0.442213,-0.0854 0.207221,0 0.382397,0.0662 0.175176,0.0662 0.301218,0.1944 0.126041,0.12604 0.196539,0.3119 0.07263,0.18372 0.07263,0.42085 0,0.11963 -0.02564,0.16236 -0.02564,0.0406 -0.09827,0.0406 z"
             style="font-style:normal;font-variant:normal;font-weight:bold;font-stretch:normal;font-family:Lato;-inkscape-font-specification:'Lato Bold';fill:#f9f9f9;stroke-width:0.106815"
             id="path865"
             inkscape:connector-curvature="0" />
          <path
             d="m 66.436356,130.61506 q -0.08972,-0.10895 -0.196539,-0.15381 -0.104679,-0.0449 -0.226448,-0.0449 -0.119632,0 -0.215765,0.0449 -0.09613,0.0449 -0.164495,0.13672 -0.06836,0.0897 -0.104679,0.23072 -0.03632,0.13886 -0.03632,0.32899 0,0.19227 0.02991,0.32685 0.03205,0.13246 0.08973,0.21791 0.05768,0.0833 0.140995,0.12177 0.08332,0.0363 0.185858,0.0363 0.164495,0 0.279855,-0.0684 0.11536,-0.0684 0.217902,-0.1944 z m 0.527665,-1.5424 v 3.17453 H 66.64144 q -0.104678,0 -0.13245,-0.0961 l -0.04486,-0.21149 q -0.13245,0.15167 -0.30549,0.24567 -0.170904,0.094 -0.399488,0.094 -0.179449,0 -0.328989,-0.0748 -0.149541,-0.0748 -0.258492,-0.21577 -0.106815,-0.14313 -0.166631,-0.35249 -0.05768,-0.20936 -0.05768,-0.47853 0,-0.24354 0.06623,-0.45289 0.06623,-0.20936 0.19013,-0.36317 0.123906,-0.15382 0.296945,-0.23927 0.17304,-0.0876 0.388806,-0.0876 0.183722,0 0.314036,0.0577 0.130314,0.0577 0.232856,0.15595 v -1.15573 z"
             style="font-style:normal;font-variant:normal;font-weight:bold;font-stretch:normal;font-family:Lato;-inkscape-font-specification:'Lato Bold';fill:#f9f9f9;stroke-width:0.106815"
             id="path867"
             inkscape:connector-curvature="0" />
          <path
             d="m 68.897363,130.89919 q 0,-0.10254 -0.02991,-0.19227 -0.02777,-0.0919 -0.08545,-0.16022 -0.05768,-0.0684 -0.147404,-0.10681 -0.08759,-0.0406 -0.205084,-0.0406 -0.228584,0 -0.361034,0.13031 -0.130314,0.13031 -0.166632,0.36958 z m -1.006195,0.31831 q 0.01282,0.16877 0.05982,0.29267 0.047,0.12177 0.123905,0.20295 0.07691,0.079 0.181586,0.11963 0.106814,0.0384 0.234992,0.0384 0.128178,0 0.220039,-0.0299 0.094,-0.0299 0.162358,-0.0662 0.0705,-0.0363 0.121769,-0.0662 0.05341,-0.0299 0.102542,-0.0299 0.06623,0 0.09827,0.0491 l 0.151677,0.19227 q -0.08759,0.10254 -0.196539,0.17304 -0.108952,0.0684 -0.228584,0.11109 -0.117496,0.0406 -0.241402,0.0577 -0.121768,0.0171 -0.237128,0.0171 -0.228584,0 -0.425123,-0.0748 -0.196539,-0.0769 -0.341808,-0.22431 -0.145268,-0.14955 -0.228583,-0.36745 -0.08332,-0.22004 -0.08332,-0.50844 0,-0.22431 0.07263,-0.42085 0.07263,-0.19867 0.207221,-0.34394 0.136723,-0.1474 0.331126,-0.23286 0.196539,-0.0854 0.442213,-0.0854 0.207221,0 0.382397,0.0662 0.175176,0.0662 0.301218,0.1944 0.126041,0.12604 0.196539,0.3119 0.07263,0.18372 0.07263,0.42085 0,0.11963 -0.02564,0.16236 -0.02563,0.0406 -0.09827,0.0406 z"
             style="font-style:normal;font-variant:normal;font-weight:bold;font-stretch:normal;font-family:Lato;-inkscape-font-specification:'Lato Bold';fill:#f9f9f9;stroke-width:0.106815"
             id="path869"
             inkscape:connector-curvature="0" />
          <path
             d="m 70.264588,130.43561 q 0.102542,-0.19654 0.243537,-0.30762 0.140996,-0.11323 0.333263,-0.11323 0.151677,0 0.243537,0.0662 l -0.03418,0.39521 q -0.01068,0.0385 -0.03205,0.0555 -0.01923,0.0149 -0.05341,0.0149 -0.03204,0 -0.09613,-0.0107 -0.06195,-0.0107 -0.121768,-0.0107 -0.08759,0 -0.15595,0.0256 -0.06836,0.0256 -0.123905,0.0748 -0.05341,0.047 -0.09613,0.11536 -0.04059,0.0684 -0.07691,0.15595 v 1.35014 h -0.527665 v -2.19184 h 0.309763 q 0.08118,0 0.113223,0.0299 0.03204,0.0278 0.04273,0.10254 z"
             style="font-style:normal;font-variant:normal;font-weight:bold;font-stretch:normal;font-family:Lato;-inkscape-font-specification:'Lato Bold';fill:#f9f9f9;stroke-width:0.106815"
             id="path871"
             inkscape:connector-curvature="0" />
        </g>
        <g
           aria-label="Technikfreundinnen e.G."
           style="font-style:normal;font-variant:normal;font-weight:normal;font-stretch:normal;font-size:4.27259px;line-height:1.25;font-family:'Tw Cen MT';-inkscape-font-specification:'Tw Cen MT, Normal';font-variant-ligatures:normal;font-variant-caps:normal;font-variant-numeric:normal;text-align:start;letter-spacing:0px;word-spacing:0px;writing-mode:lr-tb;text-anchor:start;fill:#000000;fill-opacity:1;stroke:none;stroke-width:0.106815"
           id="text831"
           transform="matrix(0.97106793,0,0,0.97106793,0.29743918,3.8591638)">
          <path
             d="m 36.757469,134.59129 h -0.931425 v 2.61696 h -0.574663 v -2.61696 h -0.931425 v -0.47212 h 2.437513 z"
             style="font-style:normal;font-variant:normal;font-weight:bold;font-stretch:normal;font-family:Lato;-inkscape-font-specification:'Lato Bold';fill:#000000;stroke-width:0.106815"
             id="path874-0"
             inkscape:connector-curvature="0" />
          <path
             d="m 37.977285,135.86025 q 0,-0.10254 -0.02991,-0.19227 -0.02777,-0.0919 -0.08545,-0.16022 -0.05768,-0.0684 -0.147404,-0.10681 -0.08759,-0.0406 -0.205085,-0.0406 -0.228583,0 -0.361033,0.13031 -0.130315,0.13031 -0.166632,0.36958 z m -1.006195,0.31831 q 0.01282,0.16876 0.05982,0.29267 0.047,0.12177 0.123905,0.20295 0.07691,0.079 0.181586,0.11963 0.106814,0.0384 0.234992,0.0384 0.128178,0 0.220039,-0.0299 0.094,-0.0299 0.162358,-0.0662 0.0705,-0.0363 0.121769,-0.0662 0.05341,-0.0299 0.102542,-0.0299 0.06622,0 0.09827,0.0491 l 0.151677,0.19227 q -0.08759,0.10254 -0.19654,0.17304 -0.108951,0.0684 -0.228583,0.11109 -0.117496,0.0406 -0.241402,0.0577 -0.121768,0.0171 -0.237128,0.0171 -0.228584,0 -0.425123,-0.0748 -0.19654,-0.0769 -0.341808,-0.22432 -0.145268,-0.14954 -0.228583,-0.36744 -0.08332,-0.22004 -0.08332,-0.50844 0,-0.22431 0.07263,-0.42085 0.07263,-0.19867 0.207221,-0.34394 0.136723,-0.1474 0.331126,-0.23286 0.196539,-0.0855 0.442213,-0.0855 0.207221,0 0.382397,0.0662 0.175176,0.0662 0.301218,0.1944 0.126041,0.12604 0.196539,0.3119 0.07263,0.18372 0.07263,0.42085 0,0.11963 -0.02564,0.16236 -0.02564,0.0406 -0.09827,0.0406 z"
             style="font-style:normal;font-variant:normal;font-weight:bold;font-stretch:normal;font-family:Lato;-inkscape-font-specification:'Lato Bold';fill:#000000;stroke-width:0.106815"
             id="path876"
             inkscape:connector-curvature="0" />
          <path
             d="m 40.416929,135.47999 q -0.0235,0.0299 -0.047,0.047 -0.02136,0.0171 -0.06409,0.0171 -0.04059,0 -0.07904,-0.0235 -0.03845,-0.0256 -0.09186,-0.0555 -0.05341,-0.032 -0.128178,-0.0555 -0.07263,-0.0256 -0.181585,-0.0256 -0.138859,0 -0.243538,0.0513 -0.104678,0.0491 -0.175176,0.14313 -0.06836,0.094 -0.102542,0.22858 -0.03418,0.13245 -0.03418,0.30122 0,0.17518 0.03632,0.3119 0.03845,0.13672 0.108951,0.23072 0.0705,0.0919 0.170904,0.14099 0.100406,0.047 0.226447,0.047 0.126042,0 0.202948,-0.0299 0.07904,-0.032 0.132451,-0.0684 0.05341,-0.0384 0.09186,-0.0684 0.04059,-0.032 0.08973,-0.032 0.06409,0 0.09613,0.0491 l 0.151677,0.19227 q -0.08759,0.10254 -0.19013,0.17304 -0.102542,0.0684 -0.21363,0.11109 -0.108951,0.0406 -0.226447,0.0577 -0.11536,0.0171 -0.23072,0.0171 -0.202948,0 -0.382397,-0.0748 -0.179449,-0.0769 -0.314035,-0.22218 -0.134587,-0.14527 -0.21363,-0.35462 -0.07691,-0.2115 -0.07691,-0.48067 0,-0.2414 0.06836,-0.44649 0.0705,-0.20722 0.205084,-0.35676 0.134587,-0.15167 0.333262,-0.23713 0.198676,-0.0855 0.457168,-0.0855 0.245674,0 0.429395,0.079 0.185858,0.079 0.333262,0.22645 z"
             style="font-style:normal;font-variant:normal;font-weight:bold;font-stretch:normal;font-family:Lato;-inkscape-font-specification:'Lato Bold';fill:#000000;stroke-width:0.106815"
             id="path878"
             inkscape:connector-curvature="0" />
          <path
             d="m 41.433799,135.25141 q 0.128178,-0.11964 0.281991,-0.19441 0.153813,-0.0748 0.361034,-0.0748 0.179449,0 0.318308,0.062 0.138859,0.0598 0.23072,0.17091 0.094,0.10895 0.140996,0.26276 0.04913,0.15168 0.04913,0.3354 v 1.395 h -0.527665 v -1.395 q 0,-0.20081 -0.09186,-0.30976 -0.09186,-0.11109 -0.279855,-0.11109 -0.136723,0 -0.256356,0.0619 -0.119632,0.062 -0.226447,0.16877 v 1.58513 H 40.90613 v -3.17453 h 0.527665 z"
             style="font-style:normal;font-variant:normal;font-weight:bold;font-stretch:normal;font-family:Lato;-inkscape-font-specification:'Lato Bold';fill:#000000;stroke-width:0.106815"
             id="path880"
             inkscape:connector-curvature="0" />
          <path
             d="m 43.809356,135.28559 q 0.06622,-0.0662 0.138859,-0.12177 0.07477,-0.0577 0.15595,-0.0961 0.08331,-0.0406 0.177312,-0.0619 0.094,-0.0235 0.205085,-0.0235 0.179449,0 0.318308,0.062 0.138859,0.0598 0.23072,0.17091 0.094,0.10895 0.140995,0.26276 0.04913,0.15168 0.04913,0.3354 v 1.395 H 44.69805 v -1.395 q 0,-0.20081 -0.09186,-0.30976 -0.09186,-0.11109 -0.279855,-0.11109 -0.136722,0 -0.256355,0.0619 -0.119633,0.062 -0.226447,0.16877 v 1.58513 h -0.527665 v -2.19184 h 0.32258 q 0.102542,0 0.134587,0.0961 z"
             style="font-style:normal;font-variant:normal;font-weight:bold;font-stretch:normal;font-family:Lato;-inkscape-font-specification:'Lato Bold';fill:#000000;stroke-width:0.106815"
             id="path882"
             inkscape:connector-curvature="0" />
          <path
             d="m 46.272502,135.01641 v 2.19184 H 45.7427 v -2.19184 z m 0.07263,-0.63875 q 0,0.0684 -0.02777,0.12818 -0.02777,0.0598 -0.07477,0.10468 -0.04486,0.0449 -0.106815,0.0726 -0.06195,0.0256 -0.13245,0.0256 -0.06836,0 -0.130314,-0.0256 -0.05982,-0.0278 -0.104679,-0.0726 -0.04486,-0.0449 -0.07263,-0.10468 -0.02564,-0.0598 -0.02564,-0.12818 0,-0.0705 0.02564,-0.13245 0.02777,-0.0619 0.07263,-0.10682 0.04486,-0.0449 0.104679,-0.0705 0.06195,-0.0278 0.130314,-0.0278 0.0705,0 0.13245,0.0278 0.06195,0.0256 0.106815,0.0705 0.047,0.0449 0.07477,0.10682 0.02777,0.062 0.02777,0.13245 z"
             style="font-style:normal;font-variant:normal;font-weight:bold;font-stretch:normal;font-family:Lato;-inkscape-font-specification:'Lato Bold';fill:#000000;stroke-width:0.106815"
             id="path884"
             inkscape:connector-curvature="0" />
          <path
             d="m 47.338512,134.03372 v 1.81798 h 0.09827 q 0.05341,0 0.08332,-0.0128 0.03204,-0.015 0.06409,-0.0577 l 0.544755,-0.67294 q 0.03418,-0.0449 0.07477,-0.0684 0.04272,-0.0235 0.108951,-0.0235 h 0.482802 l -0.681478,0.81393 q -0.07263,0.0961 -0.158086,0.14741 0.04486,0.032 0.07904,0.0748 0.03632,0.0427 0.06836,0.0919 l 0.730613,1.06387 h -0.476394 q -0.06195,0 -0.106815,-0.0192 -0.04486,-0.0214 -0.07477,-0.0748 l -0.55971,-0.83101 q -0.02991,-0.0491 -0.06195,-0.0641 -0.03204,-0.015 -0.09613,-0.015 h -0.119632 v 1.00406 h -0.527665 v -3.17453 z"
             style="font-style:normal;font-variant:normal;font-weight:bold;font-stretch:normal;font-family:Lato;-inkscape-font-specification:'Lato Bold';fill:#000000;stroke-width:0.106815"
             id="path886"
             inkscape:connector-curvature="0" />
          <path
             d="m 49.248353,137.20825 v -1.79449 l -0.19013,-0.0299 q -0.06195,-0.0128 -0.100406,-0.0427 -0.03632,-0.032 -0.03632,-0.0897 v -0.21577 h 0.326853 v -0.16236 q 0,-0.18799 0.05554,-0.33753 0.05768,-0.14954 0.162358,-0.25422 0.106815,-0.10468 0.258492,-0.16023 0.151677,-0.0555 0.341808,-0.0555 0.151677,0 0.281991,0.0406 l -0.01068,0.2649 q -0.0021,0.0299 -0.01709,0.0491 -0.01495,0.0171 -0.04059,0.0278 -0.0235,0.009 -0.05554,0.0128 -0.03204,0.002 -0.06836,0.002 -0.094,0 -0.168767,0.0214 -0.07263,0.0192 -0.123906,0.0705 -0.05127,0.0491 -0.07904,0.13245 -0.02564,0.0812 -0.02564,0.20295 v 0.14527 h 0.570391 v 0.37599 h -0.553301 v 1.79662 z"
             style="font-style:normal;font-variant:normal;font-weight:bold;font-stretch:normal;font-family:Lato;-inkscape-font-specification:'Lato Bold';fill:#000000;stroke-width:0.106815"
             id="path888"
             inkscape:connector-curvature="0" />
          <path
             d="m 51.124018,135.39667 q 0.102542,-0.19654 0.243538,-0.30762 0.140995,-0.11323 0.333262,-0.11323 0.151677,0 0.243538,0.0662 l -0.03418,0.39521 q -0.01068,0.0385 -0.03205,0.0555 -0.01923,0.0149 -0.05341,0.0149 -0.03204,0 -0.09613,-0.0107 -0.06195,-0.0107 -0.121769,-0.0107 -0.08759,0 -0.15595,0.0256 -0.06836,0.0256 -0.123905,0.0748 -0.05341,0.047 -0.09613,0.11536 -0.04059,0.0684 -0.07691,0.15595 v 1.35014 h -0.527665 v -2.19184 h 0.309763 q 0.08118,0 0.113224,0.0299 0.03204,0.0278 0.04273,0.10254 z"
             style="font-style:normal;font-variant:normal;font-weight:bold;font-stretch:normal;font-family:Lato;-inkscape-font-specification:'Lato Bold';fill:#000000;stroke-width:0.106815"
             id="path890"
             inkscape:connector-curvature="0" />
          <path
             d="m 53.570066,135.86025 q 0,-0.10254 -0.02991,-0.19227 -0.02777,-0.0919 -0.08545,-0.16022 -0.05768,-0.0684 -0.147404,-0.10681 -0.08759,-0.0406 -0.205085,-0.0406 -0.228583,0 -0.361034,0.13031 -0.130314,0.13031 -0.166631,0.36958 z m -1.006195,0.31831 q 0.01282,0.16876 0.05982,0.29267 0.047,0.12177 0.123905,0.20295 0.07691,0.079 0.181585,0.11963 0.106815,0.0384 0.234993,0.0384 0.128178,0 0.220038,-0.0299 0.094,-0.0299 0.162359,-0.0662 0.0705,-0.0363 0.121769,-0.0662 0.05341,-0.0299 0.102542,-0.0299 0.06622,0 0.09827,0.0491 l 0.151677,0.19227 q -0.08759,0.10254 -0.19654,0.17304 -0.108951,0.0684 -0.228583,0.11109 -0.117497,0.0406 -0.241402,0.0577 -0.121769,0.0171 -0.237129,0.0171 -0.228583,0 -0.425122,-0.0748 -0.19654,-0.0769 -0.341808,-0.22432 -0.145268,-0.14954 -0.228583,-0.36744 -0.08332,-0.22004 -0.08332,-0.50844 0,-0.22431 0.07263,-0.42085 0.07263,-0.19867 0.207221,-0.34394 0.136723,-0.1474 0.331126,-0.23286 0.196539,-0.0855 0.442213,-0.0855 0.207221,0 0.382397,0.0662 0.175176,0.0662 0.301218,0.1944 0.126041,0.12604 0.196539,0.3119 0.07263,0.18372 0.07263,0.42085 0,0.11963 -0.02564,0.16236 -0.02563,0.0406 -0.09827,0.0406 z"
             style="font-style:normal;font-variant:normal;font-weight:bold;font-stretch:normal;font-family:Lato;-inkscape-font-specification:'Lato Bold';fill:#000000;stroke-width:0.106815"
             id="path892"
             inkscape:connector-curvature="0" />
          <path
             d="m 56.328019,135.01641 v 2.19184 h -0.322581 q -0.104678,0 -0.13245,-0.0961 l -0.03632,-0.17518 q -0.134587,0.13673 -0.296945,0.22218 -0.162359,0.0833 -0.382397,0.0833 -0.179449,0 -0.318308,-0.0598 -0.136723,-0.062 -0.23072,-0.17304 -0.094,-0.11109 -0.143132,-0.26277 -0.047,-0.15381 -0.047,-0.33753 v -1.39287 h 0.527665 v 1.39287 q 0,0.20081 0.09186,0.3119 0.094,0.10895 0.279855,0.10895 0.136723,0 0.256356,-0.0598 0.119632,-0.0619 0.226447,-0.16877 v -1.58513 z"
             style="font-style:normal;font-variant:normal;font-weight:bold;font-stretch:normal;font-family:Lato;-inkscape-font-specification:'Lato Bold';fill:#000000;stroke-width:0.106815"
             id="path894"
             inkscape:connector-curvature="0" />
          <path
             d="m 57.342755,135.28559 q 0.06623,-0.0662 0.138859,-0.12177 0.07477,-0.0577 0.155949,-0.0961 0.08332,-0.0406 0.177313,-0.0619 0.094,-0.0235 0.205084,-0.0235 0.179449,0 0.318308,0.062 0.13886,0.0598 0.23072,0.17091 0.094,0.10895 0.140996,0.26276 0.04913,0.15168 0.04913,0.3354 v 1.395 h -0.527665 v -1.395 q 0,-0.20081 -0.09186,-0.30976 -0.09186,-0.11109 -0.279855,-0.11109 -0.136723,0 -0.256355,0.0619 -0.119633,0.062 -0.226448,0.16877 v 1.58513 H 56.84927 v -2.19184 h 0.322581 q 0.102542,0 0.134587,0.0961 z"
             style="font-style:normal;font-variant:normal;font-weight:bold;font-stretch:normal;font-family:Lato;-inkscape-font-specification:'Lato Bold';fill:#000000;stroke-width:0.106815"
             id="path896"
             inkscape:connector-curvature="0" />
          <path
             d="m 60.634783,135.57612 q -0.08972,-0.10895 -0.196539,-0.15381 -0.104678,-0.0449 -0.226447,-0.0449 -0.119633,0 -0.215766,0.0449 -0.09613,0.0449 -0.164495,0.13672 -0.06836,0.0897 -0.104678,0.23072 -0.03632,0.13886 -0.03632,0.32899 0,0.19227 0.02991,0.32685 0.03204,0.13245 0.08972,0.21791 0.05768,0.0833 0.140996,0.12177 0.08331,0.0363 0.185857,0.0363 0.164495,0 0.279855,-0.0684 0.11536,-0.0684 0.217902,-0.1944 z m 0.527665,-1.5424 v 3.17453 h -0.32258 q -0.104679,0 -0.132451,-0.0961 l -0.04486,-0.21149 q -0.13245,0.15167 -0.30549,0.24567 -0.170904,0.094 -0.399488,0.094 -0.179448,0 -0.328989,-0.0748 -0.149541,-0.0748 -0.258492,-0.21577 -0.106815,-0.14313 -0.166631,-0.35249 -0.05768,-0.20936 -0.05768,-0.47853 0,-0.24354 0.06623,-0.45289 0.06623,-0.20936 0.190131,-0.36317 0.123905,-0.15382 0.296945,-0.23927 0.17304,-0.0876 0.388806,-0.0876 0.183721,0 0.314035,0.0577 0.130314,0.0577 0.232856,0.15595 v -1.15573 z"
             style="font-style:normal;font-variant:normal;font-weight:bold;font-stretch:normal;font-family:Lato;-inkscape-font-specification:'Lato Bold';fill:#000000;stroke-width:0.106815"
             id="path898"
             inkscape:connector-curvature="0" />
          <path
             d="m 62.230593,135.01641 v 2.19184 h -0.529802 v -2.19184 z m 0.07263,-0.63875 q 0,0.0684 -0.02777,0.12818 -0.02777,0.0598 -0.07477,0.10468 -0.04486,0.0449 -0.106814,0.0726 -0.06195,0.0256 -0.132451,0.0256 -0.06836,0 -0.130314,-0.0256 -0.05982,-0.0278 -0.104678,-0.0726 -0.04486,-0.0449 -0.07263,-0.10468 -0.02564,-0.0598 -0.02564,-0.12818 0,-0.0705 0.02564,-0.13245 0.02777,-0.0619 0.07263,-0.10682 0.04486,-0.0449 0.104678,-0.0705 0.06195,-0.0278 0.130314,-0.0278 0.0705,0 0.132451,0.0278 0.06195,0.0256 0.106814,0.0705 0.047,0.0449 0.07477,0.10682 0.02777,0.062 0.02777,0.13245 z"
             style="font-style:normal;font-variant:normal;font-weight:bold;font-stretch:normal;font-family:Lato;-inkscape-font-specification:'Lato Bold';fill:#000000;stroke-width:0.106815"
             id="path900"
             inkscape:connector-curvature="0" />
          <path
             d="m 63.262423,135.28559 q 0.06623,-0.0662 0.138859,-0.12177 0.07477,-0.0577 0.15595,-0.0961 0.08331,-0.0406 0.177312,-0.0619 0.094,-0.0235 0.205085,-0.0235 0.179448,0 0.318308,0.062 0.138859,0.0598 0.23072,0.17091 0.094,0.10895 0.140995,0.26276 0.04914,0.15168 0.04914,0.3354 v 1.395 h -0.527665 v -1.395 q 0,-0.20081 -0.09186,-0.30976 -0.09186,-0.11109 -0.279855,-0.11109 -0.136723,0 -0.256355,0.0619 -0.119633,0.062 -0.226448,0.16877 v 1.58513 h -0.527665 v -2.19184 h 0.322581 q 0.102542,0 0.134587,0.0961 z"
             style="font-style:normal;font-variant:normal;font-weight:bold;font-stretch:normal;font-family:Lato;-inkscape-font-specification:'Lato Bold';fill:#000000;stroke-width:0.106815"
             id="path902"
             inkscape:connector-curvature="0" />
          <path
             d="m 65.672161,135.28559 q 0.06623,-0.0662 0.13886,-0.12177 0.07477,-0.0577 0.155949,-0.0961 0.08332,-0.0406 0.177313,-0.0619 0.094,-0.0235 0.205084,-0.0235 0.179449,0 0.318308,0.062 0.138859,0.0598 0.23072,0.17091 0.094,0.10895 0.140996,0.26276 0.04913,0.15168 0.04913,0.3354 v 1.395 H 66.56086 v -1.395 q 0,-0.20081 -0.09186,-0.30976 -0.09186,-0.11109 -0.279855,-0.11109 -0.136723,0 -0.256356,0.0619 -0.119632,0.062 -0.226447,0.16877 v 1.58513 h -0.527665 v -2.19184 h 0.322581 q 0.102542,0 0.134586,0.0961 z"
             style="font-style:normal;font-variant:normal;font-weight:bold;font-stretch:normal;font-family:Lato;-inkscape-font-specification:'Lato Bold';fill:#000000;stroke-width:0.106815"
             id="path904"
             inkscape:connector-curvature="0" />
          <path
             d="m 69.000505,135.86025 q 0,-0.10254 -0.02991,-0.19227 -0.02777,-0.0919 -0.08545,-0.16022 -0.05768,-0.0684 -0.147404,-0.10681 -0.08759,-0.0406 -0.205085,-0.0406 -0.228583,0 -0.361034,0.13031 -0.130314,0.13031 -0.166631,0.36958 z m -1.006195,0.31831 q 0.01282,0.16876 0.05982,0.29267 0.047,0.12177 0.123905,0.20295 0.07691,0.079 0.181585,0.11963 0.106815,0.0384 0.234993,0.0384 0.128178,0 0.220038,-0.0299 0.094,-0.0299 0.162359,-0.0662 0.0705,-0.0363 0.121769,-0.0662 0.05341,-0.0299 0.102542,-0.0299 0.06623,0 0.09827,0.0491 l 0.151677,0.19227 q -0.08759,0.10254 -0.19654,0.17304 -0.108951,0.0684 -0.228583,0.11109 -0.117497,0.0406 -0.241402,0.0577 -0.121769,0.0171 -0.237129,0.0171 -0.228583,0 -0.425122,-0.0748 -0.19654,-0.0769 -0.341808,-0.22432 -0.145268,-0.14954 -0.228583,-0.36744 -0.08332,-0.22004 -0.08332,-0.50844 0,-0.22431 0.07263,-0.42085 0.07263,-0.19867 0.207221,-0.34394 0.136723,-0.1474 0.331126,-0.23286 0.196539,-0.0855 0.442213,-0.0855 0.207221,0 0.382397,0.0662 0.175176,0.0662 0.301217,0.1944 0.126042,0.12604 0.19654,0.3119 0.07263,0.18372 0.07263,0.42085 0,0.11963 -0.02564,0.16236 -0.02564,0.0406 -0.09827,0.0406 z"
             style="font-style:normal;font-variant:normal;font-weight:bold;font-stretch:normal;font-family:Lato;-inkscape-font-specification:'Lato Bold';fill:#000000;stroke-width:0.106815"
             id="path906"
             inkscape:connector-curvature="0" />
          <path
             d="m 70.363457,135.28559 q 0.06623,-0.0662 0.138859,-0.12177 0.07477,-0.0577 0.15595,-0.0961 0.08331,-0.0406 0.177312,-0.0619 0.094,-0.0235 0.205085,-0.0235 0.179449,0 0.318308,0.062 0.138859,0.0598 0.23072,0.17091 0.094,0.10895 0.140995,0.26276 0.04913,0.15168 0.04913,0.3354 v 1.395 h -0.527665 v -1.395 q 0,-0.20081 -0.09186,-0.30976 -0.09186,-0.11109 -0.279855,-0.11109 -0.136722,0 -0.256355,0.0619 -0.119633,0.062 -0.226447,0.16877 v 1.58513 h -0.527665 v -2.19184 h 0.32258 q 0.102542,0 0.134587,0.0961 z"
             style="font-style:normal;font-variant:normal;font-weight:bold;font-stretch:normal;font-family:Lato;-inkscape-font-specification:'Lato Bold';fill:#000000;stroke-width:0.106815"
             id="path908"
             inkscape:connector-curvature="0" />
          <path
             d="m 74.730032,135.86025 q 0,-0.10254 -0.02991,-0.19227 -0.02777,-0.0919 -0.08545,-0.16022 -0.05768,-0.0684 -0.147405,-0.10681 -0.08759,-0.0406 -0.205084,-0.0406 -0.228584,0 -0.361034,0.13031 -0.130314,0.13031 -0.166631,0.36958 z m -1.006196,0.31831 q 0.01282,0.16876 0.05982,0.29267 0.047,0.12177 0.123905,0.20295 0.07691,0.079 0.181585,0.11963 0.106815,0.0384 0.234992,0.0384 0.128178,0 0.220039,-0.0299 0.094,-0.0299 0.162358,-0.0662 0.0705,-0.0363 0.121769,-0.0662 0.05341,-0.0299 0.102542,-0.0299 0.06623,0 0.09827,0.0491 l 0.151677,0.19227 q -0.08759,0.10254 -0.196539,0.17304 -0.108951,0.0684 -0.228584,0.11109 -0.117496,0.0406 -0.241401,0.0577 -0.121769,0.0171 -0.237129,0.0171 -0.228584,0 -0.425123,-0.0748 -0.196539,-0.0769 -0.341807,-0.22432 -0.145268,-0.14954 -0.228584,-0.36744 -0.08331,-0.22004 -0.08331,-0.50844 0,-0.22431 0.07263,-0.42085 0.07263,-0.19867 0.20722,-0.34394 0.136723,-0.1474 0.331126,-0.23286 0.196539,-0.0855 0.442213,-0.0855 0.207221,0 0.382397,0.0662 0.175177,0.0662 0.301218,0.1944 0.126041,0.12604 0.196539,0.3119 0.07263,0.18372 0.07263,0.42085 0,0.11963 -0.02564,0.16236 -0.02564,0.0406 -0.09827,0.0406 z"
             style="font-style:normal;font-variant:normal;font-weight:bold;font-stretch:normal;font-family:Lato;-inkscape-font-specification:'Lato Bold';fill:#000000;stroke-width:0.106815"
             id="path910"
             inkscape:connector-curvature="0" />
          <path
             d="m 75.522592,136.91772 q 0,-0.0662 0.0235,-0.12605 0.02563,-0.0598 0.06836,-0.10254 0.04273,-0.0427 0.102542,-0.0684 0.05982,-0.0256 0.128178,-0.0256 0.06836,0 0.126042,0.0256 0.05982,0.0256 0.102542,0.0684 0.04486,0.0427 0.0705,0.10254 0.02563,0.0598 0.02563,0.12605 0,0.0684 -0.02563,0.12817 -0.02564,0.0577 -0.0705,0.10041 -0.04273,0.0427 -0.102542,0.0662 -0.05768,0.0256 -0.126042,0.0256 -0.06836,0 -0.128178,-0.0256 -0.05982,-0.0235 -0.102542,-0.0662 -0.04273,-0.0427 -0.06836,-0.10041 -0.0235,-0.0598 -0.0235,-0.12817 z"
             style="font-style:normal;font-variant:normal;font-weight:bold;font-stretch:normal;font-family:Lato;-inkscape-font-specification:'Lato Bold';fill:#000000;stroke-width:0.106815"
             id="path912"
             inkscape:connector-curvature="0" />
          <path
             d="m 79.160699,135.65944 v 1.24973 q -0.234993,0.17304 -0.50203,0.25422 -0.264901,0.079 -0.568255,0.079 -0.378124,0 -0.685751,-0.11749 -0.30549,-0.1175 -0.523392,-0.32686 -0.215766,-0.20935 -0.333262,-0.49989 -0.117496,-0.29054 -0.117496,-0.63448 0,-0.34822 0.113223,-0.63875 0.113224,-0.29054 0.320445,-0.4999 0.209357,-0.20935 0.506302,-0.32471 0.296945,-0.11536 0.666524,-0.11536 0.187994,0 0.350353,0.0299 0.164494,0.0299 0.303354,0.0833 0.140995,0.0513 0.256355,0.12604 0.11536,0.0748 0.211493,0.1645 l -0.164494,0.26063 q -0.03845,0.0619 -0.100406,0.0769 -0.06195,0.0128 -0.134587,-0.032 -0.0705,-0.0406 -0.140996,-0.0812 -0.0705,-0.0406 -0.158085,-0.0705 -0.08545,-0.0299 -0.194403,-0.0491 -0.106815,-0.0192 -0.247811,-0.0192 -0.228583,0 -0.414441,0.0769 -0.183721,0.0769 -0.314036,0.22003 -0.130314,0.14314 -0.200811,0.34395 -0.0705,0.20081 -0.0705,0.44862 0,0.2649 0.07477,0.47426 0.07691,0.20722 0.21363,0.35249 0.138859,0.14313 0.333262,0.22004 0.194403,0.0748 0.433668,0.0748 0.170904,0 0.30549,-0.0363 0.134587,-0.0363 0.262765,-0.0983 V 136.091 h -0.388806 q -0.05554,0 -0.08759,-0.0299 -0.02991,-0.032 -0.02991,-0.0769 v -0.32471 z"
             style="font-style:normal;font-variant:normal;font-weight:bold;font-stretch:normal;font-family:Lato;-inkscape-font-specification:'Lato Bold';fill:#000000;stroke-width:0.106815"
             id="path914"
             inkscape:connector-curvature="0" />
          <path
             d="m 79.555914,136.91772 q 0,-0.0662 0.0235,-0.12605 0.02564,-0.0598 0.06836,-0.10254 0.04273,-0.0427 0.102542,-0.0684 0.05982,-0.0256 0.128177,-0.0256 0.06836,0 0.126042,0.0256 0.05982,0.0256 0.102542,0.0684 0.04486,0.0427 0.0705,0.10254 0.02563,0.0598 0.02563,0.12605 0,0.0684 -0.02563,0.12817 -0.02564,0.0577 -0.0705,0.10041 -0.04273,0.0427 -0.102542,0.0662 -0.05768,0.0256 -0.126042,0.0256 -0.06836,0 -0.128177,-0.0256 -0.05982,-0.0235 -0.102542,-0.0662 -0.04273,-0.0427 -0.06836,-0.10041 -0.0235,-0.0598 -0.0235,-0.12817 z"
             style="font-style:normal;font-variant:normal;font-weight:bold;font-stretch:normal;font-family:Lato;-inkscape-font-specification:'Lato Bold';fill:#000000;stroke-width:0.106815"
             id="path916"
             inkscape:connector-curvature="0" />
        </g>
        <g
           aria-label="W"
           style="font-style:normal;font-weight:normal;font-size:10.5833px;line-height:1.25;font-family:sans-serif;letter-spacing:0px;word-spacing:0px;fill:#000000;fill-opacity:1;stroke:none;stroke-width:0.264583"
           id="text879"
           transform="matrix(2.4375647,0,0,2.4375647,-40.707424,-149.50934)">
          <path
             d="m 36.439861,104.7365 -2.375958,7.65175 h -1.285875 l -1.672167,-5.22816 c -0.04586,-0.127 -0.08819,-0.28222 -0.127,-0.46567 -0.02117,0.0882 -0.04233,0.1711 -0.0635,0.24871 -0.02117,0.0776 -0.0441,0.14993 -0.06879,0.21696 l -1.688042,5.22816 H 27.867362 L 24.674031,102.0812 h 1.190625 c 0.123472,0 0.225777,0.03 0.306916,0.09 0.08467,0.0565 0.141111,0.13408 0.169334,0.23283 l 2.124415,7.2326 c 0.02822,0.11289 0.05468,0.23636 0.07938,0.37041 0.02822,0.13053 0.05644,0.26811 0.08467,0.41275 0.02822,-0.14817 0.05821,-0.28751 0.08996,-0.41804 0.03528,-0.13053 0.07232,-0.25223 0.111125,-0.36512 l 1.502833,-4.5773 c 0.02822,-0.0811 0.0829,-0.15522 0.164042,-0.22225 0.08467,-0.067 0.186972,-0.10054 0.306916,-0.10054 h 0.418042 c 0.123472,0 0.224014,0.03 0.301625,0.09 0.07761,0.06 0.13582,0.13761 0.174625,0.23283 l 1.497541,4.5773 c 0.07408,0.21872 0.141111,0.47095 0.201084,0.7567 0.04586,-0.27869 0.09701,-0.53093 0.153458,-0.7567 l 1.30175,-4.5773 c 0.02117,-0.0882 0.07408,-0.16404 0.15875,-0.22754 0.08819,-0.0635 0.192264,-0.0952 0.312208,-0.0952 z"
             style="font-style:normal;font-variant:normal;font-weight:bold;font-stretch:normal;font-family:Lato;-inkscape-font-specification:'Lato Bold';stroke-width:0.264583"
             id="path881"
             inkscape:connector-curvature="0"
             sodipodi:nodetypes="ccccccccccscccccccccssscccccccc" />
        </g>
      </g>
      <g
         id="layer2"
         inkscape:label="font"
         transform="translate(0,21.372)" />
    </g>
  </g>
  <style
     type="text/css"
     id="style2099">
	
		.st0{fill-rule:evenodd;clip-rule:evenodd;fill:none;stroke:#FFC600;stroke-width:15;stroke-linecap:round;stroke-linejoin:round;stroke-miterlimit:10;}
</style>
  <path
     id="path6"
     style="font-variant-ligatures:normal;font-variant-position:normal;font-variant-caps:normal;font-variant-numeric:normal;font-variant-alternates:normal;font-variant-east-asian:normal;font-feature-settings:normal;font-variation-settings:normal;text-indent:0;text-decoration:none;text-decoration-line:none;text-decoration-style:solid;text-decoration-color:#000000;text-transform:none;text-orientation:mixed;white-space:normal;shape-padding:0;shape-margin:0;inline-size:0;isolation:auto;mix-blend-mode:normal;stroke-width:0.42225;shape-rendering:auto;fill:#f9f9f9"
     stop-color="#000000"
     solid-color="#000000"
     image-rendering="auto"
     fill="#f2f2f2"
     enable-background="accumulate"
     dominant-baseline="auto"
     color-rendering="auto"
     color="#000000"
     d="m 59.057051,44.194622 1.0992,-0.07326 -0.918435,-1.583183 1.431385,1.36336 0.806074,-1.685452 -1.905317,-4.470358 -1.309904,-4.644326 -0.260486,-0.277443 9.997609,-10.321052 -11.417212,8.808975 -1.416184,-1.50836 -1.322571,-0.276316 0.182835,-0.887021 -0.25892,-1.706691 -0.97983,1.473187 -0.06182,0.936973 -1.141299,-0.318719 -4.158696,3.096147 -6.331213,9.468529 -6.422841,-9.473174 -4.147633,-3.102058 -1.167225,0.227939 -0.01879,-0.821994 -0.947698,-1.558608 -0.316417,1.741822 0.194771,0.84678 -1.33452,0.316561 -1.416184,1.50836 -11.270268,-8.659076 9.850665,10.170731 -0.251969,0.341929 -1.318433,4.579721 -1.905318,4.470359 0.806075,1.685452 1.326371,-1.174488 -0.813422,1.394353 1.099201,0.07326 5.451244,-5.642102 2.133502,1.336632 2.487853,10.394523 -18.365754,20.063198 6.970077,-1.857857 19.344529,-14.181259 18.524098,14.181259 7.72506,1.873354 -18.346753,-20.066577 2.433214,-10.395367 2.20976,-1.310748 z" />
  <path
     id="path8"
     style="font-variant-ligatures:normal;font-variant-position:normal;font-variant-caps:normal;font-variant-numeric:normal;font-variant-alternates:normal;font-variant-east-asian:normal;font-feature-settings:normal;font-variation-settings:normal;text-indent:0;text-decoration:none;text-decoration-line:none;text-decoration-style:solid;text-decoration-color:#000000;text-transform:none;text-orientation:mixed;white-space:normal;shape-padding:0;shape-margin:0;inline-size:0;isolation:auto;mix-blend-mode:normal;fill:#ececec;stroke-width:0.42225;shape-rendering:auto"
     stop-color="#000000"
     solid-color="#000000"
     image-rendering="auto"
     enable-background="accumulate"
     dominant-baseline="auto"
     color-rendering="auto"
     color="#000000"
     d="m 67.962299,22.458808 -11.376676,8.77815 -1.393762,-1.484461 -1.284906,-0.268027 0.17319,-0.842853 -0.28205,-1.85887 -1.067997,1.605689 -0.05855,0.883262 -1.100974,-0.307617 -4.188676,3.11823 -6.289833,9.407303 -6.381461,-9.41237 -4.175501,-3.122326 -1.126562,0.220195 -0.01732,-0.771113 -1.031725,-1.696431 -0.344729,1.897633 0.184734,0.80409 -1.296433,0.307618 -1.393762,1.483659 -11.222555,-8.622341 -8.23e-4,-8.44e-4 -0.0066,-0.0049 -0.07422,0.0833 9.818152,10.136528 -0.230093,0.311739 -1.31953,4.586055 -1.914143,4.490626 0.848638,1.774758 1.12158,-0.992962 -0.683665,1.171912 1.214813,0.08082 5.438154,-5.627745 2.07578,1.300571 2.475778,10.343431 -18.475117,20.181428 7.165156,-1.909202 19.318772,-14.16268 18.500454,14.16268 7.913805,1.919083 -18.450206,-20.17974 2.421349,-10.344275 2.151659,-1.275827 5.438157,5.628589 0.02559,-0.0016 1.189224,-0.07917 -0.766974,-1.322022 1.204087,1.146323 0.850285,-1.778051 -1.914143,-4.489782 -1.312944,-4.653615 -0.23339,-0.24906 9.954961,-10.276715 0.0058,-0.0058 -0.07422,-0.0833 z m -0.544322,0.562436 -9.496398,9.802529 0.287827,0.305966 1.307158,4.635036 1.896831,4.450091 -0.762035,1.593317 -1.375605,-1.310452 -0.08659,0.06845 0.872537,1.505109 -0.98304,0.06598 -5.46349,-5.655192 -2.268748,1.345077 -2.445248,10.447304 18.243302,19.953836 -7.536314,-1.82754 L 41.06042,54.200917 21.690556,68.400755 14.915558,70.206844 33.171949,50.263143 30.672273,39.817528 l -2.191265,-1.372312 -5.464335,5.656036 -0.983884,-0.06598 0.767819,-1.316237 -0.08494,-0.0701 -1.270887,1.125718 -0.762837,-1.596611 1.895986,-4.449246 1.317039,-4.573809 0.273804,-0.371943 -9.351988,-9.65643 10.704876,8.225003 1.439112,-1.533147 1.372312,-0.325757 -0.204529,-0.889047 0.287822,-1.58673 0.864303,1.420955 0.01979,0.873381 1.207381,-0.235864 4.120229,3.081114 6.464222,9.5344 6.372593,-9.529333 4.128463,-3.074485 1.18099,0.329883 0.06598,-0.990472 0.891496,-1.339334 0.235864,1.552908 -0.192157,0.931906 1.359936,0.283701 1.438309,1.532302 10.845063,-8.365613 z" />
  <path
     d="m 40.461963,65.52159 -1.775648,5.718389 h -0.960987 l -1.249679,-3.90717 c -0.03427,-0.09491 -0.06591,-0.210909 -0.09491,-0.348009 -0.01582,0.06592 -0.03164,0.127869 -0.04745,0.18587 -0.01582,0.05799 -0.03296,0.112044 -0.05141,0.162139 l -1.261487,3.90717 H 34.05544 l -2.386438,-7.702693 h 0.889767 c 0.09227,0 0.168731,0.02242 0.229369,0.06726 0.06328,0.04222 0.105456,0.100199 0.126545,0.174 l 1.587621,5.405114 c 0.02109,0.08437 0.04086,0.176636 0.05932,0.276814 0.02109,0.09755 0.04218,0.200366 0.06328,0.308462 0.02109,-0.110731 0.0435,-0.214866 0.06723,-0.312414 0.02636,-0.09755 0.05405,-0.188496 0.08304,-0.272862 l 1.123082,-3.420738 c 0.02109,-0.06061 0.06195,-0.116001 0.122591,-0.166092 0.06328,-0.05007 0.139728,-0.07514 0.22937,-0.07514 h 0.312412 c 0.09227,0 0.167409,0.02242 0.225409,0.06726 0.058,0.04484 0.101502,0.102839 0.130498,0.174 l 1.119121,3.420739 c 0.05536,0.163453 0.105455,0.351953 0.150273,0.565502 0.03427,-0.208275 0.0725,-0.39678 0.114684,-0.565502 l 0.97287,-3.420739 c 0.01582,-0.06591 0.05536,-0.122592 0.118638,-0.170048 0.06591,-0.04745 0.143681,-0.07115 0.233323,-0.07115 z m 9.380474,4.482481 v 0.965795 q -0.181605,0.133731 -0.387982,0.196465 -0.204717,0.06108 -0.439148,0.06108 -0.29222,0 -0.52996,-0.0908 -0.236087,-0.0908 -0.404475,-0.252594 -0.166747,-0.161798 -0.257547,-0.386325 -0.0908,-0.224531 -0.0908,-0.49035 0,-0.269104 0.0875,-0.493627 0.0875,-0.224531 0.247644,-0.386329 0.161792,-0.161789 0.39129,-0.250947 0.229484,-0.08915 0.51509,-0.08915 0.145284,0 0.270756,0.0231 0.127124,0.0231 0.234436,0.06439 0.108962,0.03961 0.198113,0.0974 0.08915,0.05778 0.163444,0.127123 l -0.127123,0.201417 q -0.02972,0.04788 -0.0776,0.05944 -0.04787,0.0099 -0.10401,-0.02479 -0.05448,-0.03137 -0.108964,-0.06273 -0.05448,-0.03137 -0.12217,-0.05448 -0.06604,-0.0231 -0.150237,-0.03796 -0.08255,-0.01486 -0.19151,-0.01486 -0.176653,0 -0.320288,0.05944 -0.141981,0.05944 -0.242691,0.170049 -0.10071,0.110612 -0.155189,0.265802 -0.05448,0.155189 -0.05448,0.346717 0,0.204715 0.05779,0.366517 0.05943,0.160143 0.165095,0.272411 0.107313,0.110612 0.257548,0.170048 0.150237,0.05778 0.335156,0.05778 0.132076,0 0.236087,-0.02804 0.104012,-0.02804 0.203069,-0.07594 V 70.33756 h -0.300476 q -0.04292,0 -0.06769,-0.0231 -0.02311,-0.02479 -0.02311,-0.05944 v -0.250943 z m -2.699156,0.156355 q 0,-0.07924 -0.02311,-0.148585 -0.02146,-0.07099 -0.06604,-0.123821 -0.04458,-0.05283 -0.113917,-0.08255 -0.06769,-0.03137 -0.15849,-0.03137 -0.176654,0 -0.279013,0.100711 -0.100709,0.100707 -0.128774,0.285614 z m -0.777587,0.245994 q 0.0099,0.130425 0.04623,0.226183 0.03632,0.0941 0.09576,0.15684 0.05944,0.06108 0.140332,0.09245 0.08255,0.02973 0.181605,0.02973 0.09906,0 0.170049,-0.0231 0.07264,-0.0231 0.125472,-0.05118 0.05448,-0.02804 0.09411,-0.05118 0.04127,-0.0231 0.07925,-0.0231 0.05118,0 0.07594,0.03796 l 0.117218,0.148585 q -0.06769,0.07925 -0.151887,0.133727 -0.0842,0.05283 -0.176652,0.08585 -0.0908,0.03137 -0.18656,0.04458 -0.0941,0.01322 -0.183257,0.01322 -0.176653,0 -0.328533,-0.05778 -0.151888,-0.05943 -0.264153,-0.17335 -0.112264,-0.115566 -0.176653,-0.283963 -0.06439,-0.170049 -0.06439,-0.392916 0,-0.173351 0.05613,-0.325226 0.05613,-0.153534 0.160144,-0.265802 0.10566,-0.113914 0.255898,-0.179954 0.151887,-0.06604 0.341748,-0.06604 0.160144,0 0.295522,0.05118 0.135378,0.05118 0.232785,0.150236 0.09741,0.0974 0.151888,0.241042 0.05613,0.141981 0.05613,0.325221 0,0.09246 -0.01981,0.125471 -0.01981,0.03137 -0.07594,0.03137 z M 44.86445,66.363704 v 1.692554 h 2.681282 v 0.850247 H 44.86445 v 2.329231 h -1.605635 v -5.718385 h 4.682439 v 0.84626 z m 1.150298,-1.652483 h -3.68206 v 6.525313 H 40.89975 V 64.711221 H 35.638175 L 35.26166,63.533976 h 10.753088 z"
     id="path58"
     style="stroke-width:0.422249;fill:#ececec" />
</svg>
