<?xml version="1.0" encoding="UTF-8" standalone="no"?>
<svg
   xmlns:dc="http://purl.org/dc/elements/1.1/"
   xmlns:cc="http://creativecommons.org/ns#"
   xmlns:rdf="http://www.w3.org/1999/02/22-rdf-syntax-ns#"
   xmlns:svg="http://www.w3.org/2000/svg"
   xmlns="http://www.w3.org/2000/svg"
   xmlns:sodipodi="http://sodipodi.sourceforge.net/DTD/sodipodi-0.dtd"
   xmlns:inkscape="http://www.inkscape.org/namespaces/inkscape"
   width="80mm"
   height="58mm"
   enable-background="new"
   version="1.1"
   viewBox="0 0 80.00197 58.001428"
   id="svg66"
   sodipodi:docname="einhorn_a8.svg"
   inkscape:version="1.0 (4035a4fb49, 2020-05-01)">
  <defs
     id="defs70" />
  <sodipodi:namedview
     inkscape:guide-bbox="true"
     showguides="true"
     width="80mm"
     units="mm"
     inkscape:document-rotation="0"
     pagecolor="#ffffff"
     bordercolor="#666666"
     borderopacity="1"
     objecttolerance="10"
     gridtolerance="10"
     guidetolerance="10"
     inkscape:pageopacity="0"
     inkscape:pageshadow="2"
     inkscape:window-width="2556"
     inkscape:window-height="1385"
     id="namedview68"
     showgrid="false"
     inkscape:zoom="2"
     inkscape:cx="100.22104"
     inkscape:cy="125.12288"
     inkscape:window-x="1920"
     inkscape:window-y="26"
     inkscape:window-maximized="0"
     inkscape:current-layer="svg66">
    <sodipodi:guide
       id="guide859"
       orientation="1,0"
       position="3.0127973,62.349855" />
    <sodipodi:guide
       id="guide861"
       orientation="1,0"
       position="76.989166,62.349855" />
    <sodipodi:guide
       id="guide867"
       orientation="0,-1"
       position="-5.3767433,54.990681" />
    <sodipodi:guide
       id="guide869"
       orientation="0,-1"
       position="-5.3767433,3.0107463" />
  </sodipodi:namedview>
  <title
     id="title2">Werkkooperative der Technikfreundinnen e.G.</title>
  <metadata
     id="metadata4">
    <rdf:RDF>
      <cc:Work
         rdf:about="">
        <dc:format>image/svg+xml</dc:format>
        <dc:type
           rdf:resource="http://purl.org/dc/dcmitype/StillImage" />
        <dc:title>Werkkooperative der Technikfreundinnen e.G.</dc:title>
        <cc:license
           rdf:resource="http://creativecommons.org/licenses/by/4.0/" />
        <dc:creator>
          <cc:Agent>
            <dc:title>L3D</dc:title>
          </cc:Agent>
        </dc:creator>
      </cc:Work>
      <cc:License
         rdf:about="http://creativecommons.org/licenses/by/4.0/">
        <cc:permits
           rdf:resource="http://creativecommons.org/ns#Reproduction" />
        <cc:permits
           rdf:resource="http://creativecommons.org/ns#Distribution" />
        <cc:requires
           rdf:resource="http://creativecommons.org/ns#Notice" />
        <cc:requires
           rdf:resource="http://creativecommons.org/ns#Attribution" />
        <cc:permits
           rdf:resource="http://creativecommons.org/ns#DerivativeWorks" />
      </cc:License>
    </rdf:RDF>
  </metadata>
  <rect
     y="-1.4476639"
     x="-3.49559"
     height="63.467415"
     width="87.722321"
     id="rect871"
     style="fill:#ff6600;stroke:#000000;stroke-width:0.026459" />
  <g
     transform="matrix(0.42501595,0,0,0.42501595,10.852075,0.26394752)"
     shape-rendering="auto"
     id="g10">
    <path
       d="m 109.8,61.441 2.6032,-0.1735 -2.1751,-3.7494 3.3899,3.2288 1.909,-3.9916 -4.5123,-10.587 -3.1022,-10.999 -0.6169,-0.65706 23.677,-24.443 -27.039,20.862 -3.3539,-3.5722 -3.1322,-0.65439 0.433,-2.1007 -0.61319,-4.0419 -2.3205,3.4889 -0.1464,2.219 -2.7029,-0.75481 -9.8489,7.3325 -14.994,22.424 -15.211,-22.435 -9.8227,-7.3465 -2.7643,0.53982 -0.0445,-1.9467 -2.2444,-3.6912 -0.74936,4.1251 0.46127,2.0054 -3.1605,0.7497 -3.3539,3.5722 -26.691,-20.507 23.329,24.087 -0.59673,0.80978 -3.1224,10.846 -4.5123,10.587 1.909,3.9916 3.1412,-2.7815 -1.9264,3.3022 2.6032,0.17351 12.91,-13.362 5.0527,3.1655 5.8919,24.617 -43.495,47.515 16.507,-4.3999 45.813,-33.585 43.87,33.585 18.295,4.4366 -43.45,-47.523 5.7625,-24.619 5.2333,-3.1042 z"
       color="#000000"
       color-rendering="auto"
       dominant-baseline="auto"
       enable-background="accumulate"
       fill="#f2f2f2"
       image-rendering="auto"
       solid-color="#000000"
       stop-color="#000000"
       style="font-variant-ligatures:normal;font-variant-position:normal;font-variant-caps:normal;font-variant-numeric:normal;font-variant-alternates:normal;font-variant-east-asian:normal;font-feature-settings:normal;font-variation-settings:normal;text-indent:0;text-decoration:none;text-decoration-line:none;text-decoration-style:solid;text-decoration-color:#000000;text-transform:none;text-orientation:mixed;white-space:normal;shape-padding:0;shape-margin:0;inline-size:0;isolation:auto;mix-blend-mode:normal"
       id="path6" />
    <path
       d="m 130.89,9.9648 -26.943,20.789 -3.3008,-3.5156 -3.043,-0.63476 0.41016,-1.9961 -0.66797,-4.4023 -2.5293,3.8027 -0.13867,2.0918 -2.6074,-0.72852 -9.9199,7.3848 -14.896,22.279 -15.113,-22.291 -9.8887,-7.3945 -2.668,0.52148 L 39.5434,24.0446 37.1,20.027 l -0.81641,4.4941 0.4375,1.9043 -3.0703,0.72852 -3.3008,3.5137 -26.578,-20.42 -0.00195,-0.002 -0.015625,-0.01172 -0.17578,0.19727 23.252,24.006 -0.54492,0.73828 -3.125,10.861 -4.5332,10.635 2.0098,4.2031 2.6562,-2.3516 -1.6191,2.7754 2.877,0.19141 12.879,-13.328 4.916,3.0801 5.8633,24.496 -43.754,47.795 16.969,-4.5215 45.752,-33.541 43.814005,33.541 18.742,4.5449 -43.695005,-47.791 5.7344,-24.498 5.0957,-3.0215 12.879005,13.33 0.0606,-0.0039 2.8164,-0.1875 -1.8164,-3.1309 2.8516,2.7148 2.0137,-4.2109 -4.5332,-10.633 -3.1094,-11.021 -0.55273,-0.58984 23.576,-24.338 0.0137,-0.01367 -0.17578,-0.19727 z m -1.2891,1.332 -22.49,23.215 0.68165,0.72461 3.0957,10.977 4.4922,10.539 -1.8047,3.7734 -3.2578,-3.1035 -0.20508,0.16211 2.0664,3.5645 -2.3281,0.15625 -12.939,-13.393 -5.373,3.1855 -5.791,24.742 43.205,47.256 -17.848,-4.3281 -43.926,-33.629 -45.873,33.629 -16.045,4.2773 43.236,-47.232 -5.9199,-24.738 -5.1895,-3.25 -12.941,13.395 -2.3301,-0.15625 1.8184,-3.1172 -0.20117,-0.16602 -3.0098,2.666 -1.8066,-3.7812 4.4902,-10.537 3.1191,-10.832 0.64844,-0.88086 -22.148,-22.869 25.352,19.479 3.4082,-3.6309 3.25,-0.77148 -0.48438,-2.1055 0.68164,-3.7578 2.0469,3.3652 0.04687,2.0684 2.8594,-0.55859 9.7578,7.2969 15.309,22.58 15.092,-22.568 9.7773,-7.2812 2.7969,0.78125 0.15625,-2.3457 2.1113,-3.1719 0.55859,3.6777 -0.45508,2.207 3.22069,0.67188 3.4063,3.6289 25.684,-19.812 z"
       color="#000000"
       color-rendering="auto"
       dominant-baseline="auto"
       enable-background="accumulate"
       image-rendering="auto"
       solid-color="#000000"
       stop-color="#000000"
       style="font-variant-ligatures:normal;font-variant-position:normal;font-variant-caps:normal;font-variant-numeric:normal;font-variant-alternates:normal;font-variant-east-asian:normal;font-feature-settings:normal;font-variation-settings:normal;text-indent:0;text-decoration:none;text-decoration-line:none;text-decoration-style:solid;text-decoration-color:#000000;text-transform:none;text-orientation:mixed;white-space:normal;shape-padding:0;shape-margin:0;inline-size:0;isolation:auto;mix-blend-mode:normal"
       id="path8" />
  </g>
  <path
     d="M 12.27405,4.3140518 A 0.193208,0.193208 0 0 0 12.12878,4.6411143 L 22.192308,15.029778 a 0.193208,0.193208 0 0 0 0.278916,-0.0026 l 1.429457,-1.5216 a 0.193208,0.193208 0 0 0 -0.02325,-0.284727 l -11.492,-8.8670135 a 0.193208,0.193208 0 0 0 -0.111236,-0.039828 z m 1.992263,1.9798094 9.206696,7.1024398 -1.144739,1.219413 -8.062127,-8.32181 z"
     color="#000000"
     color-rendering="auto"
     dominant-baseline="auto"
     enable-background="accumulate"
     image-rendering="auto"
     shape-rendering="auto"
     solid-color="#000000"
     stop-color="#000000"
     style="font-variant-ligatures:normal;font-variant-position:normal;font-variant-caps:normal;font-variant-numeric:normal;font-variant-alternates:normal;font-variant-east-asian:normal;font-feature-settings:normal;font-variation-settings:normal;text-indent:0;text-decoration:none;text-decoration-line:none;text-decoration-style:solid;text-decoration-color:#000000;text-transform:none;text-orientation:mixed;white-space:normal;shape-padding:0;shape-margin:0;inline-size:0;isolation:auto;mix-blend-mode:normal;stroke-width:0.425016"
     id="path12" />
  <g
     transform="matrix(0.42501595,0,0,0.42501595,10.852075,0.26394752)"
     shape-rendering="auto"
     id="g52">
    <path
       d="m 42.213,24.975 a 0.45459,0.45459 0 0 0 -0.10352,0.0098 l -8.4824,1.8438 a 0.45459,0.45459 0 0 0 -0.23633,0.13477 l -7.332,7.8086 a 0.45459,0.45459 0 0 0 -0.10547,0.1875 l -3.0938,10.971 -4.502,10.561 a 0.45459,0.45459 0 0 0 0.0078,0.37305 l 1.9102,3.9922 a 0.45459,0.45459 0 0 0 0.71484,0.14062 l 1.1484,-1.0391 -0.62305,0.97852 a 0.45459,0.45459 0 0 0 0.35352,0.69922 l 2.6035,0.17188 a 0.45459,0.45459 0 0 0 0.35742,-0.13672 l 12.654,-13.098 4.582,2.873 5.8496,24.436 a 0.45454,0.45454 0 0 0 0.54688,0.33594 0.45454,0.45454 0 0 0 0.33594,-0.54688 l -5.8906,-24.617 a 0.45459,0.45459 0 0 0 -0.20117,-0.2793 l -5.0527,-3.166 a 0.45459,0.45459 0 0 0 -0.56836,0.06836 l -12.764,13.211 -1.6289,-0.10938 2.0195,-3.1719 A 0.45459,0.45459 0 0 0 24.0248,57.0269 l -3.1934,2.8887 -1.5566,-3.2559 4.4316,-10.398 a 0.45459,0.45459 0 0 0 0.01758,-0.05469 l 3.0723,-10.893 7.1602,-7.625 8.1426,-1.7695 9.6211,7.1621 15.098,22.453 a 0.45454,0.45454 0 0 0 0.63086,0.12305 0.45454,0.45454 0 0 0 0.125,-0.63086 l -15.143,-22.518 a 0.45459,0.45459 0 0 0 -0.10547,-0.11133 l -9.8496,-7.332 A 0.45459,0.45459 0 0 0 42.2123,24.97563 Z"
       color="#000000"
       color-rendering="auto"
       dominant-baseline="auto"
       enable-background="accumulate"
       image-rendering="auto"
       solid-color="#000000"
       stop-color="#000000"
       style="font-variant-ligatures:normal;font-variant-position:normal;font-variant-caps:normal;font-variant-numeric:normal;font-variant-alternates:normal;font-variant-east-asian:normal;font-feature-settings:normal;font-variation-settings:normal;text-indent:0;text-decoration:none;text-decoration-line:none;text-decoration-style:solid;text-decoration-color:#000000;text-transform:none;text-orientation:mixed;white-space:normal;shape-padding:0;shape-margin:0;inline-size:0;isolation:auto;mix-blend-mode:normal"
       id="path14" />
    <path
       d="m 37.074,19.746 a 0.45459,0.45459 0 0 0 -0.46094,0.38867 l -0.64062,4.3164 a 0.45459,0.45459 0 0 0 0.0059,0.16797 l 0.89453,3.8965 a 0.45459,0.45459 0 0 0 0.67969,0.28516 l 2.1289,-1.2988 a 0.45459,0.45459 0 0 0 0.21875,-0.39258 l -0.0293,-3.0293 A 0.45459,0.45459 0 0 0 39.8045,23.8476 L 37.451,19.9648 a 0.45459,0.45459 0 0 0 -0.37695,-0.21875 z m 0.25195,1.7695 1.6367,2.6973 0.02539,2.6484 -1.3691,0.83594 -0.73438,-3.1973 0.44141,-2.9844 z"
       color="#000000"
       color-rendering="auto"
       dominant-baseline="auto"
       enable-background="accumulate"
       image-rendering="auto"
       solid-color="#000000"
       stop-color="#000000"
       style="font-variant-ligatures:normal;font-variant-position:normal;font-variant-caps:normal;font-variant-numeric:normal;font-variant-alternates:normal;font-variant-east-asian:normal;font-feature-settings:normal;font-variation-settings:normal;text-indent:0;text-decoration:none;text-decoration-line:none;text-decoration-style:solid;text-decoration-color:#000000;text-transform:none;text-orientation:mixed;white-space:normal;shape-padding:0;shape-margin:0;inline-size:0;isolation:auto;mix-blend-mode:normal"
       id="path16" />
    <path
       d="m 42.221,24.975 a 0.45459,0.45459 0 0 0 -0.25195,0.06641 l -15.814,9.6543 a 0.45459,0.45459 0 0 0 -0.10938,0.68359 l 11.021,12.908 a 0.45459,0.45459 0 0 0 0.79102,-0.20117 l 4.793,-22.562 A 0.45459,0.45459 0 0 0 42.221,24.975297 Z m -0.67969,1.3926 -4.3809,20.631 -10.078,-11.805 14.459,-8.8262 z"
       color="#000000"
       color-rendering="auto"
       dominant-baseline="auto"
       enable-background="accumulate"
       image-rendering="auto"
       solid-color="#000000"
       stop-color="#000000"
       style="font-variant-ligatures:normal;font-variant-position:normal;font-variant-caps:normal;font-variant-numeric:normal;font-variant-alternates:normal;font-variant-east-asian:normal;font-feature-settings:normal;font-variation-settings:normal;text-indent:0;text-decoration:none;text-decoration-line:none;text-decoration-style:solid;text-decoration-color:#000000;text-transform:none;text-orientation:mixed;white-space:normal;shape-padding:0;shape-margin:0;inline-size:0;isolation:auto;mix-blend-mode:normal"
       id="path18" />
    <path
       d="m 31.225,33.152 a 0.45459,0.45459 0 0 0 -0.3125,0.10938 l -1.2891,1.1055 a 0.45459,0.45459 0 0 0 0.09375,0.75195 l 1.3496,0.67383 a 0.45459,0.45459 0 0 0 0.5,-0.0625 l 1.3496,-1.166 A 0.45459,0.45459 0 0 0 32.80111,33.8044 l -1.4121,-0.61328 a 0.45459,0.45459 0 0 0 -0.16406,-0.03906 z m 0.0625,0.98633 0.48633,0.21094 -0.57227,0.49609 -0.4668,-0.23438 0.55273,-0.47266 z"
       color="#000000"
       color-rendering="auto"
       dominant-baseline="auto"
       enable-background="accumulate"
       image-rendering="auto"
       solid-color="#000000"
       stop-color="#000000"
       style="font-variant-ligatures:normal;font-variant-position:normal;font-variant-caps:normal;font-variant-numeric:normal;font-variant-alternates:normal;font-variant-east-asian:normal;font-feature-settings:normal;font-variation-settings:normal;text-indent:0;text-decoration:none;text-decoration-line:none;text-decoration-style:solid;text-decoration-color:#000000;text-transform:none;text-orientation:mixed;white-space:normal;shape-padding:0;shape-margin:0;inline-size:0;isolation:auto;mix-blend-mode:normal"
       id="path20" />
    <path
       d="m 18.775,56.213 a 0.45454,0.45454 0 0 0 -0.45117,0.39844 0.45454,0.45454 0 0 0 0.39453,0.50781 l 5.5547,0.69336 a 0.45454,0.45454 0 0 0 0.50781,-0.39453 0.45454,0.45454 0 0 0 -0.39453,-0.50586 l -5.5547,-0.69531 A 0.45454,0.45454 0 0 0 18.775,56.21301 Z"
       color="#000000"
       color-rendering="auto"
       dominant-baseline="auto"
       enable-background="accumulate"
       image-rendering="auto"
       solid-color="#000000"
       stop-color="#000000"
       style="font-variant-ligatures:normal;font-variant-position:normal;font-variant-caps:normal;font-variant-numeric:normal;font-variant-alternates:normal;font-variant-east-asian:normal;font-feature-settings:normal;font-variation-settings:normal;text-indent:0;text-decoration:none;text-decoration-line:none;text-decoration-style:solid;text-decoration-color:#000000;text-transform:none;text-orientation:mixed;white-space:normal;shape-padding:0;shape-margin:0;inline-size:0;isolation:auto;mix-blend-mode:normal"
       id="path22" />
    <path
       d="m 23.293,45.627 a 0.45454,0.45454 0 0 0 -0.45508,0.39453 0.45454,0.45454 0 0 0 0.38867,0.50977 l 12.99,1.7578 -12.152,8.7031 a 0.45459,0.45459 0 0 0 -0.18945,0.39062 l 0.17383,3.9902 a 0.45454,0.45454 0 0 0 0.47461,0.43555 0.45454,0.45454 0 0 0 0.43359,-0.47461 l -0.16211,-3.7461 12.883,-9.2266 a 0.45459,0.45459 0 0 0 -0.20508,-0.82031 l -14.123,-1.9102 a 0.45454,0.45454 0 0 0 -0.05664,-0.0039 z"
       color="#000000"
       color-rendering="auto"
       dominant-baseline="auto"
       enable-background="accumulate"
       image-rendering="auto"
       solid-color="#000000"
       stop-color="#000000"
       style="font-variant-ligatures:normal;font-variant-position:normal;font-variant-caps:normal;font-variant-numeric:normal;font-variant-alternates:normal;font-variant-east-asian:normal;font-feature-settings:normal;font-variation-settings:normal;text-indent:0;text-decoration:none;text-decoration-line:none;text-decoration-style:solid;text-decoration-color:#000000;text-transform:none;text-orientation:mixed;white-space:normal;shape-padding:0;shape-margin:0;inline-size:0;isolation:auto;mix-blend-mode:normal"
       id="path24" />
    <path
       d="m 42.188,24.975 a 0.45454,0.45454 0 0 0 -0.42773,0.35938 l -4.791,22.564 a 0.45454,0.45454 0 0 0 0.34961,0.53906 0.45454,0.45454 0 0 0 0.53906,-0.35156 l 4.793,-22.562 a 0.45454,0.45454 0 0 0 -0.35156,-0.53906 0.45454,0.45454 0 0 0 -0.11133,-0.0098 z"
       color="#000000"
       color-rendering="auto"
       dominant-baseline="auto"
       enable-background="accumulate"
       image-rendering="auto"
       solid-color="#000000"
       stop-color="#000000"
       style="font-variant-ligatures:normal;font-variant-position:normal;font-variant-caps:normal;font-variant-numeric:normal;font-variant-alternates:normal;font-variant-east-asian:normal;font-feature-settings:normal;font-variation-settings:normal;text-indent:0;text-decoration:none;text-decoration-line:none;text-decoration-style:solid;text-decoration-color:#000000;text-transform:none;text-orientation:mixed;white-space:normal;shape-padding:0;shape-margin:0;inline-size:0;isolation:auto;mix-blend-mode:normal"
       id="path26" />
    <path
       d="m 52.045,32.307 a 0.45454,0.45454 0 0 0 -0.39453,0.24414 l -9.5879,18.396 a 0.45454,0.45454 0 0 0 0.19336,0.61328 0.45454,0.45454 0 0 0 0.61328,-0.19336 l 9.5879,-18.395 A 0.45454,0.45454 0 0 0 52.26375,32.35878 0.45454,0.45454 0 0 0 52.045,32.306046 Z"
       color="#000000"
       color-rendering="auto"
       dominant-baseline="auto"
       enable-background="accumulate"
       image-rendering="auto"
       solid-color="#000000"
       stop-color="#000000"
       style="font-variant-ligatures:normal;font-variant-position:normal;font-variant-caps:normal;font-variant-numeric:normal;font-variant-alternates:normal;font-variant-east-asian:normal;font-feature-settings:normal;font-variation-settings:normal;text-indent:0;text-decoration:none;text-decoration-line:none;text-decoration-style:solid;text-decoration-color:#000000;text-transform:none;text-orientation:mixed;white-space:normal;shape-padding:0;shape-margin:0;inline-size:0;isolation:auto;mix-blend-mode:normal"
       id="path28" />
    <path
       d="m 67.088,54.912 a 0.45454,0.45454 0 0 0 -0.28516,0.11914 0.45454,0.45454 0 0 0 -0.02734,0.64258 l 61.633,67.043 -17.156,-4.2461 -43.826,-33.553 -18.863,-9.5488 a 0.45454,0.45454 0 0 0 -0.61133,0.20117 0.45454,0.45454 0 0 0 0.20117,0.60938 l 18.787,9.5117 43.91,33.617 20.27,5.0137 -63.676,-69.264 a 0.45454,0.45454 0 0 0 -0.35547,-0.14648 z"
       color="#000000"
       color-rendering="auto"
       dominant-baseline="auto"
       enable-background="accumulate"
       image-rendering="auto"
       solid-color="#000000"
       stop-color="#000000"
       style="font-variant-ligatures:normal;font-variant-position:normal;font-variant-caps:normal;font-variant-numeric:normal;font-variant-alternates:normal;font-variant-east-asian:normal;font-feature-settings:normal;font-variation-settings:normal;text-indent:0;text-decoration:none;text-decoration-line:none;text-decoration-style:solid;text-decoration-color:#000000;text-transform:none;text-orientation:mixed;white-space:normal;shape-padding:0;shape-margin:0;inline-size:0;isolation:auto;mix-blend-mode:normal"
       id="path30" />
    <path
       d="m 92.084,25.062 a 0.45459,0.45459 0 0 0 -0.25586,0.08984 l -9.8477,7.332 a 0.45459,0.45459 0 0 0 -0.10547,0.11133 l -15.143,22.518 a 0.45454,0.45454 0 0 0 0.12305,0.63086 0.45454,0.45454 0 0 0 0.63086,-0.12305 l 15.1,-22.455 9.6191,-7.1621 8.1426,1.7695 7.1602,7.627 3.0723,10.891 a 0.45459,0.45459 0 0 0 0.0195,0.05469 l 4.4316,10.398 -1.5566,3.2578 -3.1934,-2.8906 a 0.45459,0.45459 0 0 0 -0.68945,0.58203 l 2.0176,3.1719 -1.627,0.10742 -12.762,-13.209 A 0.45459,0.45459 0 0 0 96.652,47.693308 l -5.0527,3.166 a 0.45459,0.45459 0 0 0 -0.20117,0.2793 l -5.9434,24.557 a 0.45454,0.45454 0 0 0 0.33594,0.54883 0.45454,0.45454 0 0 0 0.54883,-0.33398 l 5.8984,-24.379 4.584,-2.8711 12.654,13.096 a 0.45459,0.45459 0 0 0 0.35547,0.13867 l 2.6035,-0.17383 a 0.45459,0.45459 0 0 0 0.35351,-0.69726 l -0.625,-0.98047 1.1524,1.041 a 0.45459,0.45459 0 0 0 0.71484,-0.14062 l 1.9082,-3.9922 a 0.45459,0.45459 0 0 0 0.008,-0.375 l -4.5,-10.559 -3.0938,-10.971 a 0.45459,0.45459 0 0 0 -0.10743,-0.1875 l -7.332,-7.8105 a 0.45459,0.45459 0 0 0 -0.23437,-0.13281 l -8.4824,-1.8438 a 0.45459,0.45459 0 0 0 -0.11328,-0.0098 z"
       color="#000000"
       color-rendering="auto"
       dominant-baseline="auto"
       enable-background="accumulate"
       image-rendering="auto"
       solid-color="#000000"
       stop-color="#000000"
       style="font-variant-ligatures:normal;font-variant-position:normal;font-variant-caps:normal;font-variant-numeric:normal;font-variant-alternates:normal;font-variant-east-asian:normal;font-feature-settings:normal;font-variation-settings:normal;text-indent:0;text-decoration:none;text-decoration-line:none;text-decoration-style:solid;text-decoration-color:#000000;text-transform:none;text-orientation:mixed;white-space:normal;shape-padding:0;shape-margin:0;inline-size:0;isolation:auto;mix-blend-mode:normal"
       id="path32" />
    <path
       d="m 130.96,9.6152 a 0.45459,0.45459 0 0 0 -0.26367,0.095703 l -27.039,20.861 a 0.45459,0.45459 0 0 0 -0.0527,0.67188 l 3.3613,3.5801 a 0.45459,0.45459 0 0 0 0.6582,0.0039 l 23.678,-24.441 a 0.45459,0.45459 0 0 0 -0.34179,-0.77148 z m -4.6953,4.6621 -18.961,19.578 -2.6934,-2.8691 21.654,-16.709 z"
       color="#000000"
       color-rendering="auto"
       dominant-baseline="auto"
       enable-background="accumulate"
       image-rendering="auto"
       solid-color="#000000"
       stop-color="#000000"
       style="font-variant-ligatures:normal;font-variant-position:normal;font-variant-caps:normal;font-variant-numeric:normal;font-variant-alternates:normal;font-variant-east-asian:normal;font-feature-settings:normal;font-variation-settings:normal;text-indent:0;text-decoration:none;text-decoration-line:none;text-decoration-style:solid;text-decoration-color:#000000;text-transform:none;text-orientation:mixed;white-space:normal;shape-padding:0;shape-margin:0;inline-size:0;isolation:auto;mix-blend-mode:normal"
       id="path34" />
    <path
       d="m 97.211,19.834 a 0.45459,0.45459 0 0 0 -0.35547,0.21875 l -2.3535,3.8828 a 0.45459,0.45459 0 0 0 -0.06641,0.23047 l -0.0293,3.0312 a 0.45459,0.45459 0 0 0 0.2168,0.39062 l 2.1289,1.3008 a 0.45459,0.45459 0 0 0 0.67969,-0.28711 l 0.89453,-3.8945 a 0.45459,0.45459 0 0 0 0.0078,-0.16797 l -0.64062,-4.3184 A 0.45459,0.45459 0 0 0 97.211,19.83394 Z m -0.23242,1.7695 0.44336,2.9824 -0.73438,3.1953 -1.3711,-0.83398 0.02734,-2.6465 1.6348,-2.6973 z"
       color="#000000"
       color-rendering="auto"
       dominant-baseline="auto"
       enable-background="accumulate"
       image-rendering="auto"
       solid-color="#000000"
       stop-color="#000000"
       style="font-variant-ligatures:normal;font-variant-position:normal;font-variant-caps:normal;font-variant-numeric:normal;font-variant-alternates:normal;font-variant-east-asian:normal;font-feature-settings:normal;font-variation-settings:normal;text-indent:0;text-decoration:none;text-decoration-line:none;text-decoration-style:solid;text-decoration-color:#000000;text-transform:none;text-orientation:mixed;white-space:normal;shape-padding:0;shape-margin:0;inline-size:0;isolation:auto;mix-blend-mode:normal"
       id="path36" />
    <path
       d="m 92.066,25.062 a 0.45459,0.45459 0 0 0 -0.41016,0.54883 l 4.793,22.562 A 0.45459,0.45459 0 0 0 97.2379,48.374 l 11.023,-12.91 a 0.45459,0.45459 0 0 0 -0.10938,-0.68359 l -15.814,-9.6523 A 0.45459,0.45459 0 0 0 92.06604,25.0617 Z m 0.69727,1.3926 14.459,8.8262 -10.076,11.801 -4.3828,-20.627 z"
       color="#000000"
       color-rendering="auto"
       dominant-baseline="auto"
       enable-background="accumulate"
       image-rendering="auto"
       solid-color="#000000"
       stop-color="#000000"
       style="font-variant-ligatures:normal;font-variant-position:normal;font-variant-caps:normal;font-variant-numeric:normal;font-variant-alternates:normal;font-variant-east-asian:normal;font-feature-settings:normal;font-variation-settings:normal;text-indent:0;text-decoration:none;text-decoration-line:none;text-decoration-style:solid;text-decoration-color:#000000;text-transform:none;text-orientation:mixed;white-space:normal;shape-padding:0;shape-margin:0;inline-size:0;isolation:auto;mix-blend-mode:normal"
       id="path38" />
    <path
       d="m 103.08,33.24 a 0.45459,0.45459 0 0 0 -0.16406,0.03711 l -1.4102,0.61328 a 0.45459,0.45459 0 0 0 -0.11719,0.76172 l 1.3496,1.166 a 0.45459,0.45459 0 0 0 0.50195,0.0625 l 1.3496,-0.67578 a 0.45459,0.45459 0 0 0 0.0918,-0.75195 l -1.2891,-1.1035 A 0.45459,0.45459 0 0 0 103.0799,33.24 Z m -0.0625,0.98438 0.55273,0.47461 -0.46679,0.23242 -0.57422,-0.49414 z"
       color="#000000"
       color-rendering="auto"
       dominant-baseline="auto"
       enable-background="accumulate"
       image-rendering="auto"
       solid-color="#000000"
       stop-color="#000000"
       style="font-variant-ligatures:normal;font-variant-position:normal;font-variant-caps:normal;font-variant-numeric:normal;font-variant-alternates:normal;font-variant-east-asian:normal;font-feature-settings:normal;font-variation-settings:normal;text-indent:0;text-decoration:none;text-decoration-line:none;text-decoration-style:solid;text-decoration-color:#000000;text-transform:none;text-orientation:mixed;white-space:normal;shape-padding:0;shape-margin:0;inline-size:0;isolation:auto;mix-blend-mode:normal"
       id="path40" />
    <path
       d="m 115.51,56.301 a 0.45454,0.45454 0 0 0 -0.0352,0.0039 l -5.5527,0.69336 a 0.45454,0.45454 0 0 0 -0.39453,0.50781 0.45454,0.45454 0 0 0 0.50781,0.39453 l 5.5527,-0.69531 a 0.45454,0.45454 0 0 0 0.39453,-0.50586 0.45454,0.45454 0 0 0 -0.47266,-0.39844 z"
       color="#000000"
       color-rendering="auto"
       dominant-baseline="auto"
       enable-background="accumulate"
       image-rendering="auto"
       solid-color="#000000"
       stop-color="#000000"
       style="font-variant-ligatures:normal;font-variant-position:normal;font-variant-caps:normal;font-variant-numeric:normal;font-variant-alternates:normal;font-variant-east-asian:normal;font-feature-settings:normal;font-variation-settings:normal;text-indent:0;text-decoration:none;text-decoration-line:none;text-decoration-style:solid;text-decoration-color:#000000;text-transform:none;text-orientation:mixed;white-space:normal;shape-padding:0;shape-margin:0;inline-size:0;isolation:auto;mix-blend-mode:normal"
       id="path42" />
    <path
       d="m 110.99,45.715 a 0.45454,0.45454 0 0 0 -0.0332,0.0039 l -14.125,1.9102 a 0.45459,0.45459 0 0 0 -0.20312,0.82031 l 12.883,9.2266 -0.16406,3.7461 a 0.45454,0.45454 0 0 0 0.43554,0.47266 0.45454,0.45454 0 0 0 0.47266,-0.43359 l 0.17383,-3.9922 a 0.45459,0.45459 0 0 0 -0.18946,-0.38867 l -12.15,-8.7051 12.988,-1.7559 a 0.45454,0.45454 0 0 0 0.39063,-0.51172 0.45454,0.45454 0 0 0 -0.47852,-0.39258 z"
       color="#000000"
       color-rendering="auto"
       dominant-baseline="auto"
       enable-background="accumulate"
       image-rendering="auto"
       solid-color="#000000"
       stop-color="#000000"
       style="font-variant-ligatures:normal;font-variant-position:normal;font-variant-caps:normal;font-variant-numeric:normal;font-variant-alternates:normal;font-variant-east-asian:normal;font-feature-settings:normal;font-variation-settings:normal;text-indent:0;text-decoration:none;text-decoration-line:none;text-decoration-style:solid;text-decoration-color:#000000;text-transform:none;text-orientation:mixed;white-space:normal;shape-padding:0;shape-margin:0;inline-size:0;isolation:auto;mix-blend-mode:normal"
       id="path44" />
    <path
       d="m 92.096,25.061 a 0.45454,0.45454 0 0 0 -0.08984,0.01172 0.45454,0.45454 0 0 0 -0.34961,0.53906 l 4.793,22.562 a 0.45454,0.45454 0 0 0 0.53906,0.34961 0.45454,0.45454 0 0 0 0.34961,-0.53906 l -4.793,-22.562 A 0.45454,0.45454 0 0 0 92.096,25.061 Z"
       color="#000000"
       color-rendering="auto"
       dominant-baseline="auto"
       enable-background="accumulate"
       image-rendering="auto"
       solid-color="#000000"
       stop-color="#000000"
       style="font-variant-ligatures:normal;font-variant-position:normal;font-variant-caps:normal;font-variant-numeric:normal;font-variant-alternates:normal;font-variant-east-asian:normal;font-feature-settings:normal;font-variation-settings:normal;text-indent:0;text-decoration:none;text-decoration-line:none;text-decoration-style:solid;text-decoration-color:#000000;text-transform:none;text-orientation:mixed;white-space:normal;shape-padding:0;shape-margin:0;inline-size:0;isolation:auto;mix-blend-mode:normal"
       id="path46" />
    <path
       d="m 82.236,32.395 a 0.45454,0.45454 0 0 0 -0.19531,0.05078 0.45454,0.45454 0 0 0 -0.19336,0.61328 l 9.5898,18.396 a 0.45454,0.45454 0 0 0 0.61328,0.19336 0.45454,0.45454 0 0 0 0.19336,-0.61328 l -9.5898,-18.396 A 0.45454,0.45454 0 0 0 82.236,32.395 Z"
       color="#000000"
       color-rendering="auto"
       dominant-baseline="auto"
       enable-background="accumulate"
       image-rendering="auto"
       solid-color="#000000"
       stop-color="#000000"
       style="font-variant-ligatures:normal;font-variant-position:normal;font-variant-caps:normal;font-variant-numeric:normal;font-variant-alternates:normal;font-variant-east-asian:normal;font-feature-settings:normal;font-variation-settings:normal;text-indent:0;text-decoration:none;text-decoration-line:none;text-decoration-style:solid;text-decoration-color:#000000;text-transform:none;text-orientation:mixed;white-space:normal;shape-padding:0;shape-margin:0;inline-size:0;isolation:auto;mix-blend-mode:normal"
       id="path48" />
    <path
       d="m 67.256,54.818 a 0.45454,0.45454 0 0 0 -0.33203,0.14648 l -63.889,69.305 18.533,-4.9629 45.852,-33.613 18.684,-9.4844 a 0.45454,0.45454 0 0 0 0.19922,-0.61133 0.45454,0.45454 0 0 0 -0.61133,-0.19922 l -18.748,9.5176 -45.773,33.557 -15.342,4.1055 61.764,-66.998 a 0.45454,0.45454 0 0 0 -0.02539,-0.64258 0.45454,0.45454 0 0 0 -0.31055,-0.11914 z"
       color="#000000"
       color-rendering="auto"
       dominant-baseline="auto"
       enable-background="accumulate"
       image-rendering="auto"
       solid-color="#000000"
       stop-color="#000000"
       style="font-variant-ligatures:normal;font-variant-position:normal;font-variant-caps:normal;font-variant-numeric:normal;font-variant-alternates:normal;font-variant-east-asian:normal;font-feature-settings:normal;font-variation-settings:normal;text-indent:0;text-decoration:none;text-decoration-line:none;text-decoration-style:solid;text-decoration-color:#000000;text-transform:none;text-orientation:mixed;white-space:normal;shape-padding:0;shape-margin:0;inline-size:0;isolation:auto;mix-blend-mode:normal"
       id="path50" />
  </g>
  <path
     d="m 38.947052,47.156984 -1.78728,5.75585 h -0.967283 l -1.257866,-3.932766 c -0.0345,-0.09554 -0.06635,-0.212292 -0.09554,-0.350289 -0.01592,0.06636 -0.03185,0.128707 -0.04777,0.187087 -0.01592,0.05837 -0.03317,0.112778 -0.05174,0.163202 l -1.269751,3.932766 h -0.97127 L 30.096481,45.15968 h 0.895596 c 0.09287,0 0.169836,0.02257 0.230872,0.06769 0.06369,0.0425 0.106146,0.100857 0.127374,0.17514 l 1.59802,5.440524 c 0.02123,0.08491 0.04114,0.177793 0.05971,0.278627 0.02122,0.09819 0.04246,0.201679 0.06369,0.310483 0.02123,-0.111456 0.04379,-0.216274 0.06767,-0.314461 0.02654,-0.09818 0.0544,-0.189731 0.08359,-0.274649 l 1.130439,-3.443148 c 0.02122,-0.061 0.06236,-0.116761 0.123395,-0.167181 0.06369,-0.05039 0.140642,-0.07563 0.230871,-0.07563 h 0.314459 c 0.09287,0 0.168506,0.02257 0.226886,0.06769 0.05839,0.04513 0.102168,0.103515 0.131352,0.175141 l 1.126453,3.443147 c 0.05572,0.164525 0.106146,0.35426 0.151257,0.569208 0.0345,-0.209639 0.07297,-0.399379 0.115436,-0.569208 l 0.979243,-3.443147 c 0.01592,-0.06635 0.05572,-0.123395 0.119415,-0.171162 0.06635,-0.04776 0.144623,-0.07161 0.234851,-0.07161 z m 9.441925,4.511845 v 0.972123 q -0.182794,0.134606 -0.390524,0.197751 -0.206058,0.06148 -0.442025,0.06148 -0.294133,0 -0.53343,-0.09139 -0.237635,-0.09139 -0.407125,-0.25425 -0.16784,-0.162857 -0.259235,-0.388855 -0.09139,-0.226003 -0.09139,-0.493563 0,-0.270867 0.08808,-0.49686 0.08808,-0.226003 0.249266,-0.388861 0.162852,-0.162849 0.393854,-0.252591 0.230986,-0.08974 0.518463,-0.08974 0.146237,0 0.272531,0.02325 0.127956,0.02325 0.235971,0.0648 0.109676,0.03986 0.19941,0.09804 0.08974,0.05816 0.164517,0.127955 l -0.127958,0.202737 q -0.02992,0.0482 -0.07811,0.05982 -0.04819,0.0099 -0.104693,-0.02495 -0.05484,-0.03158 -0.109676,-0.06314 -0.05484,-0.03158 -0.122971,-0.05484 -0.06647,-0.02325 -0.151222,-0.03822 -0.0831,-0.01495 -0.192763,-0.01495 -0.177811,0 -0.322387,0.05982 -0.142911,0.05982 -0.244281,0.171163 -0.101367,0.111336 -0.156206,0.267542 -0.05484,0.156206 -0.05484,0.348989 0,0.206056 0.05817,0.368918 0.05982,0.161192 0.166177,0.274195 0.108016,0.111337 0.259235,0.171163 0.151221,0.05816 0.337352,0.05816 0.13294,0 0.237633,-0.02822 0.104694,-0.02822 0.204399,-0.07644 v -0.435388 h -0.302444 q -0.04321,0 -0.06813,-0.02325 -0.02327,-0.02495 -0.02327,-0.05982 v -0.252586 z m -2.716838,0.15738 q 0,-0.07977 -0.02327,-0.149559 -0.0216,-0.07145 -0.06647,-0.124632 -0.04487,-0.05318 -0.114663,-0.0831 -0.06813,-0.03158 -0.159529,-0.03158 -0.177811,0 -0.280841,0.101367 -0.101367,0.101367 -0.129616,0.287484 z m -0.782681,0.247605 q 0.01,0.13128 0.04652,0.227664 0.03655,0.09472 0.09638,0.157868 0.05983,0.06148 0.141252,0.09305 0.0831,0.02993 0.182795,0.02993 0.0997,0 0.171162,-0.02325 0.07312,-0.02325 0.126295,-0.05152 0.05484,-0.02822 0.09472,-0.05152 0.04154,-0.02325 0.07977,-0.02325 0.05153,0 0.07644,0.03822 l 0.117987,0.149558 q -0.06813,0.07977 -0.152882,0.134602 -0.08475,0.05318 -0.177809,0.08642 -0.09139,0.03158 -0.187782,0.04487 -0.09472,0.0133 -0.184458,0.0133 -0.17781,0 -0.330686,-0.05816 -0.152882,-0.05982 -0.265883,-0.174485 -0.112998,-0.116323 -0.17781,-0.285825 -0.0648,-0.171161 -0.0648,-0.395489 0,-0.174487 0.0565,-0.327356 0.0565,-0.15454 0.161193,-0.267543 0.106354,-0.11466 0.257574,-0.181134 0.152883,-0.06647 0.343988,-0.06647 0.161193,0 0.297458,0.05152 0.136265,0.05152 0.23431,0.151221 0.09805,0.09804 0.152882,0.242621 0.0565,0.14291 0.0565,0.327351 0,0.09306 -0.01994,0.126294 -0.01994,0.03158 -0.07644,0.03158 z m -1.511079,-4.0692 v 1.703643 h 2.698848 v 0.855816 h -2.698848 v 2.344489 h -1.616153 v -5.755846 h 4.713114 v 0.851805 z m 1.157835,-1.663308 h -3.706182 v 6.56806 h -1.442325 v -6.56806 h -5.296044 l -0.378982,-1.184957 h 10.823533 z"
     id="path58"
     style="stroke-width:0.425016" />
  <rect
     width="79.975517"
     height="3.0000782"
     y="-8.4073687"
     x="0.013227321"
     id="rect855"
     style="fill:#000000;stroke:#000000;stroke-width:0.0264546" />
  <rect
     style="fill:#ff0000;stroke:#000000;stroke-width:0.0254473"
     id="rect857"
     x="3.0127974"
     y="-7.3495135"
     height="3.0010855"
     width="73.976372" />
  <rect
     transform="matrix(0,1,1,0,0,0)"
     style="fill:#000000;stroke:#000000;stroke-width:0.0225393"
     id="rect863"
     x="0.01126966"
     y="-9.4396925"
     height="3.0039935"
     width="57.978889" />
  <rect
     width="51.979935"
     height="3.005187"
     y="-8.3819304"
     x="3.0107467"
     id="rect865"
     style="fill:#ff0000;stroke:#000000;stroke-width:0.0213457"
     transform="matrix(0,1,1,0,0,0)" />
</svg>
