<?xml version="1.0" encoding="UTF-8" standalone="no"?>
<!-- Created with Inkscape (http://www.inkscape.org/) -->
<svg xmlns:svg="http://www.w3.org/2000/svg" xmlns="http://www.w3.org/2000/svg" version="1.0" width="214.89578" height="251.7169" id="svg2780">
  <defs id="defs2782"/>
  <g transform="translate(-15.188932,-807.75325)" id="layer1">
    <path d="M 16.188932,808.75325 L 20.05976,971.35963 C 22.82463,1087.507 222.44901,1087.507 225.21389,971.35963 L 229.08472,808.75325 L 16.188932,808.75325 z " style="fill:#ffffff;fill-opacity:1;fill-rule:evenodd;stroke:#000000;stroke-width:2;stroke-linecap:butt;stroke-miterlimit:4;stroke-dashoffset:0;stroke-opacity:1" id="path3282"/>
    <path d="M 122.63683,977.10749 C 110.1804,971.31007 108.9236,963.54782 105.44288,956.17572 C 107.10413,956.42491 109.02969,956.8503 110.69094,957.09949 C 105.89561,950.51021 106.08143,945.2494 107.49425,940.78395 C 108.491,941.03314 110.80927,941.98713 111.80602,942.23632 C 110.77109,937.68591 111.49459,932.35958 111.65746,928.33969 C 112.57115,928.50581 113.57294,929.02434 114.48663,929.19046 C 114.45983,924.38088 113.83261,919.25591 113.31368,915.1025 C 114.22737,915.18556 115.93396,915.35673 116.84765,915.43979 C 117.38985,911.03747 116.75103,907.25187 116.65633,902.84955 C 117.48696,902.84955 118.31758,902.84955 119.14821,902.84955 C 118.73388,897.86481 117.37205,893.03467 116.30393,888.70372 C 117.24698,888.68947 118.19003,888.67522 119.13309,888.66096 C 119.22302,883.50166 117.57527,878.62406 115.90877,873.94378 C 117.40389,873.77765 118.37041,873.87583 119.86553,873.7097 C 118.2781,869.79885 115.52228,866.07285 112.65421,862.64223 C 114.48159,862.55917 116.57326,862.5642 118.40064,862.48114 C 115.44028,857.75988 112.40375,853.74497 108.94662,850.18284 C 110.44175,849.94153 112.02497,849.79527 113.5201,848.73306 C 108.13746,845.49332 101.92704,841.9686 95.095964,838.94146 L 80.749124,840.25831 C 79.036464,834.95158 78.082525,829.68503 74.578864,825.62871 C 71.996174,829.97911 68.954004,837.08486 66.316564,849.39946 L 79.247934,892.73607 C 79.250974,906.16198 58.902645,908.57525 49.655065,934.51151 C 44.004064,940.22497 39.537744,944.69929 45.388635,965.39567 C 51.255994,986.1503 77.781334,999.80856 69.353414,1021.0677 C 89.614024,1013.3823 107.64171,1018.8713 122.63683,1038.4077 C 137.63195,1018.8713 155.65963,1013.3823 175.92024,1021.0677 C 167.49232,999.80856 194.01766,986.1503 199.88502,965.39567 C 205.73591,944.69929 201.26959,940.22497 195.61859,934.51151 C 186.37101,908.57525 166.02268,906.16198 166.02572,892.73607 L 178.95709,849.39946 C 176.31965,837.08486 173.27748,829.97911 170.69479,825.62871 C 167.19113,829.68503 166.23719,834.95158 164.52453,840.25831 L 150.17769,838.94146 C 143.34662,841.9686 137.1362,845.49332 131.75356,848.73306 C 133.24869,849.79527 134.83191,849.94153 136.32704,850.18284 C 132.86991,853.74497 129.83338,857.75988 126.87302,862.48114 C 128.7004,862.5642 130.79207,862.55917 132.61945,862.64223 C 129.75138,866.07285 126.99556,869.79885 125.40813,873.7097 C 126.90325,873.87583 127.86977,873.77765 129.36489,873.94378 C 127.69839,878.62406 126.05064,883.50166 126.14057,888.66096 C 127.08363,888.67522 128.02668,888.68947 128.96973,888.70372 C 127.90161,893.03467 126.53978,897.86481 126.12545,902.84955 C 126.95608,902.84955 127.7867,902.84955 128.61733,902.84955 C 128.52263,907.25187 127.88381,911.03747 128.42601,915.43979 C 129.3397,915.35673 131.04629,915.18556 131.95998,915.1025 C 131.44105,919.25591 130.81383,924.38088 130.78703,929.19046 C 131.70072,929.02434 132.70251,928.50581 133.6162,928.33969 C 133.77907,932.35958 134.50257,937.68591 133.46764,942.23632 C 134.46439,941.98713 136.78266,941.03314 137.77941,940.78395 C 139.19223,945.2494 139.37805,950.51021 134.58272,957.09949 C 136.24397,956.8503 138.16953,956.42491 139.83078,956.17572 C 136.35006,963.54782 135.09326,971.31007 122.63683,977.10749 z " style="fill:#000000;fill-opacity:1;fill-rule:evenodd;stroke:none;stroke-width:1px;stroke-linecap:butt;stroke-linejoin:miter;stroke-opacity:0.52983728" id="path3249"/>
    <path d="M 165.55941,892.44597 C 179.33213,896.49733 173.52486,908.29337 183.9993,907.8956 C 194.53604,907.49783 190.29129,905.05071 189.91751,904.09549 C 189.54373,903.14027 186.44965,901.7282 186.24199,900.98064 C 186.03434,900.23308 186.17427,899.79361 187.61252,900.23308 C 189.10765,900.68992 193.60919,904.12673 194.65207,905.40373 C 195.66959,906.64967 196.77017,907.79177 198.88827,904.84305 C 200.97696,901.93527 206.74723,897.00629 198.64351,886.95758 C 190.57461,876.95205 192.91147,873.82274 187.71414,862.63235 C 182.56437,851.54435 185.34311,844.34618 173.8449,840.80181 C 170.19543,839.67684 168.89903,838.65748 164.0956,838.31024 C 166.28813,843.93767 166.39557,845.08213 166.74153,846.81507 C 166.38268,845.11207 166.30467,843.89734 164.0956,838.31024 C 161.87442,832.6925 152.07672,826.94196 144.58061,824.21749 C 145.89119,826.03376 147.54843,827.76336 147.60418,829.89333 C 146.54897,829.69841 145.00424,829.53891 144.27416,830.64452 C 145.56975,831.97752 147.0674,833.23305 147.79315,834.45062 C 146.92684,834.62191 146.26313,834.38803 145.10012,835.15273 C 146.90351,838.3267 148.4598,840.07549 150.85734,841.98545 C 149.83501,842.60513 149.04892,842.53712 148.17857,843.91666 C 151.0401,845.08574 153.58174,846.73461 155.77879,848.90041 C 136.59134,872.24099 151.81994,888.40438 165.55941,892.44597 z " style="fill:#000000;fill-opacity:1;fill-rule:evenodd;stroke:#ffffff;stroke-width:0.99921262;stroke-linecap:round;stroke-linejoin:round;stroke-miterlimit:4;stroke-dasharray:none;stroke-opacity:1" id="path3247"/>
    <path d="M 157.98933,846.64597 C 164.77312,847.26268 159.66325,840.91939 155.8749,836.60244" style="color:#000000;fill:none;fill-opacity:0.75;fill-rule:evenodd;stroke:#ffffff;stroke-width:0.99921262;stroke-linecap:round;stroke-linejoin:miter;marker:none;marker-start:none;marker-mid:none;marker-end:none;stroke-miterlimit:4;stroke-dasharray:none;stroke-dashoffset:0;stroke-opacity:1;visibility:visible;display:inline;overflow:visible;enable-background:accumulate" id="path4223"/>
    <path d="M 169.17818,846.73407 L 173.75944,853.42976 L 173.84754,846.64597" style="color:#000000;fill:none;fill-opacity:0.75;fill-rule:evenodd;stroke:#ffffff;stroke-width:0.99921262;stroke-linecap:round;stroke-linejoin:miter;marker:none;marker-start:none;marker-mid:none;marker-end:none;stroke-miterlimit:4;stroke-dasharray:none;stroke-dashoffset:0;stroke-opacity:1;visibility:visible;display:inline;overflow:visible;enable-background:accumulate" id="path4225"/>
    <path d="M 173.40704,869.99278 C 177.59184,873.20847 179.92652,867.61405 176.66678,865.41152 C 173.34629,863.16795 169.17931,866.7441 173.40704,869.99278 z " style="color:#000000;fill:none;fill-opacity:0.75;fill-rule:evenodd;stroke:#ffffff;stroke-width:0.99921262;stroke-linecap:round;stroke-linejoin:miter;marker:none;marker-start:none;marker-mid:none;marker-end:none;stroke-miterlimit:4;stroke-dasharray:none;stroke-dashoffset:0;stroke-opacity:1;visibility:visible;display:inline;overflow:visible;enable-background:accumulate" id="path4227"/>
    <path d="M 170.764,862.68038 C 181.77665,866.46873 176.93108,869.72847 183.01006,867.43784" style="color:#000000;fill:none;fill-opacity:0.75;fill-rule:evenodd;stroke:#ffffff;stroke-width:0.99921262;stroke-linecap:round;stroke-linejoin:miter;marker:none;marker-start:none;marker-mid:none;marker-end:none;stroke-miterlimit:4;stroke-dasharray:none;stroke-dashoffset:0;stroke-opacity:1;visibility:visible;display:inline;overflow:visible;enable-background:accumulate" id="path4229"/>
    <path d="M 175.16906,868.31885 C 176.75488,868.14265 177.19538,866.99734 177.63589,866.20443" style="color:#000000;fill:none;fill-opacity:0.75;fill-rule:evenodd;stroke:#ffffff;stroke-width:0.99921262;stroke-linecap:round;stroke-linejoin:miter;marker:none;marker-start:none;marker-mid:none;marker-end:none;stroke-miterlimit:4;stroke-dasharray:none;stroke-dashoffset:0;stroke-opacity:1;visibility:visible;display:inline;overflow:visible;enable-background:accumulate" id="path4231"/>
    <path d="M 188.20803,946.28838 C 194.02271,961.44178 194.37511,960.73697 188.20803,974.12835 C 194.37511,960.73697 195.60853,953.68888 195.96093,932.897" style="color:#000000;fill:none;fill-opacity:0.75;fill-rule:evenodd;stroke:#ffffff;stroke-width:0.99921262;stroke-linecap:round;stroke-linejoin:miter;marker:none;marker-start:none;marker-mid:none;marker-end:none;stroke-miterlimit:4;stroke-dasharray:none;stroke-dashoffset:0;stroke-opacity:1;visibility:visible;display:inline;overflow:visible;enable-background:accumulate" id="path4233"/>
    <path d="M 179.20244,857.2482 C 182.24262,855.841 185.27086,854.88122 186.74037,851.45459 L 186.7409,848.83663 L 186.74037,851.45459 C 187.80628,852.53505 190.49615,850.85061 193.15695,847.34299 L 193.39433,844.29871 L 193.15695,847.34299 C 195.09364,846.87806 199.01866,844.56869 200.75718,841.92316 L 200.73487,839.49243 L 200.75718,841.92316 C 203.26342,841.57754 206.34499,839.02567 207.79673,837.064 L 207.76278,835.19965 L 207.79673,837.064 C 209.69557,837.08538 212.78738,834.22515 214.08872,832.32943 L 214.03626,830.18056 L 214.08872,832.32943 C 215.53736,831.8672 218.34562,829.78755 219.22101,828.43508 L 219.32772,825.72651 L 219.22101,828.43508 C 223.19286,825.98938 227.49037,820.72156 227.54485,819.06018 C 225.93818,819.11983 217.24686,822.41793 213.77724,826.59811 C 211.22039,826.14764 209.96694,827.55883 208.73118,829.08999 L 208.62661,830.32238 L 208.73118,829.08999 C 206.15206,829.61879 202.86796,831.13087 201.75393,833.07699 L 201.54995,835.46744 L 201.75393,833.07699 C 198.84847,833.06851 196.06916,834.58329 194.83896,836.9394 L 194.78079,839.48876 L 194.83896,836.9394 C 192.43569,836.56343 188.58252,838.25226 186.92726,840.61492 L 186.96124,843.76759 L 186.92726,840.61492 C 182.39429,841.25807 178.90786,844.07177 176.71056,847.52988" style="color:#000000;fill:#000000;fill-opacity:1;fill-rule:evenodd;stroke:#ffffff;stroke-width:0.99921262;stroke-linecap:round;stroke-linejoin:round;marker:none;marker-start:none;marker-mid:none;marker-end:none;stroke-miterlimit:4;stroke-dasharray:none;stroke-dashoffset:0;stroke-opacity:1;visibility:visible;display:inline;overflow:visible;enable-background:accumulate" id="path4240"/>
    <path d="M 79.714244,892.44597 C 65.941524,896.49733 71.748795,908.29337 61.274355,907.8956 C 50.737614,907.49783 54.982364,905.05071 55.356144,904.09549 C 55.729924,903.14027 58.824005,901.7282 59.031664,900.98064 C 59.239314,900.23308 59.099384,899.79361 57.661134,900.23308 C 56.166004,900.68992 51.664465,904.12673 50.621584,905.40373 C 49.604064,906.64967 48.503484,907.79177 46.385385,904.84305 C 44.296695,901.93527 38.526424,897.00629 46.630145,886.95758 C 54.699044,876.95205 52.362184,873.82274 57.559514,862.63235 C 62.709284,851.54435 59.930544,844.34618 71.428754,840.80181 C 75.078225,839.67684 76.374624,838.65748 81.178055,838.31024 C 78.985524,843.93767 78.878084,845.08213 78.532124,846.81507 C 78.890974,845.11207 78.968985,843.89734 81.178055,838.31024 C 83.399234,832.6925 93.196934,826.94196 100.69305,824.21749 C 99.382468,826.03376 97.725224,827.76336 97.669474,829.89333 C 98.724688,829.69841 100.26942,829.53891 100.9995,830.64452 C 99.703907,831.97752 98.206255,833.23305 97.480504,834.45062 C 98.346814,834.62191 99.010527,834.38803 100.17354,835.15273 C 98.370144,838.3267 96.813855,840.07549 94.416314,841.98545 C 95.438644,842.60513 96.224734,842.53712 97.095084,843.91666 C 94.233554,845.08574 91.691914,846.73461 89.494864,848.90041 C 108.68232,872.24099 93.453715,888.40438 79.714244,892.44597 z " style="fill:#000000;fill-opacity:1;fill-rule:evenodd;stroke:#ffffff;stroke-width:0.99921262;stroke-linecap:round;stroke-linejoin:round;stroke-miterlimit:4;stroke-dasharray:none;stroke-opacity:1" id="path7155"/>
    <path d="M 87.284324,846.64597 C 80.500535,847.26268 85.610405,840.91939 89.398754,836.60244" style="color:#000000;fill:none;fill-opacity:0.75;fill-rule:evenodd;stroke:#ffffff;stroke-width:0.99921262;stroke-linecap:round;stroke-linejoin:miter;marker:none;marker-start:none;marker-mid:none;marker-end:none;stroke-miterlimit:4;stroke-dasharray:none;stroke-dashoffset:0;stroke-opacity:1;visibility:visible;display:inline;overflow:visible;enable-background:accumulate" id="path7157"/>
    <path d="M 76.095474,846.73407 L 71.514214,853.42976 L 71.426114,846.64597" style="color:#000000;fill:none;fill-opacity:0.75;fill-rule:evenodd;stroke:#ffffff;stroke-width:0.99921262;stroke-linecap:round;stroke-linejoin:miter;marker:none;marker-start:none;marker-mid:none;marker-end:none;stroke-miterlimit:4;stroke-dasharray:none;stroke-dashoffset:0;stroke-opacity:1;visibility:visible;display:inline;overflow:visible;enable-background:accumulate" id="path7159"/>
    <path d="M 71.866614,869.99278 C 67.681815,873.20847 65.347134,867.61405 68.606875,865.41152 C 71.927364,863.16795 76.094345,866.7441 71.866614,869.99278 z " style="color:#000000;fill:none;fill-opacity:0.75;fill-rule:evenodd;stroke:#ffffff;stroke-width:0.99921262;stroke-linecap:round;stroke-linejoin:miter;marker:none;marker-start:none;marker-mid:none;marker-end:none;stroke-miterlimit:4;stroke-dasharray:none;stroke-dashoffset:0;stroke-opacity:1;visibility:visible;display:inline;overflow:visible;enable-background:accumulate" id="path7161"/>
    <path d="M 74.509654,862.68038 C 63.497005,866.46873 68.342574,869.72847 62.263594,867.43784" style="color:#000000;fill:none;fill-opacity:0.75;fill-rule:evenodd;stroke:#ffffff;stroke-width:0.99921262;stroke-linecap:round;stroke-linejoin:miter;marker:none;marker-start:none;marker-mid:none;marker-end:none;stroke-miterlimit:4;stroke-dasharray:none;stroke-dashoffset:0;stroke-opacity:1;visibility:visible;display:inline;overflow:visible;enable-background:accumulate" id="path7163"/>
    <path d="M 70.104595,868.31885 C 68.518774,868.14265 68.078274,866.99734 67.637765,866.20443" style="color:#000000;fill:none;fill-opacity:0.75;fill-rule:evenodd;stroke:#ffffff;stroke-width:0.99921262;stroke-linecap:round;stroke-linejoin:miter;marker:none;marker-start:none;marker-mid:none;marker-end:none;stroke-miterlimit:4;stroke-dasharray:none;stroke-dashoffset:0;stroke-opacity:1;visibility:visible;display:inline;overflow:visible;enable-background:accumulate" id="path7165"/>
    <path d="M 57.065624,946.28838 C 51.250944,961.44178 50.898544,960.73697 57.065624,974.12835 C 50.898544,960.73697 49.665124,953.68888 49.312725,932.897" style="color:#000000;fill:none;fill-opacity:0.75;fill-rule:evenodd;stroke:#ffffff;stroke-width:0.99921262;stroke-linecap:round;stroke-linejoin:miter;marker:none;marker-start:none;marker-mid:none;marker-end:none;stroke-miterlimit:4;stroke-dasharray:none;stroke-dashoffset:0;stroke-opacity:1;visibility:visible;display:inline;overflow:visible;enable-background:accumulate" id="path7167"/>
    <path d="M 66.071214,857.2482 C 63.031035,855.841 60.002795,854.88122 58.533285,851.45459 L 58.532754,848.83663 L 58.533285,851.45459 C 57.467374,852.53505 54.777504,850.85061 52.116704,847.34299 L 51.879324,844.29871 L 52.116704,847.34299 C 50.180014,846.87806 46.254994,844.56869 44.516475,841.92316 L 44.538784,839.49243 L 44.516475,841.92316 C 42.010234,841.57754 38.928664,839.02567 37.476924,837.064 L 37.510874,835.19965 L 37.476924,837.064 C 35.578084,837.08538 32.486275,834.22515 31.184934,832.32943 L 31.237395,830.18056 L 31.184934,832.32943 C 29.736294,831.8672 26.928034,829.78755 26.052644,828.43508 L 25.945934,825.72651 L 26.052644,828.43508 C 22.080794,825.98938 17.783284,820.72156 17.728804,819.06018 C 19.335475,819.11983 28.026794,822.41793 31.496415,826.59811 C 34.053264,826.14764 35.306714,827.55883 36.542474,829.08999 L 36.647044,830.32238 L 36.542474,829.08999 C 39.121595,829.61879 42.405694,831.13087 43.519724,833.07699 L 43.723704,835.46744 L 43.519724,833.07699 C 46.425185,833.06851 49.204494,834.58329 50.434694,836.9394 L 50.492864,839.48876 L 50.434694,836.9394 C 52.837964,836.56343 56.691134,838.25226 58.346394,840.61492 L 58.312414,843.76759 L 58.346394,840.61492 C 62.879364,841.25807 66.365794,844.07177 68.563095,847.52988" style="color:#000000;fill:#000000;fill-opacity:1;fill-rule:evenodd;stroke:#ffffff;stroke-width:0.99921262;stroke-linecap:round;stroke-linejoin:round;marker:none;marker-start:none;marker-mid:none;marker-end:none;stroke-miterlimit:4;stroke-dasharray:none;stroke-dashoffset:0;stroke-opacity:1;visibility:visible;display:inline;overflow:visible;enable-background:accumulate" id="path7169"/>
  </g>
</svg>