<?xml version="1.0" encoding="UTF-8" standalone="no"?>
<!-- Created with Inkscape (http://www.inkscape.org/) -->

<svg
   xmlns:dc="http://purl.org/dc/elements/1.1/"
   xmlns:cc="http://creativecommons.org/ns#"
   xmlns:rdf="http://www.w3.org/1999/02/22-rdf-syntax-ns#"
   xmlns:svg="http://www.w3.org/2000/svg"
   xmlns="http://www.w3.org/2000/svg"
   xmlns:sodipodi="http://sodipodi.sourceforge.net/DTD/sodipodi-0.dtd"
   xmlns:inkscape="http://www.inkscape.org/namespaces/inkscape"
   version="1.1"
   id="svg2"
   xml:space="preserve"
   width="1168.924"
   height="908.7663"
   viewBox="0 0 1168.924 908.7663"
   sodipodi:docname="UnicornOutLogo.svg"
   inkscape:version="0.92.4 (5da689c313, 2019-01-14)"><metadata
     id="metadata8"><rdf:RDF><cc:Work
         rdf:about=""><dc:format>image/svg+xml</dc:format><dc:type
           rdf:resource="http://purl.org/dc/dcmitype/StillImage" /><dc:title></dc:title></cc:Work></rdf:RDF></metadata><defs
     id="defs6" /><sodipodi:namedview
     pagecolor="#ffffff"
     bordercolor="#666666"
     borderopacity="1"
     objecttolerance="10"
     gridtolerance="10"
     guidetolerance="10"
     inkscape:pageopacity="0"
     inkscape:pageshadow="2"
     inkscape:window-width="640"
     inkscape:window-height="480"
     id="namedview4"
     showgrid="false"
     inkscape:zoom="0.25969273"
     inkscape:cx="584.46198"
     inkscape:cy="454.38315"
     inkscape:window-x="0"
     inkscape:window-y="0"
     inkscape:window-maximized="0"
     inkscape:current-layer="g10" /><g
     id="g10"
     inkscape:groupmode="layer"
     inkscape:label="UnicornCondomLogo"
     transform="matrix(1.3333333,0,0,1.3333333,0,2.6719157e-5)"><g
       id="g12"><path
         d="m 336.75,297.152 281.004,344 -28.406,26.25 -289.114,-347.187 z"
         style="fill:#000000;fill-opacity:1;fill-rule:nonzero;stroke:none"
         id="path14"
         inkscape:connector-curvature="0" /><path
         d="m 15.391,17.645 c -2.938,0 -0.696,3.765 8.218,13.816 5.211,5.875 10.387,11.25 11.5,11.941 1.114,0.692 2.024,1.731 2.024,2.305 0,0.578 4.949,6.648 11,13.492 6.051,6.844 16.062,18.172 22.25,25.176 6.187,7 26.211,29.57 44.5,50.156 18.285,20.586 33.25,37.758 33.25,38.157 0,3.136 -16.77,23.214 -45.383,54.339 -45.629,49.641 -52.262,58.282 -55.598,72.438 -1.531,6.504 -0.785,11.738 2.684,18.828 6.891,14.074 20.687,22.723 30.023,18.82 2.938,-1.226 43.637,-13.758 68.274,-21.023 24.16,-7.121 29,-8.875 29.582,-10.707 0.437,-1.379 1.215,-1.766 2.75,-1.363 3.187,0.835 14.207,-2.024 19.289,-5 3.894,-2.286 10.164,-8.598 21.219,-21.375 2.074,-2.403 3.351,-3.18 4.066,-2.477 0.574,0.562 1.965,5.512 3.094,11 10.055,48.949 8.89,71.109 -4.926,93.777 -10.07,16.52 -29.621,34.907 -51.781,48.711 -3.969,2.469 -7.231,5.051 -7.254,5.739 -0.02,0.687 0.348,1.25 0.82,1.25 1.613,0 51.453,-23.426 59.141,-27.797 0.824,-0.469 5.984,-3.067 11.461,-5.778 12.316,-6.09 34.84,-18.613 51.972,-28.894 67.504,-40.504 108.391,-78.555 119.684,-111.371 2.766,-8.039 1.758,-14.59 -3.867,-25.16 -6.723,-12.637 -16.465,-27.11 -18.028,-26.786 -0.929,0.196 -1.437,2.188 -1.601,6.301 -0.332,8.25 -4.141,14.996 -14.121,25.016 -7.656,7.691 -24.547,20.738 -33,25.5 -21.824,12.289 -28.395,15.765 -41.383,21.883 -14.301,6.73 -27.277,12.086 -29.297,12.086 -2.859,0 2.129,-3.043 16.055,-9.786 18.597,-9.004 22.742,-11.433 34.812,-20.421 27.043,-20.137 43.36,-48.969 45.012,-79.547 l 0.609,-11.254 -7.879,-7.528 c -4.332,-4.14 -8.515,-7.402 -9.292,-7.246 -0.782,0.153 -1.954,2.082 -2.602,4.282 -3.156,10.664 -22.512,34.296 -42.711,52.156 -10.586,9.355 -14.574,12.324 -16.574,12.336 -2.516,0.011 -1.024,-2.719 7.297,-13.348 4.675,-5.969 10.293,-14.07 12.48,-18 7.742,-13.898 12.754,-34.457 11.684,-47.926 -0.949,-11.922 -1.492,-12.734 -12,-17.98 -15.246,-7.613 -35.469,-15.719 -39.262,-15.731 -1.125,-0.004 -2.484,-0.441 -3.012,-0.972 -2.277,-2.278 -32.172,-9.614 -54.937,-13.485 -26.008,-4.422 -25.067,-4.496 -21.852,1.746 2.61,5.067 6.223,9.692 13.223,16.918 6.387,6.594 6.473,6.75 4.672,8.739 -2.629,2.906 -10.91,8.047 -12.961,8.047 -1.817,0 -14.488,-8.43 -35.426,-23.575 -6.793,-4.91 -14.547,-10.5 -17.234,-12.425 C 131.504,102.387 121.074,94.703 45.141,38.668 29.469,27.105 16.078,17.645 15.391,17.645 Z m 146.183,180.984 c 2.235,0.086 4.25,0.769 5.926,2.086 3.695,2.91 3.309,5.789 -1.688,12.57 -5.679,7.707 -15.253,15.043 -24.179,18.527 -7.688,3 -14.5,3.098 -14.5,0.208 0,-4.098 9.769,-18.098 17.863,-25.59 5.699,-5.278 11.668,-7.989 16.578,-7.801 z"
         style="fill:#000000;fill-opacity:1;fill-rule:nonzero;stroke:none"
         id="path16"
         inkscape:connector-curvature="0" /><g
         id="g18"><path
           d="m 538.52,295.098 -281.004,344 28.406,26.25 289.109,-347.188 z"
           style="fill:#ffffff;fill-opacity:1;fill-rule:nonzero;stroke:#000000;stroke-width:2.83464599;stroke-linecap:butt;stroke-linejoin:miter;stroke-miterlimit:4;stroke-dasharray:none;stroke-opacity:1"
           id="path20"
           inkscape:connector-curvature="0" /></g><g
         id="g22"><path
           d="m 859.879,15.59 c -0.691,0 -14.078,9.461 -29.75,21.027 -75.938,56.031 -86.367,63.715 -90.914,66.973 -2.692,1.926 -10.445,7.515 -17.235,12.426 -20.937,15.144 -33.609,23.574 -35.429,23.574 -2.047,0 -10.328,-5.141 -12.957,-8.047 -1.801,-1.988 -1.719,-2.145 4.672,-8.738 7,-7.227 10.613,-11.848 13.222,-16.914 3.215,-6.246 4.157,-6.168 -21.851,-1.75 -22.766,3.871 -52.66,11.207 -54.938,13.488 -0.531,0.527 -1.887,0.965 -3.011,0.969 -3.793,0.011 -24.02,8.117 -39.262,15.73 -10.508,5.246 -11.051,6.059 -12,17.981 -1.071,13.468 3.941,34.027 11.683,47.925 2.188,3.93 7.805,12.032 12.477,18 8.324,10.629 9.816,13.364 7.301,13.348 -2,-0.008 -5.992,-2.98 -16.575,-12.336 -20.199,-17.859 -39.554,-41.492 -42.71,-52.156 -0.653,-2.199 -1.821,-4.125 -2.602,-4.281 -0.781,-0.153 -4.961,3.109 -9.293,7.246 l -7.879,7.527 0.61,11.254 c 1.652,30.578 17.968,59.41 45.011,79.547 12.071,8.988 16.215,11.422 34.809,20.422 13.93,6.746 18.918,9.785 16.054,9.785 -2.015,0 -14.992,-5.356 -29.292,-12.086 -12.989,-6.117 -19.559,-9.59 -41.383,-21.883 -8.453,-4.758 -25.344,-17.809 -33,-25.5 -9.981,-10.019 -13.789,-16.762 -14.121,-25.012 -0.164,-4.117 -0.672,-6.109 -1.602,-6.3 -1.562,-0.329 -11.305,14.144 -18.027,26.781 -5.625,10.574 -6.633,17.121 -3.867,25.164 11.289,32.812 52.179,70.863 119.683,111.367 17.133,10.285 39.656,22.805 51.973,28.895 5.476,2.711 10.636,5.312 11.461,5.781 7.687,4.367 57.527,27.793 59.14,27.793 0.473,0 0.84,-0.563 0.821,-1.25 -0.024,-0.688 -3.289,-3.27 -7.254,-5.738 -22.164,-13.801 -41.711,-32.192 -51.782,-48.711 -13.82,-22.668 -14.984,-44.829 -4.925,-93.778 1.129,-5.484 2.519,-10.437 3.093,-11 0.711,-0.703 1.989,0.075 4.067,2.477 11.055,12.777 17.32,19.094 21.215,21.375 5.086,2.98 16.101,5.836 19.293,5 1.535,-0.399 2.312,-0.016 2.75,1.363 0.582,1.836 5.422,3.586 29.582,10.711 24.636,7.262 65.336,19.793 68.273,21.02 9.336,3.902 23.129,-4.747 30.02,-18.817 3.472,-7.094 4.218,-12.324 2.687,-18.832 -3.336,-14.156 -9.969,-22.797 -55.597,-72.433 -28.614,-31.129 -45.383,-51.207 -45.383,-54.34 0,-0.403 14.961,-17.575 33.25,-38.16 18.289,-20.586 38.312,-43.157 44.5,-50.157 6.187,-7.004 16.199,-18.332 22.25,-25.175 6.051,-6.844 11,-12.915 11,-13.493 0,-0.574 0.91,-1.613 2.023,-2.304 1.113,-0.692 6.289,-6.067 11.5,-11.942 8.914,-10.051 11.152,-13.816 8.219,-13.816 z M 713.691,196.578 c 4.914,-0.191 10.879,2.52 16.582,7.797 8.09,7.496 17.864,21.492 17.864,25.594 0,2.89 -6.813,2.793 -14.5,-0.211 -8.926,-3.481 -18.5,-10.817 -24.18,-18.528 -4.996,-6.777 -5.383,-9.66 -1.687,-12.566 1.675,-1.316 3.691,-2 5.921,-2.086 z"
           style="fill:#ffffff;fill-opacity:1;fill-rule:nonzero;stroke:#000000;stroke-width:2.83464599;stroke-linecap:butt;stroke-linejoin:miter;stroke-miterlimit:4;stroke-dasharray:none;stroke-opacity:1"
           id="path24"
           inkscape:connector-curvature="0" /></g></g></g></svg>