<?xml version="1.0" encoding="UTF-8" standalone="no"?>
<!-- Created with Inkscape (http://www.inkscape.org/) -->

<svg
   xmlns:dc="http://purl.org/dc/elements/1.1/"
   xmlns:cc="http://creativecommons.org/ns#"
   xmlns:rdf="http://www.w3.org/1999/02/22-rdf-syntax-ns#"
   xmlns:svg="http://www.w3.org/2000/svg"
   xmlns="http://www.w3.org/2000/svg"
   xmlns:sodipodi="http://sodipodi.sourceforge.net/DTD/sodipodi-0.dtd"
   xmlns:inkscape="http://www.inkscape.org/namespaces/inkscape"
   version="1.1"
   id="svg2"
   width="222.92953mm"
   height="239.22009mm"
   viewBox="0 0 842.56833 904.13895"
   sodipodi:docname="UnicornCondomLogo.svg"
   inkscape:version="0.92.4 (5da689c313, 2019-01-14)">
  <metadata
     id="metadata8">
    <rdf:RDF>
      <cc:Work
         rdf:about="">
        <dc:format>image/svg+xml</dc:format>
        <dc:type
           rdf:resource="http://purl.org/dc/dcmitype/StillImage" />
        <dc:title></dc:title>
      </cc:Work>
    </rdf:RDF>
  </metadata>
  <defs
     id="defs6" />
  <sodipodi:namedview
     pagecolor="#ffffff"
     bordercolor="#666666"
     borderopacity="1"
     objecttolerance="10"
     gridtolerance="10"
     guidetolerance="10"
     inkscape:pageopacity="0"
     inkscape:pageshadow="2"
     inkscape:window-width="1366"
     inkscape:window-height="707"
     id="namedview4"
     showgrid="false"
     units="mm"
     fit-margin-top="5"
     fit-margin-left="5"
     fit-margin-right="5"
     fit-margin-bottom="5"
     inkscape:zoom="0.39026042"
     inkscape:cx="-81.125602"
     inkscape:cy="478.45663"
     inkscape:window-x="0"
     inkscape:window-y="0"
     inkscape:window-maximized="1"
     inkscape:current-layer="svg2" />
  <path
     style="fill:#040404;stroke-width:1.33333337"
     d="m 623.67145,574.56437 c -0.0299,-0.91667 -4.37992,-4.36011 -9.66667,-7.6521 -29.55176,-18.40149 -55.6172,-42.91976 -69.04488,-64.94657 -18.42364,-30.22222 -19.97496,-59.77079 -6.56446,-125.03603 1.50323,-7.31575 3.35764,-13.91575 4.12092,-14.66667 0.95247,-0.93703 2.65408,0.0985 5.42455,3.30136 14.73556,17.03501 23.09445,25.45667 28.28775,28.50015 6.77788,3.97209 21.46942,7.78048 25.72332,6.66805 2.04516,-0.53481 3.07998,-0.0212 3.66393,1.81874 0.77565,2.44386 7.23109,4.78046 39.44328,14.27677 32.84796,9.68375 87.11558,26.39327 91.03181,28.02956 12.44796,5.20109 30.8398,-6.3278 40.02725,-25.09103 4.62923,-9.4541 5.62448,-16.43344 3.58049,-25.10864 -4.44694,-18.87397 -13.28956,-30.39427 -74.13121,-96.57936 -38.15148,-41.50212 -60.50834,-68.27239 -60.50834,-72.45312 0,-0.53514 19.95,-23.4296 44.33334,-50.8766 24.38333,-27.44701 51.08333,-57.54184 59.33333,-66.87744 8.25,-9.335602 21.6,-24.440302 29.66667,-33.566202 8.06667,-9.1258 14.66667,-17.2207 14.66667,-17.9887 0,-0.7679 1.21445,-2.1514 2.6988,-3.0742 1.48433,-0.9229 8.38433,-8.0885 15.33333,-15.9237 11.88261,-13.3978 14.87088,-18.421 10.95868,-18.421 -0.92172,0 -18.77172,12.6153 -39.66667,28.0339 -101.24791,74.711802 -115.15544,84.957092 -121.22027,89.299482 -3.58476,2.56667 -13.92462,10.02311 -22.97748,16.56987 -27.91981,20.19081 -44.81183,31.43013 -47.23756,31.43013 -2.73291,0 -13.77325,-6.85565 -17.27933,-10.72983 -2.39966,-2.65158 -2.28942,-2.85777 6.22953,-11.65142 9.33183,-9.63278 14.15128,-15.79787 17.63001,-22.55254 4.28816,-8.32634 5.54234,-8.226 -29.13572,-2.33125 -30.35453,5.15983 -70.21283,14.94453 -73.25033,17.98204 -0.70566,0.70565 -2.513,1.28728 -4.01634,1.29252 -5.05408,0.0176 -32.02189,10.82275 -52.34813,20.97423 -14.01016,6.99704 -14.73189,8.07872 -15.99759,23.97608 -1.42956,17.95531 5.25232,45.36844 15.57588,63.90179 2.91914,5.24054 10.40588,16.04055 16.63723,24 11.0946,14.1714 13.08668,17.81395 9.73261,17.79627 -2.66573,-0.014 -7.98698,-3.97518 -22.09674,-16.44874 -26.93624,-23.81263 -52.74259,-55.32571 -56.94901,-69.54248 -0.8679,-2.93333 -2.42909,-5.5016 -3.4693,-5.70727 -1.0402,-0.20566 -6.6168,4.14174 -12.3924,9.66088 l -10.50111,10.03482 0.81062,15.00578 c 2.20248,40.77141 23.95545,79.21642 60.01292,106.06355 16.09761,11.98572 21.62216,15.2268 46.4158,27.23068 18.5713,8.99134 25.2232,13.0449 21.40666,13.0449 -2.68976,0 -19.99164,-7.13911 -39.0592,-16.1166 -17.31977,-8.1546 -26.081,-12.78674 -55.17824,-29.17323 -11.27308,-6.34859 -33.78961,-23.74708 -44.00106,-33.99957 -13.30815,-13.36166 -18.38369,-22.35404 -18.82609,-33.3545 -0.2207,-5.48749 -0.8955,-8.14203 -2.1355,-8.40016 -2.0845,-0.43392 -15.0727,18.8609 -24.0385,35.71072 -7.5003,14.09578 -8.842,22.82975 -5.1537,33.54999 15.0537,43.75423 69.57256,94.48699 159.57535,148.49344 22.84636,13.70903 52.87747,30.40457 69.29756,38.52537 7.30507,3.61284 14.18195,7.08044 15.28195,7.70578 10.24892,5.8265 76.70457,37.05876 78.85319,37.05876 0.63074,0 1.12233,-0.75 1.0924,-1.66666 z m 30.05441,-270.10734 c -11.90005,-4.64498 -24.66552,-14.42694 -32.24141,-24.70602 -6.66143,-9.03833 -7.17599,-12.87819 -2.24544,-16.75655 7.138,-5.61474 18.94729,-2.61584 30.00196,7.61884 10.79057,9.99017 23.81822,28.65271 23.81822,34.12042 0,3.85428 -9.08314,3.72429 -19.33333,-0.27669 z"
     id="path12"
     inkscape:connector-curvature="0" />
  <path
     style="fill:#000000;stroke:none;stroke-width:1px;stroke-linecap:butt;stroke-linejoin:miter;stroke-opacity:1"
     d="M 393.56919,391.57493 18.897638,850.24302 56.771117,885.24128 442.25464,422.32363 Z"
     id="path7"
     inkscape:connector-curvature="0"
     sodipodi:nodetypes="ccccc" />
</svg>
